<svg width="191" height="52" viewBox="0 0 191 52" fill="none" xmlns="http://www.w3.org/2000/svg">
<path d="M17.52 26.6747C11.3645 25.8021 11.5646 32.2379 0.89502 44.0188V51L186.77 49.375L189.604 46.3014L179.27 39.25L172.52 35.2922L166.895 30C160.395 22.7321 161.208 16.4045 152.27 15.75C146.759 15.3464 135.891 23.6204 131.895 26.8929C129.392 28.9423 124.544 30.3751 117.895 24.8203C112.216 20.0753 112.645 18.5 107.52 18.5C102.395 18.5 101.607 22.5296 99.145 26.8929C96.6828 31.2562 97.895 42.875 91.895 42.875C90.27 42.875 88.2277 44.2537 87.02 36.875C85.5459 27.8681 84.77 27.75 84.77 27.75C84.77 27.75 81.6576 18.5 76.145 18.5C70.3875 18.5 65.2775 25.7475 61.5842 30.5471C57.8909 35.3467 56.8533 36.9846 50.02 33.5C45.02 30.9503 50.02 28.2019 41.395 24.875C34.5819 22.247 35.5725 32.7526 31.645 36.625C28.6606 39.5676 26.9987 40.6372 22.895 39.3282C18.7913 38.0193 23.6755 27.5474 17.52 26.6747Z" fill="url(#paint0_linear_25_513)" fill-opacity="0.15"/>
<path d="M189.895 0.25L189.604 46.3014M189.604 46.3014L186.77 49.375L0.89502 51V44.0188C11.5646 32.2379 11.3645 25.8021 17.52 26.6747C23.6755 27.5474 18.7913 38.0193 22.895 39.3282C26.9987 40.6372 28.6606 39.5676 31.645 36.625C35.5725 32.7526 34.5819 22.247 41.395 24.875C50.02 28.2019 45.02 30.9503 50.02 33.5C56.8533 36.9846 57.8909 35.3467 61.5842 30.5471C65.2775 25.7475 70.3875 18.5 76.145 18.5C81.6576 18.5 84.77 27.75 84.77 27.75C84.77 27.75 85.5459 27.8681 87.02 36.875C88.2277 44.2537 90.27 42.875 91.895 42.875C97.895 42.875 96.6828 31.2562 99.145 26.8929C101.607 22.5296 102.395 18.5 107.52 18.5C112.645 18.5 112.216 20.0753 117.895 24.8203C124.544 30.3751 129.392 28.9423 131.895 26.8929C135.891 23.6204 146.759 15.3464 152.27 15.75C161.208 16.4045 160.395 22.7321 166.895 30L172.52 35.2922L179.27 39.25L189.895 46.5L189.604 46.3014Z" stroke="#F55D6F" stroke-opacity="0.1"/>
<defs>
<linearGradient id="paint0_linear_25_513" x1="95.895" y1="-4.41362" x2="95.895" y2="51" gradientUnits="userSpaceOnUse">
<stop stop-color="#F55D6F"/>
<stop offset="1" stop-color="#F55D6F" stop-opacity="0"/>
</linearGradient>
</defs>
</svg>
