<svg width="189" height="50" viewBox="0 0 189 50" fill="none" xmlns="http://www.w3.org/2000/svg">
<path d="M17.5906 26.3581C11.5404 25.5279 11.737 31.6507 1.25 42.8584V49.5H188V10.3767L158.39 24.5939C148.227 30.4053 145.468 12.6632 136.683 12.0405C131.267 11.6566 128.388 22.2323 125.749 26.4297C124.029 29.1649 117.663 31.7142 111.128 26.4297C105.546 21.9155 105.231 11.6838 100.193 11.6838C95.156 11.6838 89.9587 22.2787 87.5386 26.4297C85.1185 30.5807 82.8699 37.3703 76.9725 37.3703C75.3753 37.3703 70.4853 35.2244 72.3037 28.3324C74.3458 20.5931 63.9491 12.2784 56.8698 16.9005C53.605 19.0321 32.7422 31.1943 32.0051 35.8243C29.0716 38.6238 26.9072 39.6414 22.8737 38.396C18.8402 37.1507 23.6408 27.1883 17.5906 26.3581Z" fill="url(#paint0_linear_25_558)" fill-opacity="0.2"/>
<path d="M188 0.5V10.3767M188 10.3767V49.5H1.25V42.8584C11.737 31.6507 11.5404 25.5279 17.5906 26.3581C23.6408 27.1883 18.8402 37.1507 22.8737 38.396C26.9072 39.6414 29.0716 38.6238 32.0051 35.8243C32.7422 31.1943 53.605 19.0321 56.8698 16.9005C63.9491 12.2784 74.3458 20.5931 72.3037 28.3324C70.4853 35.2244 75.3753 37.3703 76.9725 37.3703C82.8699 37.3703 85.1185 30.5807 87.5386 26.4297C89.9587 22.2787 95.156 11.6838 100.193 11.6838C105.231 11.6838 105.546 21.9155 111.128 26.4297C117.663 31.7142 124.029 29.1649 125.749 26.4297C128.388 22.2323 131.267 11.6566 136.683 12.0405C145.468 12.6632 148.227 30.4053 158.39 24.5939L188 10.3767Z" stroke="#333A4B"/>
<defs>
<linearGradient id="paint0_linear_25_558" x1="94.625" y1="17.5" x2="94.625" y2="49.5" gradientUnits="userSpaceOnUse">
<stop stop-color="#333A4B"/>
<stop offset="1" stop-color="#333A4B" stop-opacity="0"/>
</linearGradient>
</defs>
</svg>
