<svg width="790" height="432" viewBox="0 0 790 432" fill="none" xmlns="http://www.w3.org/2000/svg">
<rect y="0.784027" width="790" height="431.081" fill="#282938"/>
<path d="M108.095 49.612L108.111 369.16" stroke="white" stroke-width="1.53555"/>
<path d="M108.197 369.565H742.527" stroke="white" stroke-width="1.53555"/>
<path d="M108.197 314.963H742.527" stroke="#717278" stroke-width="0.921328"/>
<path d="M108.197 262.378H742.527" stroke="#717278" stroke-width="0.921328"/>
<path d="M108.536 207.373H742.527" stroke="#717278" stroke-width="0.921328"/>
<path d="M108.197 153.578H741.956" stroke="#717278" stroke-width="0.921328"/>
<path d="M108.197 99.7828H741.956" stroke="#717278" stroke-width="0.921328"/>
<path d="M108.104 49.612L741.956 50.1551" stroke="#717278" stroke-width="0.921328"/>
<path d="M161.49 50.6948L161.49 368.624" stroke="#717278" stroke-width="0.614219"/>
<path d="M223.368 50.1569L223.368 370.238" stroke="#717278" stroke-width="0.614219"/>
<path d="M288.191 50.6948L288.191 371.851" stroke="#717278" stroke-width="0.614219"/>
<path d="M353.015 50.6948L353.015 369.7" stroke="#717278" stroke-width="0.614219"/>
<path d="M417.838 50.1569L417.838 370.238" stroke="#717278" stroke-width="0.614219"/>
<path d="M482.662 50.6948L482.662 369.7" stroke="#717278" stroke-width="0.614219"/>
<path d="M547.485 50.1569L547.485 368.624" stroke="#717278" stroke-width="0.614219"/>
<path d="M612.308 50.1569L612.308 367.548" stroke="#717278" stroke-width="0.614219"/>
<path d="M677.132 50.1569L677.132 368.624" stroke="#717278" stroke-width="0.614219"/>
<path d="M741.956 50.1569L741.956 369.7" stroke="#717278" stroke-width="0.614219"/>
<path d="M108.478 330.865L158.713 314.291L207.196 206.969L258.391 238.978L311.959 221.763L364.171 98.8414L417.4 154.519L448.253 120.628L471.307 170.12L524.536 190.562L541.678 145.58C542.002 144.73 542.45 143.933 543.007 143.214L577.426 98.8414L635.741 176.575L695.412 120.628L716.255 74.9119L740.625 60.9896" stroke="#F55D6F" stroke-width="3.5"/>
<path d="M30.9646 48.8536C30.8433 48.3683 30.6333 48.009 30.3346 47.7756C30.0359 47.5423 29.6113 47.4256 29.0606 47.4256C28.5006 47.4256 28.0386 47.5563 27.6746 47.8176C27.3199 48.079 27.0493 48.5083 26.8626 49.1056C26.6759 49.6936 26.5733 50.487 26.5546 51.4856C26.8066 51.0283 27.1799 50.6736 27.6746 50.4216C28.1693 50.1603 28.7199 50.0296 29.3266 50.0296C29.9426 50.0296 30.4839 50.165 30.9506 50.4356C31.4266 50.7063 31.7953 51.0936 32.0566 51.5976C32.3273 52.1016 32.4626 52.7036 32.4626 53.4036C32.4626 54.0476 32.3366 54.6263 32.0846 55.1396C31.8419 55.653 31.4733 56.059 30.9786 56.3576C30.4839 56.6563 29.8773 56.8056 29.1586 56.8056C28.1786 56.8056 27.4179 56.5816 26.8766 56.1336C26.3446 55.6856 25.9806 55.0743 25.7846 54.2996C25.5886 53.525 25.4906 52.5636 25.4906 51.4156C25.4906 49.8103 25.7799 48.5643 26.3586 47.6776C26.9373 46.791 27.8379 46.3476 29.0606 46.3476C29.6673 46.3476 30.1899 46.4643 30.6286 46.6976C31.0673 46.9216 31.4079 47.225 31.6506 47.6076C31.9026 47.981 32.0566 48.3963 32.1126 48.8536H30.9646ZM26.7366 53.3476C26.7366 54.0756 26.9373 54.6543 27.3386 55.0836C27.7399 55.513 28.3279 55.7276 29.1026 55.7276C29.7653 55.7276 30.2879 55.527 30.6706 55.1256C31.0626 54.715 31.2586 54.1643 31.2586 53.4736C31.2586 52.7363 31.0719 52.1623 30.6986 51.7516C30.3346 51.3316 29.7886 51.1216 29.0606 51.1216C28.6593 51.1216 28.2813 51.2056 27.9266 51.3736C27.5719 51.5323 27.2826 51.7796 27.0586 52.1156C26.8439 52.4423 26.7366 52.853 26.7366 53.3476ZM35.0744 55.4336C34.561 54.5283 34.3044 53.2776 34.3044 51.6816C34.3044 50.0856 34.561 48.835 35.0744 47.9296C35.5877 47.0243 36.5024 46.5716 37.8184 46.5716C39.1344 46.5716 40.049 47.0243 40.5624 47.9296C41.0757 48.8256 41.3324 50.0763 41.3324 51.6816C41.3324 53.2776 41.0757 54.5283 40.5624 55.4336C40.049 56.339 39.1344 56.7916 37.8184 56.7916C36.5024 56.7916 35.5877 56.339 35.0744 55.4336ZM39.9324 53.7396C40.0444 53.1703 40.1004 52.4843 40.1004 51.6816C40.1004 50.8696 40.0444 50.1836 39.9324 49.6236C39.8297 49.0543 39.6104 48.5923 39.2744 48.2376C38.9477 47.883 38.4624 47.7056 37.8184 47.7056C37.1744 47.7056 36.6844 47.883 36.3484 48.2376C36.0217 48.5923 35.807 49.0543 35.7044 49.6236C35.6017 50.1836 35.5504 50.8696 35.5504 51.6816C35.5504 52.4936 35.6017 53.1796 35.7044 53.7396C35.807 54.2996 36.0217 54.7616 36.3484 55.1256C36.6844 55.4803 37.1744 55.6576 37.8184 55.6576C38.4624 55.6576 38.9477 55.4803 39.2744 55.1256C39.6104 54.7616 39.8297 54.2996 39.9324 53.7396ZM44.1288 55.8676C44.2501 56.3623 44.3108 56.815 44.3108 57.2256C44.3108 58.2803 43.8301 58.8076 42.8688 58.8076V58.1916C43.1021 58.1916 43.2701 58.1356 43.3728 58.0236C43.4848 57.9116 43.5408 57.7343 43.5408 57.4916V57.1696H42.8268V55.8676H44.1288ZM46.5724 55.4336C46.0591 54.5283 45.8024 53.2776 45.8024 51.6816C45.8024 50.0856 46.0591 48.835 46.5724 47.9296C47.0857 47.0243 48.0004 46.5716 49.3164 46.5716C50.6324 46.5716 51.5471 47.0243 52.0604 47.9296C52.5737 48.8256 52.8304 50.0763 52.8304 51.6816C52.8304 53.2776 52.5737 54.5283 52.0604 55.4336C51.5471 56.339 50.6324 56.7916 49.3164 56.7916C48.0004 56.7916 47.0857 56.339 46.5724 55.4336ZM51.4304 53.7396C51.5424 53.1703 51.5984 52.4843 51.5984 51.6816C51.5984 50.8696 51.5424 50.1836 51.4304 49.6236C51.3277 49.0543 51.1084 48.5923 50.7724 48.2376C50.4457 47.883 49.9604 47.7056 49.3164 47.7056C48.6724 47.7056 48.1824 47.883 47.8464 48.2376C47.5197 48.5923 47.3051 49.0543 47.2024 49.6236C47.0997 50.1836 47.0484 50.8696 47.0484 51.6816C47.0484 52.4936 47.0997 53.1796 47.2024 53.7396C47.3051 54.2996 47.5197 54.7616 47.8464 55.1256C48.1824 55.4803 48.6724 55.6576 49.3164 55.6576C49.9604 55.6576 50.4457 55.4803 50.7724 55.1256C51.1084 54.7616 51.3277 54.2996 51.4304 53.7396ZM55.4728 55.4336C54.9595 54.5283 54.7028 53.2776 54.7028 51.6816C54.7028 50.0856 54.9595 48.835 55.4728 47.9296C55.9861 47.0243 56.9008 46.5716 58.2168 46.5716C59.5328 46.5716 60.4475 47.0243 60.9608 47.9296C61.4741 48.8256 61.7308 50.0763 61.7308 51.6816C61.7308 53.2776 61.4741 54.5283 60.9608 55.4336C60.4475 56.339 59.5328 56.7916 58.2168 56.7916C56.9008 56.7916 55.9861 56.339 55.4728 55.4336ZM60.3308 53.7396C60.4428 53.1703 60.4988 52.4843 60.4988 51.6816C60.4988 50.8696 60.4428 50.1836 60.3308 49.6236C60.2281 49.0543 60.0088 48.5923 59.6728 48.2376C59.3461 47.883 58.8608 47.7056 58.2168 47.7056C57.5728 47.7056 57.0828 47.883 56.7468 48.2376C56.4201 48.5923 56.2055 49.0543 56.1028 49.6236C56.0001 50.1836 55.9488 50.8696 55.9488 51.6816C55.9488 52.4936 56.0001 53.1796 56.1028 53.7396C56.2055 54.2996 56.4201 54.7616 56.7468 55.1256C57.0828 55.4803 57.5728 55.6576 58.2168 55.6576C58.8608 55.6576 59.3461 55.4803 59.6728 55.1256C60.0088 54.7616 60.2281 54.2996 60.3308 53.7396ZM64.3732 55.4336C63.8599 54.5283 63.6032 53.2776 63.6032 51.6816C63.6032 50.0856 63.8599 48.835 64.3732 47.9296C64.8865 47.0243 65.8012 46.5716 67.1172 46.5716C68.4332 46.5716 69.3479 47.0243 69.8612 47.9296C70.3745 48.8256 70.6312 50.0763 70.6312 51.6816C70.6312 53.2776 70.3745 54.5283 69.8612 55.4336C69.3479 56.339 68.4332 56.7916 67.1172 56.7916C65.8012 56.7916 64.8865 56.339 64.3732 55.4336ZM69.2312 53.7396C69.3432 53.1703 69.3992 52.4843 69.3992 51.6816C69.3992 50.8696 69.3432 50.1836 69.2312 49.6236C69.1285 49.0543 68.9092 48.5923 68.5732 48.2376C68.2465 47.883 67.7612 47.7056 67.1172 47.7056C66.4732 47.7056 65.9832 47.883 65.6472 48.2376C65.3205 48.5923 65.1059 49.0543 65.0032 49.6236C64.9005 50.1836 64.8492 50.8696 64.8492 51.6816C64.8492 52.4936 64.9005 53.1796 65.0032 53.7396C65.1059 54.2996 65.3205 54.7616 65.6472 55.1256C65.9832 55.4803 66.4732 55.6576 67.1172 55.6576C67.7612 55.6576 68.2465 55.4803 68.5732 55.1256C68.9092 54.7616 69.1285 54.2996 69.2312 53.7396Z" fill="white"/>
<path d="M33.7678 98.4615H28.8818V101.667C29.0871 101.359 29.3998 101.103 29.8198 100.897C30.2398 100.692 30.6925 100.589 31.1778 100.589C31.9525 100.589 32.5825 100.757 33.0678 101.093C33.5625 101.42 33.9125 101.845 34.1178 102.367C34.3325 102.881 34.4398 103.427 34.4398 104.005C34.4398 105.06 34.1458 105.923 33.5578 106.595C32.9698 107.258 32.1111 107.589 30.9818 107.589C29.9925 107.589 29.1945 107.342 28.5878 106.847C27.9905 106.353 27.6171 105.699 27.4678 104.887H28.6858C28.8165 105.391 29.0825 105.788 29.4838 106.077C29.8945 106.367 30.3938 106.511 30.9818 106.511C31.7285 106.511 32.2885 106.287 32.6618 105.839C33.0445 105.391 33.2358 104.794 33.2358 104.047C33.2358 103.282 33.0445 102.699 32.6618 102.297C32.2885 101.887 31.7285 101.681 30.9818 101.681C30.4778 101.681 30.0438 101.812 29.6798 102.073C29.3158 102.335 29.0451 102.689 28.8678 103.137H27.7058V97.3555H33.7678V98.4615ZM36.4668 99.8055C36.4668 99.2921 36.5928 98.8301 36.8448 98.4195C37.0968 97.9995 37.4702 97.6681 37.9648 97.4255C38.4595 97.1828 39.0568 97.0615 39.7568 97.0615C40.4662 97.0615 41.0682 97.1828 41.5628 97.4255C42.0575 97.6681 42.4262 97.9995 42.6688 98.4195C42.9208 98.8395 43.0468 99.3061 43.0468 99.8195C43.0468 100.361 42.9068 100.837 42.6268 101.247C42.3468 101.649 41.9828 101.947 41.5348 102.143C42.0668 102.321 42.4962 102.643 42.8228 103.109C43.1495 103.567 43.3128 104.117 43.3128 104.761C43.3128 105.387 43.1635 105.937 42.8648 106.413C42.5662 106.88 42.1462 107.239 41.6048 107.491C41.0728 107.743 40.4568 107.869 39.7568 107.869C39.0568 107.869 38.4362 107.743 37.8948 107.491C37.3628 107.239 36.9475 106.88 36.6488 106.413C36.3502 105.937 36.2008 105.387 36.2008 104.761C36.2008 104.117 36.3642 103.567 36.6908 103.109C37.0175 102.643 37.4515 102.321 37.9928 102.143C37.5168 101.919 37.1435 101.611 36.8728 101.219C36.6022 100.827 36.4668 100.356 36.4668 99.8055ZM37.6708 99.9455C37.6708 100.449 37.8622 100.869 38.2448 101.205C38.6368 101.532 39.1408 101.695 39.7568 101.695C40.3728 101.695 40.8722 101.532 41.2548 101.205C41.6468 100.869 41.8428 100.449 41.8428 99.9455C41.8428 99.3668 41.6562 98.9235 41.2828 98.6155C40.9188 98.2981 40.4102 98.1395 39.7568 98.1395C39.1128 98.1395 38.6042 98.2981 38.2308 98.6155C37.8575 98.9235 37.6708 99.3668 37.6708 99.9455ZM37.4048 104.733C37.4048 105.359 37.6148 105.858 38.0348 106.231C38.4642 106.605 39.0382 106.791 39.7568 106.791C40.4755 106.791 41.0448 106.605 41.4648 106.231C41.8848 105.849 42.0948 105.349 42.0948 104.733C42.0948 104.061 41.8802 103.557 41.4508 103.221C41.0215 102.876 40.4568 102.703 39.7568 102.703C39.0662 102.703 38.5015 102.876 38.0628 103.221C37.6242 103.557 37.4048 104.061 37.4048 104.733ZM46.0536 106.651C46.1749 107.146 46.2356 107.599 46.2356 108.009C46.2356 109.064 45.7549 109.591 44.7936 109.591V108.975C45.0269 108.975 45.1949 108.919 45.2976 108.807C45.4096 108.695 45.4656 108.518 45.4656 108.275V107.953H44.7516V106.651H46.0536ZM48.4972 106.217C47.9839 105.312 47.7272 104.061 47.7272 102.465C47.7272 100.869 47.9839 99.6188 48.4972 98.7135C49.0106 97.8081 49.9252 97.3555 51.2412 97.3555C52.5572 97.3555 53.4719 97.8081 53.9852 98.7135C54.4986 99.6095 54.7552 100.86 54.7552 102.465C54.7552 104.061 54.4986 105.312 53.9852 106.217C53.4719 107.123 52.5572 107.575 51.2412 107.575C49.9252 107.575 49.0106 107.123 48.4972 106.217ZM53.3552 104.523C53.4672 103.954 53.5232 103.268 53.5232 102.465C53.5232 101.653 53.4672 100.967 53.3552 100.407C53.2526 99.8381 53.0332 99.3761 52.6972 99.0215C52.3706 98.6668 51.8852 98.4895 51.2412 98.4895C50.5972 98.4895 50.1072 98.6668 49.7712 99.0215C49.4446 99.3761 49.2299 99.8381 49.1272 100.407C49.0246 100.967 48.9732 101.653 48.9732 102.465C48.9732 103.277 49.0246 103.963 49.1272 104.523C49.2299 105.083 49.4446 105.545 49.7712 105.909C50.1072 106.264 50.5972 106.441 51.2412 106.441C51.8852 106.441 52.3706 106.264 52.6972 105.909C53.0332 105.545 53.2526 105.083 53.3552 104.523ZM57.3976 106.217C56.8843 105.312 56.6276 104.061 56.6276 102.465C56.6276 100.869 56.8843 99.6188 57.3976 98.7135C57.9109 97.8081 58.8256 97.3555 60.1416 97.3555C61.4576 97.3555 62.3723 97.8081 62.8856 98.7135C63.3989 99.6095 63.6556 100.86 63.6556 102.465C63.6556 104.061 63.3989 105.312 62.8856 106.217C62.3723 107.123 61.4576 107.575 60.1416 107.575C58.8256 107.575 57.9109 107.123 57.3976 106.217ZM62.2556 104.523C62.3676 103.954 62.4236 103.268 62.4236 102.465C62.4236 101.653 62.3676 100.967 62.2556 100.407C62.1529 99.8381 61.9336 99.3761 61.5976 99.0215C61.2709 98.6668 60.7856 98.4895 60.1416 98.4895C59.4976 98.4895 59.0076 98.6668 58.6716 99.0215C58.3449 99.3761 58.1303 99.8381 58.0276 100.407C57.9249 100.967 57.8736 101.653 57.8736 102.465C57.8736 103.277 57.9249 103.963 58.0276 104.523C58.1303 105.083 58.3449 105.545 58.6716 105.909C59.0076 106.264 59.4976 106.441 60.1416 106.441C60.7856 106.441 61.2709 106.264 61.5976 105.909C61.9336 105.545 62.1529 105.083 62.2556 104.523ZM66.298 106.217C65.7847 105.312 65.528 104.061 65.528 102.465C65.528 100.869 65.7847 99.6188 66.298 98.7135C66.8113 97.8081 67.726 97.3555 69.042 97.3555C70.358 97.3555 71.2727 97.8081 71.786 98.7135C72.2993 99.6095 72.556 100.86 72.556 102.465C72.556 104.061 72.2993 105.312 71.786 106.217C71.2727 107.123 70.358 107.575 69.042 107.575C67.726 107.575 66.8113 107.123 66.298 106.217ZM71.156 104.523C71.268 103.954 71.324 103.268 71.324 102.465C71.324 101.653 71.268 100.967 71.156 100.407C71.0533 99.8381 70.834 99.3761 70.498 99.0215C70.1713 98.6668 69.686 98.4895 69.042 98.4895C68.398 98.4895 67.908 98.6668 67.572 99.0215C67.2453 99.3761 67.0307 99.8381 66.928 100.407C66.8253 100.967 66.774 101.653 66.774 102.465C66.774 103.277 66.8253 103.963 66.928 104.523C67.0307 105.083 67.2453 105.545 67.572 105.909C67.908 106.264 68.398 106.441 69.042 106.441C69.686 106.441 70.1713 106.264 70.498 105.909C70.834 105.545 71.0533 105.083 71.156 104.523Z" fill="white"/>
<path d="M31.7063 150.341H26.8203V153.547C27.0256 153.239 27.3383 152.982 27.7583 152.777C28.1783 152.572 28.6309 152.469 29.1163 152.469C29.8909 152.469 30.5209 152.637 31.0063 152.973C31.5009 153.3 31.8509 153.724 32.0563 154.247C32.2709 154.76 32.3783 155.306 32.3783 155.885C32.3783 156.94 32.0843 157.803 31.4963 158.475C30.9083 159.138 30.0496 159.469 28.9203 159.469C27.9309 159.469 27.1329 159.222 26.5263 158.727C25.9289 158.232 25.5556 157.579 25.4063 156.767H26.6243C26.7549 157.271 27.0209 157.668 27.4223 157.957C27.8329 158.246 28.3323 158.391 28.9203 158.391C29.6669 158.391 30.2269 158.167 30.6003 157.719C30.9829 157.271 31.1743 156.674 31.1743 155.927C31.1743 155.162 30.9829 154.578 30.6003 154.177C30.2269 153.766 29.6669 153.561 28.9203 153.561C28.4163 153.561 27.9823 153.692 27.6183 153.953C27.2543 154.214 26.9836 154.569 26.8063 155.017H25.6443V149.235H31.7063V150.341ZM39.8513 151.517C39.73 151.032 39.52 150.672 39.2213 150.439C38.9227 150.206 38.498 150.089 37.9473 150.089C37.3873 150.089 36.9253 150.22 36.5613 150.481C36.2067 150.742 35.936 151.172 35.7493 151.769C35.5627 152.357 35.46 153.15 35.4413 154.149C35.6933 153.692 36.0667 153.337 36.5613 153.085C37.056 152.824 37.6067 152.693 38.2133 152.693C38.8293 152.693 39.3707 152.828 39.8373 153.099C40.3133 153.37 40.682 153.757 40.9433 154.261C41.214 154.765 41.3493 155.367 41.3493 156.067C41.3493 156.711 41.2233 157.29 40.9713 157.803C40.7287 158.316 40.36 158.722 39.8653 159.021C39.3707 159.32 38.764 159.469 38.0453 159.469C37.0653 159.469 36.3047 159.245 35.7633 158.797C35.2313 158.349 34.8673 157.738 34.6713 156.963C34.4753 156.188 34.3773 155.227 34.3773 154.079C34.3773 152.474 34.6667 151.228 35.2453 150.341C35.824 149.454 36.7247 149.011 37.9473 149.011C38.554 149.011 39.0767 149.128 39.5153 149.361C39.954 149.585 40.2947 149.888 40.5373 150.271C40.7893 150.644 40.9433 151.06 40.9993 151.517H39.8513ZM35.6233 156.011C35.6233 156.739 35.824 157.318 36.2253 157.747C36.6267 158.176 37.2147 158.391 37.9893 158.391C38.652 158.391 39.1747 158.19 39.5573 157.789C39.9493 157.378 40.1453 156.828 40.1453 156.137C40.1453 155.4 39.9587 154.826 39.5853 154.415C39.2213 153.995 38.6753 153.785 37.9473 153.785C37.546 153.785 37.168 153.869 36.8133 154.037C36.4587 154.196 36.1693 154.443 35.9453 154.779C35.7307 155.106 35.6233 155.516 35.6233 156.011ZM44.1151 158.531C44.2364 159.026 44.2971 159.478 44.2971 159.889C44.2971 160.944 43.8164 161.471 42.8551 161.471V160.855C43.0884 160.855 43.2564 160.799 43.3591 160.687C43.4711 160.575 43.5271 160.398 43.5271 160.155V159.833H42.8131V158.531H44.1151ZM46.5587 158.097C46.0454 157.192 45.7887 155.941 45.7887 154.345C45.7887 152.749 46.0454 151.498 46.5587 150.593C47.0721 149.688 47.9867 149.235 49.3027 149.235C50.6187 149.235 51.5334 149.688 52.0467 150.593C52.5601 151.489 52.8167 152.74 52.8167 154.345C52.8167 155.941 52.5601 157.192 52.0467 158.097C51.5334 159.002 50.6187 159.455 49.3027 159.455C47.9867 159.455 47.0721 159.002 46.5587 158.097ZM51.4167 156.403C51.5287 155.834 51.5847 155.148 51.5847 154.345C51.5847 153.533 51.5287 152.847 51.4167 152.287C51.3141 151.718 51.0947 151.256 50.7587 150.901C50.4321 150.546 49.9467 150.369 49.3027 150.369C48.6587 150.369 48.1687 150.546 47.8327 150.901C47.5061 151.256 47.2914 151.718 47.1887 152.287C47.0861 152.847 47.0347 153.533 47.0347 154.345C47.0347 155.157 47.0861 155.843 47.1887 156.403C47.2914 156.963 47.5061 157.425 47.8327 157.789C48.1687 158.144 48.6587 158.321 49.3027 158.321C49.9467 158.321 50.4321 158.144 50.7587 157.789C51.0947 157.425 51.3141 156.963 51.4167 156.403ZM55.4591 158.097C54.9458 157.192 54.6891 155.941 54.6891 154.345C54.6891 152.749 54.9458 151.498 55.4591 150.593C55.9725 149.688 56.8871 149.235 58.2031 149.235C59.5191 149.235 60.4338 149.688 60.9471 150.593C61.4605 151.489 61.7171 152.74 61.7171 154.345C61.7171 155.941 61.4605 157.192 60.9471 158.097C60.4338 159.002 59.5191 159.455 58.2031 159.455C56.8871 159.455 55.9725 159.002 55.4591 158.097ZM60.3171 156.403C60.4291 155.834 60.4851 155.148 60.4851 154.345C60.4851 153.533 60.4291 152.847 60.3171 152.287C60.2145 151.718 59.9951 151.256 59.6591 150.901C59.3325 150.546 58.8471 150.369 58.2031 150.369C57.5591 150.369 57.0691 150.546 56.7331 150.901C56.4065 151.256 56.1918 151.718 56.0891 152.287C55.9865 152.847 55.9351 153.533 55.9351 154.345C55.9351 155.157 55.9865 155.843 56.0891 156.403C56.1918 156.963 56.4065 157.425 56.7331 157.789C57.0691 158.144 57.5591 158.321 58.2031 158.321C58.8471 158.321 59.3325 158.144 59.6591 157.789C59.9951 157.425 60.2145 156.963 60.3171 156.403ZM64.3595 158.097C63.8462 157.192 63.5895 155.941 63.5895 154.345C63.5895 152.749 63.8462 151.498 64.3595 150.593C64.8729 149.688 65.7875 149.235 67.1035 149.235C68.4195 149.235 69.3342 149.688 69.8475 150.593C70.3609 151.489 70.6175 152.74 70.6175 154.345C70.6175 155.941 70.3609 157.192 69.8475 158.097C69.3342 159.002 68.4195 159.455 67.1035 159.455C65.7875 159.455 64.8729 159.002 64.3595 158.097ZM69.2175 156.403C69.3295 155.834 69.3855 155.148 69.3855 154.345C69.3855 153.533 69.3295 152.847 69.2175 152.287C69.1149 151.718 68.8955 151.256 68.5595 150.901C68.2329 150.546 67.7475 150.369 67.1035 150.369C66.4595 150.369 65.9695 150.546 65.6335 150.901C65.3069 151.256 65.0922 151.718 64.9895 152.287C64.8869 152.847 64.8355 153.533 64.8355 154.345C64.8355 155.157 64.8869 155.843 64.9895 156.403C65.0922 156.963 65.3069 157.425 65.6335 157.789C65.9695 158.144 66.4595 158.321 67.1035 158.321C67.7475 158.321 68.2329 158.144 68.5595 157.789C68.8955 157.425 69.1149 156.963 69.2175 156.403Z" fill="white"/>
<path d="M32.0127 206.051H27.1267V209.257C27.332 208.949 27.6447 208.693 28.0647 208.487C28.4847 208.282 28.9373 208.179 29.4227 208.179C30.1973 208.179 30.8273 208.347 31.3127 208.683C31.8073 209.01 32.1573 209.435 32.3627 209.957C32.5773 210.471 32.6847 211.017 32.6847 211.595C32.6847 212.65 32.3907 213.513 31.8027 214.185C31.2147 214.848 30.356 215.179 29.2267 215.179C28.2373 215.179 27.4393 214.932 26.8327 214.437C26.2353 213.943 25.862 213.289 25.7127 212.477H26.9307C27.0613 212.981 27.3273 213.378 27.7287 213.667C28.1393 213.957 28.6387 214.101 29.2267 214.101C29.9733 214.101 30.5333 213.877 30.9067 213.429C31.2893 212.981 31.4807 212.384 31.4807 211.637C31.4807 210.872 31.2893 210.289 30.9067 209.887C30.5333 209.477 29.9733 209.271 29.2267 209.271C28.7227 209.271 28.2887 209.402 27.9247 209.663C27.5607 209.925 27.29 210.279 27.1127 210.727H25.9507V204.945H32.0127V206.051ZM34.1937 212.911V212.015L39.0097 205.099H40.6337V211.819H41.9917V212.911H40.6337V215.179H39.4017V212.911H34.1937ZM39.4437 206.275L35.6777 211.819H39.4437V206.275ZM44.2848 214.241C44.4061 214.736 44.4668 215.189 44.4668 215.599C44.4668 216.654 43.9861 217.181 43.0248 217.181V216.565C43.2581 216.565 43.4261 216.509 43.5288 216.397C43.6408 216.285 43.6968 216.108 43.6968 215.865V215.543H42.9828V214.241H44.2848ZM46.7284 213.807C46.2151 212.902 45.9584 211.651 45.9584 210.055C45.9584 208.459 46.2151 207.209 46.7284 206.303C47.2418 205.398 48.1564 204.945 49.4724 204.945C50.7884 204.945 51.7031 205.398 52.2164 206.303C52.7298 207.199 52.9864 208.45 52.9864 210.055C52.9864 211.651 52.7298 212.902 52.2164 213.807C51.7031 214.713 50.7884 215.165 49.4724 215.165C48.1564 215.165 47.2418 214.713 46.7284 213.807ZM51.5864 212.113C51.6984 211.544 51.7544 210.858 51.7544 210.055C51.7544 209.243 51.6984 208.557 51.5864 207.997C51.4838 207.428 51.2644 206.966 50.9284 206.611C50.6018 206.257 50.1164 206.079 49.4724 206.079C48.8284 206.079 48.3384 206.257 48.0024 206.611C47.6758 206.966 47.4611 207.428 47.3584 207.997C47.2558 208.557 47.2044 209.243 47.2044 210.055C47.2044 210.867 47.2558 211.553 47.3584 212.113C47.4611 212.673 47.6758 213.135 48.0024 213.499C48.3384 213.854 48.8284 214.031 49.4724 214.031C50.1164 214.031 50.6018 213.854 50.9284 213.499C51.2644 213.135 51.4838 212.673 51.5864 212.113ZM55.6288 213.807C55.1155 212.902 54.8588 211.651 54.8588 210.055C54.8588 208.459 55.1155 207.209 55.6288 206.303C56.1421 205.398 57.0568 204.945 58.3728 204.945C59.6888 204.945 60.6035 205.398 61.1168 206.303C61.6301 207.199 61.8868 208.45 61.8868 210.055C61.8868 211.651 61.6301 212.902 61.1168 213.807C60.6035 214.713 59.6888 215.165 58.3728 215.165C57.0568 215.165 56.1421 214.713 55.6288 213.807ZM60.4868 212.113C60.5988 211.544 60.6548 210.858 60.6548 210.055C60.6548 209.243 60.5988 208.557 60.4868 207.997C60.3841 207.428 60.1648 206.966 59.8288 206.611C59.5021 206.257 59.0168 206.079 58.3728 206.079C57.7288 206.079 57.2388 206.257 56.9028 206.611C56.5761 206.966 56.3615 207.428 56.2588 207.997C56.1561 208.557 56.1048 209.243 56.1048 210.055C56.1048 210.867 56.1561 211.553 56.2588 212.113C56.3615 212.673 56.5761 213.135 56.9028 213.499C57.2388 213.854 57.7288 214.031 58.3728 214.031C59.0168 214.031 59.5021 213.854 59.8288 213.499C60.1648 213.135 60.3841 212.673 60.4868 212.113ZM64.5292 213.807C64.0159 212.902 63.7592 211.651 63.7592 210.055C63.7592 208.459 64.0159 207.209 64.5292 206.303C65.0425 205.398 65.9572 204.945 67.2732 204.945C68.5892 204.945 69.5039 205.398 70.0172 206.303C70.5305 207.199 70.7872 208.45 70.7872 210.055C70.7872 211.651 70.5305 212.902 70.0172 213.807C69.5039 214.713 68.5892 215.165 67.2732 215.165C65.9572 215.165 65.0425 214.713 64.5292 213.807ZM69.3872 212.113C69.4992 211.544 69.5552 210.858 69.5552 210.055C69.5552 209.243 69.4992 208.557 69.3872 207.997C69.2845 207.428 69.0652 206.966 68.7292 206.611C68.4025 206.257 67.9172 206.079 67.2732 206.079C66.6292 206.079 66.1392 206.257 65.8032 206.611C65.4765 206.966 65.2619 207.428 65.1592 207.997C65.0565 208.557 65.0052 209.243 65.0052 210.055C65.0052 210.867 65.0565 211.553 65.1592 212.113C65.2619 212.673 65.4765 213.135 65.8032 213.499C66.1392 213.854 66.6292 214.031 67.2732 214.031C67.9172 214.031 68.4025 213.854 68.7292 213.499C69.0652 213.135 69.2845 212.673 69.3872 212.113Z" fill="white"/>
<path d="M32.8955 261.192H28.0095V264.398C28.2148 264.09 28.5275 263.833 28.9475 263.628C29.3675 263.422 29.8202 263.32 30.3055 263.32C31.0802 263.32 31.7102 263.488 32.1955 263.824C32.6902 264.15 33.0402 264.575 33.2455 265.098C33.4602 265.611 33.5675 266.157 33.5675 266.736C33.5675 267.79 33.2735 268.654 32.6855 269.326C32.0975 269.988 31.2388 270.32 30.1095 270.32C29.1202 270.32 28.3222 270.072 27.7155 269.578C27.1182 269.083 26.7448 268.43 26.5955 267.618H27.8135C27.9442 268.122 28.2102 268.518 28.6115 268.808C29.0222 269.097 29.5215 269.242 30.1095 269.242C30.8562 269.242 31.4162 269.018 31.7895 268.57C32.1722 268.122 32.3635 267.524 32.3635 266.778C32.3635 266.012 32.1722 265.429 31.7895 265.028C31.4162 264.617 30.8562 264.412 30.1095 264.412C29.6055 264.412 29.1715 264.542 28.8075 264.804C28.4435 265.065 28.1728 265.42 27.9955 265.868H26.8335V260.086H32.8955V261.192ZM35.2305 269.27C35.6785 268.878 36.0145 268.588 36.2385 268.402C37.1812 267.59 37.9232 266.922 38.4645 266.4C39.0152 265.877 39.4725 265.331 39.8365 264.762C40.2005 264.183 40.3825 263.618 40.3825 263.068C40.3825 262.48 40.2285 262.008 39.9205 261.654C39.6219 261.299 39.1412 261.122 38.4785 261.122C37.8439 261.122 37.3539 261.322 37.0085 261.724C36.6632 262.116 36.4765 262.638 36.4485 263.292H35.2305C35.2679 262.246 35.5805 261.444 36.1685 260.884C36.7659 260.314 37.5312 260.03 38.4645 260.03C39.4259 260.03 40.1912 260.3 40.7605 260.842C41.3392 261.374 41.6285 262.102 41.6285 263.026C41.6285 263.698 41.4419 264.356 41.0685 265C40.7045 265.634 40.2659 266.213 39.7525 266.736C39.2485 267.249 38.6185 267.837 37.8625 268.5C37.3585 268.938 37.1299 269.139 37.1765 269.102H41.9365V270.18H35.2305V269.27ZM44.402 269.382C44.5233 269.876 44.584 270.329 44.584 270.74C44.584 271.794 44.1033 272.322 43.142 272.322V271.706C43.3753 271.706 43.5433 271.65 43.646 271.538C43.758 271.426 43.814 271.248 43.814 271.006V270.684H43.1V269.382H44.402ZM46.8456 268.948C46.3323 268.042 46.0756 266.792 46.0756 265.196C46.0756 263.6 46.3323 262.349 46.8456 261.444C47.3589 260.538 48.2736 260.086 49.5896 260.086C50.9056 260.086 51.8203 260.538 52.3336 261.444C52.8469 262.34 53.1036 263.59 53.1036 265.196C53.1036 266.792 52.8469 268.042 52.3336 268.948C51.8203 269.853 50.9056 270.306 49.5896 270.306C48.2736 270.306 47.3589 269.853 46.8456 268.948ZM51.7036 267.254C51.8156 266.684 51.8716 265.998 51.8716 265.196C51.8716 264.384 51.8156 263.698 51.7036 263.138C51.6009 262.568 51.3816 262.106 51.0456 261.752C50.7189 261.397 50.2336 261.22 49.5896 261.22C48.9456 261.22 48.4556 261.397 48.1196 261.752C47.7929 262.106 47.5783 262.568 47.4756 263.138C47.3729 263.698 47.3216 264.384 47.3216 265.196C47.3216 266.008 47.3729 266.694 47.4756 267.254C47.5783 267.814 47.7929 268.276 48.1196 268.64C48.4556 268.994 48.9456 269.172 49.5896 269.172C50.2336 269.172 50.7189 268.994 51.0456 268.64C51.3816 268.276 51.6009 267.814 51.7036 267.254ZM55.746 268.948C55.2327 268.042 54.976 266.792 54.976 265.196C54.976 263.6 55.2327 262.349 55.746 261.444C56.2593 260.538 57.174 260.086 58.49 260.086C59.806 260.086 60.7207 260.538 61.234 261.444C61.7473 262.34 62.004 263.59 62.004 265.196C62.004 266.792 61.7473 268.042 61.234 268.948C60.7207 269.853 59.806 270.306 58.49 270.306C57.174 270.306 56.2593 269.853 55.746 268.948ZM60.604 267.254C60.716 266.684 60.772 265.998 60.772 265.196C60.772 264.384 60.716 263.698 60.604 263.138C60.5013 262.568 60.282 262.106 59.946 261.752C59.6193 261.397 59.134 261.22 58.49 261.22C57.846 261.22 57.356 261.397 57.02 261.752C56.6933 262.106 56.4787 262.568 56.376 263.138C56.2733 263.698 56.222 264.384 56.222 265.196C56.222 266.008 56.2733 266.694 56.376 267.254C56.4787 267.814 56.6933 268.276 57.02 268.64C57.356 268.994 57.846 269.172 58.49 269.172C59.134 269.172 59.6193 268.994 59.946 268.64C60.282 268.276 60.5013 267.814 60.604 267.254ZM64.6464 268.948C64.1331 268.042 63.8764 266.792 63.8764 265.196C63.8764 263.6 64.1331 262.349 64.6464 261.444C65.1597 260.538 66.0744 260.086 67.3904 260.086C68.7064 260.086 69.6211 260.538 70.1344 261.444C70.6477 262.34 70.9044 263.59 70.9044 265.196C70.9044 266.792 70.6477 268.042 70.1344 268.948C69.6211 269.853 68.7064 270.306 67.3904 270.306C66.0744 270.306 65.1597 269.853 64.6464 268.948ZM69.5044 267.254C69.6164 266.684 69.6724 265.998 69.6724 265.196C69.6724 264.384 69.6164 263.698 69.5044 263.138C69.4017 262.568 69.1824 262.106 68.8464 261.752C68.5197 261.397 68.0344 261.22 67.3904 261.22C66.7464 261.22 66.2564 261.397 65.9204 261.752C65.5937 262.106 65.3791 262.568 65.2764 263.138C65.1737 263.698 65.1224 264.384 65.1224 265.196C65.1224 266.008 65.1737 266.694 65.2764 267.254C65.3791 267.814 65.5937 268.276 65.9204 268.64C66.2564 268.994 66.7464 269.172 67.3904 269.172C68.0344 269.172 68.5197 268.994 68.8464 268.64C69.1824 268.276 69.4017 267.814 69.5044 267.254Z" fill="white"/>
<path d="M33.3803 312.835H28.4943V316.041C28.6997 315.733 29.0123 315.476 29.4323 315.271C29.8523 315.065 30.305 314.963 30.7903 314.963C31.565 314.963 32.195 315.131 32.6803 315.467C33.175 315.793 33.525 316.218 33.7303 316.741C33.945 317.254 34.0523 317.8 34.0523 318.379C34.0523 319.433 33.7583 320.297 33.1703 320.969C32.5823 321.631 31.7237 321.963 30.5943 321.963C29.605 321.963 28.807 321.715 28.2003 321.221C27.603 320.726 27.2297 320.073 27.0803 319.261H28.2983C28.429 319.765 28.695 320.161 29.0963 320.451C29.507 320.74 30.0063 320.885 30.5943 320.885C31.341 320.885 31.901 320.661 32.2743 320.213C32.657 319.765 32.8483 319.167 32.8483 318.421C32.8483 317.655 32.657 317.072 32.2743 316.671C31.901 316.26 31.341 316.055 30.5943 316.055C30.0903 316.055 29.6563 316.185 29.2923 316.447C28.9283 316.708 28.6577 317.063 28.4803 317.511H27.3183V311.729H33.3803V312.835ZM36.6254 320.591C36.1121 319.685 35.8554 318.435 35.8554 316.839C35.8554 315.243 36.1121 313.992 36.6254 313.087C37.1387 312.181 38.0534 311.729 39.3694 311.729C40.6854 311.729 41.6001 312.181 42.1134 313.087C42.6267 313.983 42.8834 315.233 42.8834 316.839C42.8834 318.435 42.6267 319.685 42.1134 320.591C41.6001 321.496 40.6854 321.949 39.3694 321.949C38.0534 321.949 37.1387 321.496 36.6254 320.591ZM41.4834 318.897C41.5954 318.327 41.6514 317.641 41.6514 316.839C41.6514 316.027 41.5954 315.341 41.4834 314.781C41.3807 314.211 41.1614 313.749 40.8254 313.395C40.4987 313.04 40.0134 312.863 39.3694 312.863C38.7254 312.863 38.2354 313.04 37.8994 313.395C37.5727 313.749 37.3581 314.211 37.2554 314.781C37.1527 315.341 37.1014 316.027 37.1014 316.839C37.1014 317.651 37.1527 318.337 37.2554 318.897C37.3581 319.457 37.5727 319.919 37.8994 320.283C38.2354 320.637 38.7254 320.815 39.3694 320.815C40.0134 320.815 40.4987 320.637 40.8254 320.283C41.1614 319.919 41.3807 319.457 41.4834 318.897ZM45.6798 321.025C45.8011 321.519 45.8618 321.972 45.8618 322.383C45.8618 323.437 45.3811 323.965 44.4198 323.965V323.349C44.6531 323.349 44.8211 323.293 44.9238 323.181C45.0358 323.069 45.0918 322.891 45.0918 322.649V322.327H44.3778V321.025H45.6798ZM48.1234 320.591C47.6101 319.685 47.3534 318.435 47.3534 316.839C47.3534 315.243 47.6101 313.992 48.1234 313.087C48.6368 312.181 49.5514 311.729 50.8674 311.729C52.1834 311.729 53.0981 312.181 53.6114 313.087C54.1248 313.983 54.3814 315.233 54.3814 316.839C54.3814 318.435 54.1248 319.685 53.6114 320.591C53.0981 321.496 52.1834 321.949 50.8674 321.949C49.5514 321.949 48.6368 321.496 48.1234 320.591ZM52.9814 318.897C53.0934 318.327 53.1494 317.641 53.1494 316.839C53.1494 316.027 53.0934 315.341 52.9814 314.781C52.8788 314.211 52.6594 313.749 52.3234 313.395C51.9968 313.04 51.5114 312.863 50.8674 312.863C50.2234 312.863 49.7334 313.04 49.3974 313.395C49.0708 313.749 48.8561 314.211 48.7534 314.781C48.6508 315.341 48.5994 316.027 48.5994 316.839C48.5994 317.651 48.6508 318.337 48.7534 318.897C48.8561 319.457 49.0708 319.919 49.3974 320.283C49.7334 320.637 50.2234 320.815 50.8674 320.815C51.5114 320.815 51.9968 320.637 52.3234 320.283C52.6594 319.919 52.8788 319.457 52.9814 318.897ZM57.0238 320.591C56.5105 319.685 56.2538 318.435 56.2538 316.839C56.2538 315.243 56.5105 313.992 57.0238 313.087C57.5372 312.181 58.4518 311.729 59.7678 311.729C61.0838 311.729 61.9985 312.181 62.5118 313.087C63.0252 313.983 63.2818 315.233 63.2818 316.839C63.2818 318.435 63.0252 319.685 62.5118 320.591C61.9985 321.496 61.0838 321.949 59.7678 321.949C58.4518 321.949 57.5372 321.496 57.0238 320.591ZM61.8818 318.897C61.9938 318.327 62.0498 317.641 62.0498 316.839C62.0498 316.027 61.9938 315.341 61.8818 314.781C61.7792 314.211 61.5598 313.749 61.2238 313.395C60.8972 313.04 60.4118 312.863 59.7678 312.863C59.1238 312.863 58.6338 313.04 58.2978 313.395C57.9712 313.749 57.7565 314.211 57.6538 314.781C57.5512 315.341 57.4998 316.027 57.4998 316.839C57.4998 317.651 57.5512 318.337 57.6538 318.897C57.7565 319.457 57.9712 319.919 58.2978 320.283C58.6338 320.637 59.1238 320.815 59.7678 320.815C60.4118 320.815 60.8972 320.637 61.2238 320.283C61.5598 319.919 61.7792 319.457 61.8818 318.897ZM65.9242 320.591C65.4109 319.685 65.1542 318.435 65.1542 316.839C65.1542 315.243 65.4109 313.992 65.9242 313.087C66.4376 312.181 67.3522 311.729 68.6682 311.729C69.9842 311.729 70.8989 312.181 71.4122 313.087C71.9256 313.983 72.1822 315.233 72.1822 316.839C72.1822 318.435 71.9256 319.685 71.4122 320.591C70.8989 321.496 69.9842 321.949 68.6682 321.949C67.3522 321.949 66.4376 321.496 65.9242 320.591ZM70.7822 318.897C70.8942 318.327 70.9502 317.641 70.9502 316.839C70.9502 316.027 70.8942 315.341 70.7822 314.781C70.6796 314.211 70.4602 313.749 70.1242 313.395C69.7976 313.04 69.3122 312.863 68.6682 312.863C68.0242 312.863 67.5342 313.04 67.1982 313.395C66.8716 313.749 66.6569 314.211 66.5542 314.781C66.4516 315.341 66.4002 316.027 66.4002 316.839C66.4002 317.651 66.4516 318.337 66.5542 318.897C66.6569 319.457 66.8716 319.919 67.1982 320.283C67.5342 320.637 68.0242 320.815 68.6682 320.815C69.3122 320.815 69.7976 320.637 70.1242 320.283C70.4602 319.919 70.6796 319.457 70.7822 318.897Z" fill="white"/>
<path d="M25.3138 372.06V371.164L30.1298 364.248H31.7538V370.968H33.1118V372.06H31.7538V374.328H30.5218V372.06H25.3138ZM30.5638 365.424L26.7978 370.968H30.5638V365.424ZM34.7049 366.544C34.7049 366.03 34.8309 365.568 35.0829 365.158C35.3349 364.738 35.7082 364.406 36.2029 364.164C36.6975 363.921 37.2949 363.8 37.9949 363.8C38.7042 363.8 39.3062 363.921 39.8009 364.164C40.2955 364.406 40.6642 364.738 40.9069 365.158C41.1589 365.578 41.2849 366.044 41.2849 366.558C41.2849 367.099 41.1449 367.575 40.8649 367.986C40.5849 368.387 40.2209 368.686 39.7729 368.882C40.3049 369.059 40.7342 369.381 41.0609 369.848C41.3875 370.305 41.5509 370.856 41.5509 371.5C41.5509 372.125 41.4016 372.676 41.1029 373.152C40.8042 373.618 40.3842 373.978 39.8429 374.23C39.3109 374.482 38.6949 374.608 37.9949 374.608C37.2949 374.608 36.6742 374.482 36.1329 374.23C35.6009 373.978 35.1855 373.618 34.8869 373.152C34.5882 372.676 34.4389 372.125 34.4389 371.5C34.4389 370.856 34.6022 370.305 34.9289 369.848C35.2555 369.381 35.6895 369.059 36.2309 368.882C35.7549 368.658 35.3815 368.35 35.1109 367.958C34.8402 367.566 34.7049 367.094 34.7049 366.544ZM35.9089 366.684C35.9089 367.188 36.1002 367.608 36.4829 367.944C36.8749 368.27 37.3789 368.434 37.9949 368.434C38.6109 368.434 39.1102 368.27 39.4929 367.944C39.8849 367.608 40.0809 367.188 40.0809 366.684C40.0809 366.105 39.8942 365.662 39.5209 365.354C39.1569 365.036 38.6482 364.878 37.9949 364.878C37.3509 364.878 36.8422 365.036 36.4689 365.354C36.0955 365.662 35.9089 366.105 35.9089 366.684ZM35.6429 371.472C35.6429 372.097 35.8529 372.596 36.2729 372.97C36.7022 373.343 37.2762 373.53 37.9949 373.53C38.7135 373.53 39.2829 373.343 39.7029 372.97C40.1229 372.587 40.3329 372.088 40.3329 371.472C40.3329 370.8 40.1182 370.296 39.6889 369.96C39.2595 369.614 38.6949 369.442 37.9949 369.442C37.3042 369.442 36.7395 369.614 36.3009 369.96C35.8622 370.296 35.6429 370.8 35.6429 371.472ZM44.2916 373.39C44.4129 373.884 44.4736 374.337 44.4736 374.748C44.4736 375.802 43.9929 376.33 43.0316 376.33V375.714C43.2649 375.714 43.4329 375.658 43.5356 375.546C43.6476 375.434 43.7036 375.256 43.7036 375.014V374.692H42.9896V373.39H44.2916ZM46.7353 372.956C46.2219 372.05 45.9653 370.8 45.9653 369.204C45.9653 367.608 46.2219 366.357 46.7353 365.452C47.2486 364.546 48.1633 364.094 49.4793 364.094C50.7953 364.094 51.7099 364.546 52.2233 365.452C52.7366 366.348 52.9933 367.598 52.9933 369.204C52.9933 370.8 52.7366 372.05 52.2233 372.956C51.7099 373.861 50.7953 374.314 49.4793 374.314C48.1633 374.314 47.2486 373.861 46.7353 372.956ZM51.5933 371.262C51.7053 370.692 51.7613 370.006 51.7613 369.204C51.7613 368.392 51.7053 367.706 51.5933 367.146C51.4906 366.576 51.2713 366.114 50.9353 365.76C50.6086 365.405 50.1233 365.228 49.4793 365.228C48.8353 365.228 48.3453 365.405 48.0093 365.76C47.6826 366.114 47.4679 366.576 47.3653 367.146C47.2626 367.706 47.2113 368.392 47.2113 369.204C47.2113 370.016 47.2626 370.702 47.3653 371.262C47.4679 371.822 47.6826 372.284 48.0093 372.648C48.3453 373.002 48.8353 373.18 49.4793 373.18C50.1233 373.18 50.6086 373.002 50.9353 372.648C51.2713 372.284 51.4906 371.822 51.5933 371.262ZM55.6356 372.956C55.1223 372.05 54.8656 370.8 54.8656 369.204C54.8656 367.608 55.1223 366.357 55.6356 365.452C56.149 364.546 57.0636 364.094 58.3796 364.094C59.6956 364.094 60.6103 364.546 61.1236 365.452C61.637 366.348 61.8936 367.598 61.8936 369.204C61.8936 370.8 61.637 372.05 61.1236 372.956C60.6103 373.861 59.6956 374.314 58.3796 374.314C57.0636 374.314 56.149 373.861 55.6356 372.956ZM60.4936 371.262C60.6056 370.692 60.6616 370.006 60.6616 369.204C60.6616 368.392 60.6056 367.706 60.4936 367.146C60.391 366.576 60.1716 366.114 59.8356 365.76C59.509 365.405 59.0236 365.228 58.3796 365.228C57.7356 365.228 57.2456 365.405 56.9096 365.76C56.583 366.114 56.3683 366.576 56.2656 367.146C56.163 367.706 56.1116 368.392 56.1116 369.204C56.1116 370.016 56.163 370.702 56.2656 371.262C56.3683 371.822 56.583 372.284 56.9096 372.648C57.2456 373.002 57.7356 373.18 58.3796 373.18C59.0236 373.18 59.509 373.002 59.8356 372.648C60.1716 372.284 60.391 371.822 60.4936 371.262ZM64.536 372.956C64.0227 372.05 63.766 370.8 63.766 369.204C63.766 367.608 64.0227 366.357 64.536 365.452C65.0494 364.546 65.964 364.094 67.28 364.094C68.596 364.094 69.5107 364.546 70.024 365.452C70.5374 366.348 70.794 367.598 70.794 369.204C70.794 370.8 70.5374 372.05 70.024 372.956C69.5107 373.861 68.596 374.314 67.28 374.314C65.964 374.314 65.0494 373.861 64.536 372.956ZM69.394 371.262C69.506 370.692 69.562 370.006 69.562 369.204C69.562 368.392 69.506 367.706 69.394 367.146C69.2914 366.576 69.072 366.114 68.736 365.76C68.4094 365.405 67.924 365.228 67.28 365.228C66.636 365.228 66.146 365.405 65.81 365.76C65.4834 366.114 65.2687 366.576 65.166 367.146C65.0634 367.706 65.012 368.392 65.012 369.204C65.012 370.016 65.0634 370.702 65.166 371.262C65.2687 371.822 65.4834 372.284 65.81 372.648C66.146 373.002 66.636 373.18 67.28 373.18C67.924 373.18 68.4094 373.002 68.736 372.648C69.072 372.284 69.2914 371.822 69.394 371.262Z" fill="white"/>
<path d="M154.648 381.364V380.311H156.871V389.541H155.714V381.364H154.648ZM159.215 382.313C159.215 381.836 159.332 381.407 159.566 381.026C159.8 380.636 160.146 380.328 160.606 380.103C161.065 379.878 161.62 379.765 162.27 379.765C162.928 379.765 163.487 379.878 163.947 380.103C164.406 380.328 164.748 380.636 164.974 381.026C165.208 381.416 165.325 381.849 165.325 382.326C165.325 382.829 165.195 383.271 164.935 383.652C164.675 384.025 164.337 384.302 163.921 384.484C164.415 384.649 164.813 384.948 165.117 385.381C165.42 385.806 165.572 386.317 165.572 386.915C165.572 387.496 165.433 388.007 165.156 388.449C164.878 388.882 164.488 389.216 163.986 389.45C163.492 389.684 162.92 389.801 162.27 389.801C161.62 389.801 161.043 389.684 160.541 389.45C160.047 389.216 159.661 388.882 159.384 388.449C159.106 388.007 158.968 387.496 158.968 386.915C158.968 386.317 159.119 385.806 159.423 385.381C159.726 384.948 160.129 384.649 160.632 384.484C160.19 384.276 159.843 383.99 159.592 383.626C159.34 383.262 159.215 382.824 159.215 382.313ZM160.333 382.443C160.333 382.911 160.51 383.301 160.866 383.613C161.23 383.916 161.698 384.068 162.27 384.068C162.842 384.068 163.305 383.916 163.661 383.613C164.025 383.301 164.207 382.911 164.207 382.443C164.207 381.906 164.033 381.494 163.687 381.208C163.349 380.913 162.876 380.766 162.27 380.766C161.672 380.766 161.199 380.913 160.853 381.208C160.506 381.494 160.333 381.906 160.333 382.443ZM160.086 386.889C160.086 387.47 160.281 387.933 160.671 388.28C161.069 388.627 161.602 388.8 162.27 388.8C162.937 388.8 163.466 388.627 163.856 388.28C164.246 387.925 164.441 387.461 164.441 386.889C164.441 386.265 164.241 385.797 163.843 385.485C163.444 385.164 162.92 385.004 162.27 385.004C161.628 385.004 161.104 385.164 160.697 385.485C160.289 385.797 160.086 386.265 160.086 386.889Z" fill="white"/>
<path d="M218.476 388.566C218.892 388.202 219.204 387.933 219.412 387.76C220.288 387.006 220.977 386.386 221.479 385.901C221.991 385.416 222.415 384.909 222.753 384.38C223.091 383.843 223.26 383.318 223.26 382.807C223.26 382.261 223.117 381.823 222.831 381.494C222.554 381.165 222.108 381 221.492 381C220.903 381 220.448 381.186 220.127 381.559C219.807 381.923 219.633 382.408 219.607 383.015H218.476C218.511 382.044 218.801 381.299 219.347 380.779C219.902 380.25 220.613 379.986 221.479 379.986C222.372 379.986 223.083 380.237 223.611 380.74C224.149 381.234 224.417 381.91 224.417 382.768C224.417 383.392 224.244 384.003 223.897 384.601C223.559 385.19 223.152 385.728 222.675 386.213C222.207 386.69 221.622 387.236 220.92 387.851C220.452 388.258 220.24 388.445 220.283 388.41H224.703V389.411H218.476V388.566ZM225.953 381.364V380.311H228.176V389.541H227.019V381.364H225.953Z" fill="white"/>
<path d="M277.86 388.566C278.276 388.202 278.588 387.933 278.796 387.76C279.671 387.006 280.36 386.386 280.863 385.901C281.374 385.416 281.799 384.909 282.137 384.38C282.475 383.843 282.644 383.318 282.644 382.807C282.644 382.261 282.501 381.823 282.215 381.494C281.938 381.165 281.491 381 280.876 381C280.287 381 279.832 381.186 279.511 381.559C279.19 381.923 279.017 382.408 278.991 383.015H277.86C277.895 382.044 278.185 381.299 278.731 380.779C279.286 380.25 279.996 379.986 280.863 379.986C281.756 379.986 282.466 380.237 282.995 380.74C283.532 381.234 283.801 381.91 283.801 382.768C283.801 383.392 283.628 384.003 283.281 384.601C282.943 385.19 282.536 385.728 282.059 386.213C281.591 386.69 281.006 387.236 280.304 387.851C279.836 388.258 279.624 388.445 279.667 388.41H284.087V389.411H277.86V388.566ZM285.245 387.435V386.603L289.717 380.181H291.225V386.421H292.486V387.435H291.225V389.541H290.081V387.435H285.245ZM290.12 381.273L286.623 386.421H290.12V381.273Z" fill="white"/>
<path d="M345.757 388.566C346.173 388.202 346.485 387.933 346.693 387.76C347.569 387.006 348.258 386.386 348.76 385.901C349.272 385.416 349.696 384.909 350.034 384.38C350.372 383.843 350.541 383.318 350.541 382.807C350.541 382.261 350.398 381.823 350.112 381.494C349.835 381.165 349.389 381 348.773 381C348.184 381 347.729 381.186 347.408 381.559C347.088 381.923 346.914 382.408 346.888 383.015H345.757C345.792 382.044 346.082 381.299 346.628 380.779C347.183 380.25 347.894 379.986 348.76 379.986C349.653 379.986 350.364 380.237 350.892 380.74C351.43 381.234 351.698 381.91 351.698 382.768C351.698 383.392 351.525 384.003 351.178 384.601C350.84 385.19 350.433 385.728 349.956 386.213C349.488 386.69 348.903 387.236 348.201 387.851C347.733 388.258 347.521 388.445 347.564 388.41H351.984V389.411H345.757V388.566ZM359.343 380.961L355.625 389.541H354.325L358.212 381.078H353.077V380.077H359.343V380.961Z" fill="white"/>
<path d="M417.5 379.843C418.107 379.843 418.622 379.951 419.047 380.168C419.48 380.376 419.81 380.666 420.035 381.039C420.26 381.403 420.373 381.819 420.373 382.287C420.373 382.798 420.23 383.249 419.944 383.639C419.658 384.02 419.29 384.28 418.839 384.419V384.484C419.368 384.631 419.784 384.917 420.087 385.342C420.39 385.767 420.542 386.308 420.542 386.967C420.542 387.461 420.425 387.907 420.191 388.306C419.966 388.705 419.628 389.021 419.177 389.255C418.726 389.48 418.185 389.593 417.552 389.593C416.651 389.593 415.905 389.359 415.316 388.891C414.727 388.423 414.402 387.76 414.341 386.902H415.459C415.502 387.396 415.706 387.803 416.07 388.124C416.443 388.436 416.932 388.592 417.539 388.592C418.154 388.592 418.622 388.432 418.943 388.111C419.272 387.782 419.437 387.361 419.437 386.85C419.437 386.165 419.22 385.68 418.787 385.394C418.354 385.108 417.691 384.965 416.798 384.965H416.486V383.977H416.811C418.44 383.96 419.255 383.435 419.255 382.404C419.255 381.927 419.099 381.55 418.787 381.273C418.484 380.996 418.042 380.857 417.461 380.857C416.932 380.857 416.508 380.987 416.187 381.247C415.866 381.498 415.671 381.836 415.602 382.261H414.458C414.527 381.507 414.839 380.918 415.394 380.493C415.957 380.06 416.659 379.843 417.5 379.843ZM422.906 388.267C422.43 387.426 422.191 386.265 422.191 384.783C422.191 383.301 422.43 382.14 422.906 381.299C423.383 380.458 424.232 380.038 425.454 380.038C426.676 380.038 427.526 380.458 428.002 381.299C428.479 382.131 428.717 383.292 428.717 384.783C428.717 386.265 428.479 387.426 428.002 388.267C427.526 389.108 426.676 389.528 425.454 389.528C424.232 389.528 423.383 389.108 422.906 388.267ZM427.417 386.694C427.521 386.165 427.573 385.528 427.573 384.783C427.573 384.029 427.521 383.392 427.417 382.872C427.322 382.343 427.118 381.914 426.806 381.585C426.503 381.256 426.052 381.091 425.454 381.091C424.856 381.091 424.401 381.256 424.089 381.585C423.786 381.914 423.587 382.343 423.491 382.872C423.396 383.392 423.348 384.029 423.348 384.783C423.348 385.537 423.396 386.174 423.491 386.694C423.587 387.214 423.786 387.643 424.089 387.981C424.401 388.31 424.856 388.475 425.454 388.475C426.052 388.475 426.503 388.31 426.806 387.981C427.118 387.643 427.322 387.214 427.417 386.694Z" fill="white"/>
<path d="M483.84 379.843C484.446 379.843 484.962 379.951 485.387 380.168C485.82 380.376 486.149 380.666 486.375 381.039C486.6 381.403 486.713 381.819 486.713 382.287C486.713 382.798 486.57 383.249 486.284 383.639C485.998 384.02 485.629 384.28 485.179 384.419V384.484C485.707 384.631 486.123 384.917 486.427 385.342C486.73 385.767 486.882 386.308 486.882 386.967C486.882 387.461 486.765 387.907 486.531 388.306C486.305 388.705 485.967 389.021 485.517 389.255C485.066 389.48 484.524 389.593 483.892 389.593C482.99 389.593 482.245 389.359 481.656 388.891C481.066 388.423 480.741 387.76 480.681 386.902H481.799C481.842 387.396 482.046 387.803 482.41 388.124C482.782 388.436 483.272 388.592 483.879 388.592C484.494 388.592 484.962 388.432 485.283 388.111C485.612 387.782 485.777 387.361 485.777 386.85C485.777 386.165 485.56 385.68 485.127 385.394C484.693 385.108 484.03 384.965 483.138 384.965H482.826V383.977H483.151C484.78 383.96 485.595 383.435 485.595 382.404C485.595 381.927 485.439 381.55 485.127 381.273C484.823 380.996 484.381 380.857 483.801 380.857C483.272 380.857 482.847 380.987 482.527 381.247C482.206 381.498 482.011 381.836 481.942 382.261H480.798C480.867 381.507 481.179 380.918 481.734 380.493C482.297 380.06 482.999 379.843 483.84 379.843Z" fill="white"/>
<path d="M548.2 382.157C548.087 381.706 547.892 381.373 547.615 381.156C547.338 380.939 546.943 380.831 546.432 380.831C545.912 380.831 545.483 380.952 545.145 381.195C544.816 381.438 544.564 381.836 544.391 382.391C544.218 382.937 544.122 383.674 544.105 384.601C544.339 384.176 544.686 383.847 545.145 383.613C545.604 383.37 546.116 383.249 546.679 383.249C547.251 383.249 547.754 383.375 548.187 383.626C548.629 383.877 548.971 384.237 549.214 384.705C549.465 385.173 549.591 385.732 549.591 386.382C549.591 386.98 549.474 387.517 549.24 387.994C549.015 388.471 548.672 388.848 548.213 389.125C547.754 389.402 547.19 389.541 546.523 389.541C545.613 389.541 544.907 389.333 544.404 388.917C543.91 388.501 543.572 387.933 543.39 387.214C543.208 386.495 543.117 385.602 543.117 384.536C543.117 383.045 543.386 381.888 543.923 381.065C544.46 380.242 545.297 379.83 546.432 379.83C546.995 379.83 547.481 379.938 547.888 380.155C548.295 380.363 548.612 380.645 548.837 381C549.071 381.347 549.214 381.732 549.266 382.157H548.2ZM544.274 386.33C544.274 387.006 544.46 387.543 544.833 387.942C545.206 388.341 545.752 388.54 546.471 388.54C547.086 388.54 547.572 388.354 547.927 387.981C548.291 387.6 548.473 387.088 548.473 386.447C548.473 385.762 548.3 385.229 547.953 384.848C547.615 384.458 547.108 384.263 546.432 384.263C546.059 384.263 545.708 384.341 545.379 384.497C545.05 384.644 544.781 384.874 544.573 385.186C544.374 385.489 544.274 385.871 544.274 386.33Z" fill="white"/>
<path d="M610.967 387.11C611.062 387.569 611.27 387.92 611.591 388.163C611.92 388.406 612.354 388.527 612.891 388.527C613.35 388.527 613.723 388.419 614.009 388.202C614.304 387.977 614.525 387.6 614.672 387.071C614.819 386.542 614.893 385.827 614.893 384.926C614.668 385.273 614.351 385.537 613.944 385.719C613.545 385.901 613.112 385.992 612.644 385.992C612.089 385.992 611.582 385.875 611.123 385.641C610.664 385.398 610.3 385.047 610.031 384.588C609.762 384.129 609.628 383.583 609.628 382.95C609.628 382.005 609.901 381.251 610.447 380.688C610.993 380.116 611.751 379.83 612.722 379.83C613.857 379.83 614.672 380.22 615.166 381C615.66 381.771 615.907 382.967 615.907 384.588C615.907 385.715 615.812 386.638 615.621 387.357C615.439 388.076 615.123 388.618 614.672 388.982C614.221 389.346 613.606 389.528 612.826 389.528C611.951 389.528 611.266 389.298 610.772 388.839C610.278 388.38 609.983 387.803 609.888 387.11H610.967ZM614.724 382.976C614.724 382.3 614.546 381.776 614.191 381.403C613.844 381.022 613.363 380.831 612.748 380.831C612.133 380.831 611.643 381.022 611.279 381.403C610.924 381.784 610.746 382.296 610.746 382.937C610.746 383.535 610.919 384.025 611.266 384.406C611.621 384.787 612.15 384.978 612.852 384.978C613.441 384.978 613.901 384.796 614.23 384.432C614.559 384.068 614.724 383.583 614.724 382.976Z" fill="white"/>
<path d="M669.913 381.364V380.311H672.136V389.541H670.979V381.364H669.913ZM674.142 388.566C674.558 388.202 674.87 387.933 675.078 387.76C675.953 387.006 676.642 386.386 677.145 385.901C677.656 385.416 678.081 384.909 678.419 384.38C678.757 383.843 678.926 383.318 678.926 382.807C678.926 382.261 678.783 381.823 678.497 381.494C678.22 381.165 677.773 381 677.158 381C676.569 381 676.114 381.186 675.793 381.559C675.472 381.923 675.299 382.408 675.273 383.015H674.142C674.177 382.044 674.467 381.299 675.013 380.779C675.568 380.25 676.278 379.986 677.145 379.986C678.038 379.986 678.748 380.237 679.277 380.74C679.814 381.234 680.083 381.91 680.083 382.768C680.083 383.392 679.91 384.003 679.563 384.601C679.225 385.19 678.818 385.728 678.341 386.213C677.873 386.69 677.288 387.236 676.586 387.851C676.118 388.258 675.906 388.445 675.949 388.41H680.369V389.411H674.142V388.566Z" fill="white"/>
<path d="M737.973 381.364V380.311H740.196V389.541H739.039V381.364H737.973ZM748.272 381.065H743.735V384.042C743.926 383.756 744.216 383.518 744.606 383.327C744.996 383.136 745.417 383.041 745.867 383.041C746.587 383.041 747.172 383.197 747.622 383.509C748.082 383.812 748.407 384.207 748.597 384.692C748.797 385.169 748.896 385.676 748.896 386.213C748.896 387.192 748.623 387.994 748.077 388.618C747.531 389.233 746.734 389.541 745.685 389.541C744.767 389.541 744.026 389.311 743.462 388.852C742.908 388.393 742.561 387.786 742.422 387.032H743.553C743.675 387.5 743.922 387.868 744.294 388.137C744.676 388.406 745.139 388.54 745.685 388.54C746.379 388.54 746.899 388.332 747.245 387.916C747.601 387.5 747.778 386.945 747.778 386.252C747.778 385.541 747.601 385 747.245 384.627C746.899 384.246 746.379 384.055 745.685 384.055C745.217 384.055 744.814 384.176 744.476 384.419C744.138 384.662 743.887 384.991 743.722 385.407H742.643V380.038H748.272V381.065Z" fill="white"/>
</svg>
