<svg width="798" height="774" viewBox="0 0 798 774" fill="none" xmlns="http://www.w3.org/2000/svg">
<g opacity="0.4">
<path d="M41.8936 52.6496L57.0875 50.9246L79.2348 28.7696" stroke="#A0A09C" stroke-linecap="round" stroke-linejoin="round"/>
<path d="M67.5566 20.8646L94.507 39.1196L162.001 2.86459" stroke="#A0A09C" stroke-linecap="round" stroke-linejoin="round"/>
<path d="M82.9863 43.8596L102.607 54.6146L121.976 43.8596L120.657 33.3596" stroke="#A0A09C" stroke-linecap="round" stroke-linejoin="round"/>
<path d="M136.62 23.6096L93.1572 49.4396" stroke="#A0A09C" stroke-linecap="round" stroke-linejoin="round"/>
<path d="M111.946 49.4396L106.013 40.7096" stroke="#A0A09C" stroke-linecap="round" stroke-linejoin="round"/>
<path d="M148.659 13.2746L162.911 34.5746" stroke="#A0A09C" stroke-linecap="round" stroke-linejoin="round"/>
<path d="M50.0398 60.8546L36.6824 81.6146L8.4292 91.3646" stroke="#A0A09C" stroke-linecap="round" stroke-linejoin="round"/>
<path d="M46.4614 99.4346L36.6826 81.6146" stroke="#A0A09C" stroke-linecap="round" stroke-linejoin="round"/>
<path d="M123.938 56.8646C123.938 56.8646 158.595 67.6346 169.315 71.2196C180.036 74.8046 202.136 86.3846 202.136 86.3846C202.136 86.3846 229.024 103.035 241.785 104.025C254.546 105.015 275.453 104.025 287.79 107.025C300.127 110.025 323.028 117.345 323.028 117.345L376.395 132.075L455.112 153.675C455.112 153.675 531.662 165.42 539.699 164.91C547.735 164.4 556.321 161.37 566.508 161.91C576.694 162.45 611.053 164.805 619.875 168.21C628.696 171.615 659.79 187.005 668.376 187.515C676.962 188.025 715.92 181.875 715.92 181.875C715.92 181.875 734.834 179.31 741.803 181.875C748.772 184.44 795.845 187.545 795.845 187.545" stroke="#A0A09C" stroke-linecap="round" stroke-linejoin="round"/>
<path d="M82.9863 90.7496C82.9863 90.7496 98.1803 87.2696 106.013 84.7496C113.845 82.2296 114.332 82.3496 123.938 81.7496C133.544 81.1496 142.334 79.5296 152.63 65.8646" stroke="#A0A09C" stroke-linecap="round" stroke-linejoin="round"/>
<path d="M108.979 64.9946L102.481 85.7846" stroke="#A0A09C" stroke-linecap="round" stroke-linejoin="round"/>
<path d="M126.575 57.7046L111.946 82.9196" stroke="#A0A09C" stroke-linecap="round" stroke-linejoin="round"/>
<path d="M131.88 59.3546L120.469 81.8546" stroke="#A0A09C" stroke-linecap="round" stroke-linejoin="round"/>
<path d="M141.611 62.3996L131.158 80.7596" stroke="#A0A09C" stroke-linecap="round" stroke-linejoin="round"/>
<path d="M156.774 76.1096L130.294 126.885" stroke="#A0A09C" stroke-linecap="round" stroke-linejoin="round"/>
<path d="M178.749 75.0146L147.545 140.49" stroke="#A0A09C" stroke-linecap="round" stroke-linejoin="round"/>
<path d="M147.545 93.8246L166.129 101.49" stroke="#A0A09C" stroke-linecap="round" stroke-linejoin="round"/>
<path d="M138.833 133.59L156.774 97.6646" stroke="#A0A09C" stroke-linecap="round" stroke-linejoin="round"/>
<path d="M139.414 109.41L158.061 118.41" stroke="#A0A09C" stroke-linecap="round" stroke-linejoin="round"/>
<path d="M187.602 79.1096L154.012 145.635" stroke="#A0A09C" stroke-linecap="round" stroke-linejoin="round"/>
<path d="M145.033 98.6096L137.907 96.1946L120.469 119.19" stroke="#A0A09C" stroke-linecap="round" stroke-linejoin="round"/>
<path d="M159.6 36.5096L162.927 69.1346C180.169 56.0641 201.02 48.0739 222.934 46.1396C259.255 43.0646 276.662 46.5296 294.399 41.9246" stroke="#A0A09C" stroke-linecap="round" stroke-linejoin="round"/>
<path d="M162.221 62.3996L180.193 52.8296" stroke="#A0A09C" stroke-linecap="round" stroke-linejoin="round"/>
<path d="M213.374 64.9946L199.075 57.7046" stroke="#A0A09C" stroke-linecap="round" stroke-linejoin="round"/>
<path d="M203.831 49.4396L193.88 66.6896" stroke="#A0A09C" stroke-linecap="round" stroke-linejoin="round"/>
<path d="M152.63 84.0596L148.659 82.9196L121.976 104.91" stroke="#A0A09C" stroke-linecap="round" stroke-linejoin="round"/>
<path d="M126.167 91.3646L95.2295 99.8696" stroke="#A0A09C" stroke-linecap="round" stroke-linejoin="round"/>
<path d="M263.854 6.61459L175.233 162.63" stroke="#A0A09C" stroke-linecap="round" stroke-linejoin="round"/>
<path d="M296.722 6.61459L195.921 179.415L130.342 247.335" stroke="#A0A09C" stroke-linecap="round" stroke-linejoin="round"/>
<path d="M276.834 40.7096L256.696 44.6846L186.173 171.495" stroke="#A0A09C" stroke-linecap="round" stroke-linejoin="round"/>
<path d="M222.667 79.1096L234.486 84.6296" stroke="#A0A09C" stroke-linecap="round" stroke-linejoin="round"/>
<path d="M249.366 18.3596L276.835 33.3596" stroke="#A0A09C" stroke-linecap="round" stroke-linejoin="round"/>
<path d="M274.48 6.61459L288.34 20.9846" stroke="#A0A09C" stroke-linecap="round" stroke-linejoin="round"/>
<path d="M298.558 11.8646L317.645 25.8596" stroke="#A0A09C" stroke-linecap="round" stroke-linejoin="round"/>
<path d="M325.493 8.3696L285.593 106.605" stroke="#A0A09C" stroke-linecap="round" stroke-linejoin="round"/>
<path d="M334.126 17.1146L326.764 31.1246" stroke="#A0A09C" stroke-linecap="round" stroke-linejoin="round"/>
<path d="M340.278 37.5296L321.835 28.7696" stroke="#A0A09C" stroke-linecap="round" stroke-linejoin="round"/>
<path d="M268.374 104.91L267.684 93.8246L270.823 85.7846" stroke="#A0A09C" stroke-linecap="round" stroke-linejoin="round"/>
<path d="M306.704 54.6146L334.125 66.6896L373.366 86.8646" stroke="#A0A09C" stroke-linecap="round" stroke-linejoin="round"/>
<path d="M290.051 95.6246L325.1 107.745" stroke="#A0A09C" stroke-linecap="round" stroke-linejoin="round"/>
<path d="M331.049 65.8646L306.139 101.685" stroke="#A0A09C" stroke-linecap="round" stroke-linejoin="round"/>
<path d="M303.047 63.6296L324.692 75.0146" stroke="#A0A09C" stroke-linecap="round" stroke-linejoin="round"/>
<path d="M328.648 91.3646L318.602 90.5246" stroke="#A0A09C" stroke-linecap="round" stroke-linejoin="round"/>
<path d="M365.251 47.2946L351.062 75.3896" stroke="#A0A09C" stroke-linecap="round" stroke-linejoin="round"/>
<path d="M362.646 8.3696L454.233 156.12L559.225 74.8646" stroke="#A0A09C" stroke-linecap="round" stroke-linejoin="round"/>
<path d="M403.77 92.5346L382.784 86.8646" stroke="#A0A09C" stroke-linecap="round" stroke-linejoin="round"/>
<path d="M418.854 87.7646L487.697 104.04L501.039 104.91L632.4 132.135L715.465 156.12L795.861 178.62" stroke="#A0A09C" stroke-linecap="round" stroke-linejoin="round"/>
<path d="M449.21 78.0146L444.47 93.8246" stroke="#A0A09C" stroke-linecap="round" stroke-linejoin="round"/>
<path d="M465.409 72.7196L457.592 96.9146" stroke="#A0A09C" stroke-linecap="round" stroke-linejoin="round"/>
<path d="M480.132 102.255L506.643 115.995L546.809 126.12L572.975 129.87L625.793 149.61L663.981 230.19L680.227 274.62L669.334 360.075" stroke="#A0A09C" stroke-linecap="round" stroke-linejoin="round"/>
<path d="M550.733 106.605L526.435 100.83L513.596 76.6196L523.39 50.9246" stroke="#A0A09C" stroke-linecap="round" stroke-linejoin="round"/>
<path d="M587.368 6.61459L556.76 80.8646L538.443 164.985L600.443 202.365" stroke="#A0A09C" stroke-linecap="round" stroke-linejoin="round"/>
<path d="M510.771 6.61459L559.225 74.8646L580.179 96.9146L616.139 128.76" stroke="#A0A09C" stroke-linecap="round" stroke-linejoin="round"/>
<path d="M668.062 6.61459L655.38 46.1546L538.443 164.985L481.607 188.43L386.362 170.205L313.595 161.07" stroke="#A0A09C" stroke-linecap="round" stroke-linejoin="round"/>
<path d="M315.07 154.23L299.923 143.775L274.182 132.3L280.193 118.155" stroke="#A0A09C" stroke-linecap="round" stroke-linejoin="round"/>
<path d="M361.405 127.995L344.783 169.5" stroke="#A0A09C" stroke-linecap="round" stroke-linejoin="round"/>
<path d="M372.236 130.98L351.062 178.62" stroke="#A0A09C" stroke-linecap="round" stroke-linejoin="round"/>
<path d="M313.25 162.63L354.876 193.875L429.982 146.835L433.216 122.205" stroke="#A0A09C" stroke-linecap="round" stroke-linejoin="round"/>
<path d="M401.431 227.97L422.165 190.395L427.706 178.125L429.982 146.835" stroke="#A0A09C" stroke-linecap="round" stroke-linejoin="round"/>
<path d="M429.982 216.21L422.166 190.395" stroke="#A0A09C" stroke-linecap="round" stroke-linejoin="round"/>
<path d="M421.506 233.865L406.846 218.16" stroke="#A0A09C" stroke-linecap="round" stroke-linejoin="round"/>
<path d="M385.437 97.6646L403.77 103.41L396.612 126.885L431.725 133.59" stroke="#A0A09C" stroke-linecap="round" stroke-linejoin="round"/>
<path d="M401.431 139.005L403.769 128.25" stroke="#A0A09C" stroke-linecap="round" stroke-linejoin="round"/>
<path d="M398.26 101.685L389.329 130.98L402.608 133.185" stroke="#A0A09C" stroke-linecap="round" stroke-linejoin="round"/>
<path d="M500.505 120.315L483.177 157.935" stroke="#A0A09C" stroke-linecap="round" stroke-linejoin="round"/>
<path d="M486.724 130.98L475.14 156.75" stroke="#A0A09C" stroke-linecap="round" stroke-linejoin="round"/>
<path d="M496.754 159.885L481.607 188.43L547.217 202.365L612.325 222.81L603.865 241.575L604.979 252.555L589.832 270.51L591.512 294.36L585.359 298.11L569.443 294.36" stroke="#A0A09C" stroke-linecap="round" stroke-linejoin="round"/>
<path d="M581.984 239.16L612.325 222.81L625.165 258.99L623.768 274.62L612.325 299.175L589.613 301.32L585.908 307.215L569.443 300.78V283.635L566.524 274.62L540.217 269.145L541.331 232.455L547.217 202.365" stroke="#A0A09C" stroke-linecap="round" stroke-linejoin="round"/>
<path d="M519.733 204.48L513.596 222.81L541.331 232.455L568.25 233.865L584.511 240.495L603.865 241.575" stroke="#A0A09C" stroke-linecap="round" stroke-linejoin="round"/>
<path d="M589.613 215.685L581.984 230.055L543.45 221.67" stroke="#A0A09C" stroke-linecap="round" stroke-linejoin="round"/>
<path d="M557.184 205.5L558.722 224.985" stroke="#A0A09C" stroke-linecap="round" stroke-linejoin="round"/>
<path d="M576.852 211.68L572.425 227.97" stroke="#A0A09C" stroke-linecap="round" stroke-linejoin="round"/>
<path d="M544.282 217.41L518.76 207.405" stroke="#A0A09C" stroke-linecap="round" stroke-linejoin="round"/>
<path d="M529.841 227.97L532.164 212.655" stroke="#A0A09C" stroke-linecap="round" stroke-linejoin="round"/>
<path d="M572.425 254.79L540.86 247.995L511.885 233.865L498.151 263.535L516.092 276.135" stroke="#A0A09C" stroke-linecap="round" stroke-linejoin="round"/>
<path d="M513.596 267.555L535.288 270.51L527.032 281.115L535.288 291.675" stroke="#A0A09C" stroke-linecap="round" stroke-linejoin="round"/>
<path d="M543.45 289.8L553.103 293.28L561.234 283.365L540.217 269.145L535.288 270.51" stroke="#A0A09C" stroke-linecap="round" stroke-linejoin="round"/>
<path d="M509.374 224.985L504.602 205.5L493.709 206.595L490.837 212.4L467.026 222.87L465.063 237.015L474.324 245.325L495.357 250.74" stroke="#A0A09C" stroke-linecap="round" stroke-linejoin="round"/>
<path d="M505.716 231.93L492.83 228.99L481.607 230.46L466.178 228.99" stroke="#A0A09C" stroke-linecap="round" stroke-linejoin="round"/>
<path d="M465.503 233.865L451.047 239.16L445.726 255L435.068 271.845L436.465 286.05L453.856 302.4" stroke="#A0A09C" stroke-linecap="round" stroke-linejoin="round"/>
<path d="M426.089 258.315L436.778 269.145L465.063 279.615L480.131 293.28L554.233 324.9L561.234 327.855L576.851 365.895L578.013 391.74L597.633 446.625" stroke="#A0A09C" stroke-linecap="round" stroke-linejoin="round"/>
<path d="M414.176 282.675L476.569 313.92L505.717 330.525L540.217 357.855V402.165L552.711 434.745" stroke="#A0A09C" stroke-linecap="round" stroke-linejoin="round"/>
<path d="M414.176 304.275L459.899 331.065" stroke="#A0A09C" stroke-linecap="round" stroke-linejoin="round"/>
<path d="M435.35 293.28L419.089 319.815L433.215 329.19" stroke="#A0A09C" stroke-linecap="round" stroke-linejoin="round"/>
<path d="M453.856 302.4L414.176 357.405L435.602 345.465" stroke="#A0A09C" stroke-linecap="round" stroke-linejoin="round"/>
<path d="M445.443 370.455L431.081 333.975" stroke="#A0A09C" stroke-linecap="round" stroke-linejoin="round"/>
<path d="M445.443 314.055L500.395 346.065L498.151 353.31L523.108 362.865" stroke="#A0A09C" stroke-linecap="round" stroke-linejoin="round"/>
<path d="M529.841 349.635L506.721 393.855" stroke="#A0A09C" stroke-linecap="round" stroke-linejoin="round"/>
<path d="M496.063 325.02L477.196 383.13" stroke="#A0A09C" stroke-linecap="round" stroke-linejoin="round"/>
<path d="M471.232 357.405L462.316 377.295" stroke="#A0A09C" stroke-linecap="round" stroke-linejoin="round"/>
<path d="M488.435 348.51L472.362 342.42" stroke="#A0A09C" stroke-linecap="round" stroke-linejoin="round"/>
<path d="M498.151 362.865L488.435 388.275" stroke="#A0A09C" stroke-linecap="round" stroke-linejoin="round"/>
<path d="M508.872 357.405L496.063 389.475" stroke="#A0A09C" stroke-linecap="round" stroke-linejoin="round"/>
<path d="M459.899 354.075L452.773 373.44" stroke="#A0A09C" stroke-linecap="round" stroke-linejoin="round"/>
<path d="M465.063 279.615L457.293 304.275" stroke="#A0A09C" stroke-linecap="round" stroke-linejoin="round"/>
<path d="M480.131 293.28L470.227 310.74" stroke="#A0A09C" stroke-linecap="round" stroke-linejoin="round"/>
<path d="M487.226 296.31L498.151 314.055" stroke="#A0A09C" stroke-linecap="round" stroke-linejoin="round"/>
<path d="M508.008 305.175L499.893 327.21" stroke="#A0A09C" stroke-linecap="round" stroke-linejoin="round"/>
<path d="M508.008 332.34L513.596 319.815L524.442 323.835" stroke="#A0A09C" stroke-linecap="round" stroke-linejoin="round"/>
<path d="M523.108 344.31L524.442 332.34H552.554L554.233 324.9" stroke="#A0A09C" stroke-linecap="round" stroke-linejoin="round"/>
<path d="M540.217 357.855V332.34" stroke="#A0A09C" stroke-linecap="round" stroke-linejoin="round"/>
<path d="M524.442 342.42L571.232 352.215" stroke="#A0A09C" stroke-linecap="round" stroke-linejoin="round"/>
<path d="M540.217 361.605L576.852 365.895L649.557 345.465L676.02 365.025" stroke="#A0A09C" stroke-linecap="round" stroke-linejoin="round"/>
<path d="M642.305 373.005L618.164 338.31V321.15L634.425 302.01L637.266 255" stroke="#A0A09C" stroke-linecap="round" stroke-linejoin="round"/>
<path d="M616.139 354.855L625.164 377.58L666.398 403.005L725.008 428.07L797.006 450.855" stroke="#A0A09C" stroke-linecap="round" stroke-linejoin="round"/>
<path d="M614.931 380.475L603.865 339.675" stroke="#A0A09C" stroke-linecap="round" stroke-linejoin="round"/>
<path d="M468.454 282.675L477.196 261.66" stroke="#A0A09C" stroke-linecap="round" stroke-linejoin="round"/>
<path d="M441.503 261.66L472.362 273.285L484.276 269.145L496.063 274.62L509.374 291.945" stroke="#A0A09C" stroke-linecap="round" stroke-linejoin="round"/>
<path d="M555.913 305.175L554.233 314.055" stroke="#A0A09C" stroke-linecap="round" stroke-linejoin="round"/>
<path d="M589.612 319.815L524.442 290.61L513.596 288.99L506.721 294.36L586.473 327.21" stroke="#A0A09C" stroke-linecap="round" stroke-linejoin="round"/>
<path d="M591.512 294.36L606.266 293.28V269.145L637.266 255L643.67 261.66L682.079 260.595" stroke="#A0A09C" stroke-linecap="round" stroke-linejoin="round"/>
<path d="M635.273 287.925L680.227 274.62L691.073 210.225L702.123 125.625L715.449 54.2696" stroke="#A0A09C" stroke-linecap="round" stroke-linejoin="round"/>
<path d="M676.334 305.175L634.425 302.01L630.768 337.08" stroke="#A0A09C" stroke-linecap="round" stroke-linejoin="round"/>
<path d="M672.332 336.585L631.835 329.19" stroke="#A0A09C" stroke-linecap="round" stroke-linejoin="round"/>
<path d="M635.273 284.97L657.75 272.175L663.856 284.97L660.214 304.275" stroke="#A0A09C" stroke-linecap="round" stroke-linejoin="round"/>
<path d="M578.013 323.73L569.726 348.51L593.207 340.71L630.768 337.08L649.556 345.465" stroke="#A0A09C" stroke-linecap="round" stroke-linejoin="round"/>
<path d="M386.174 311.235L378.294 342.42" stroke="#A0A09C" stroke-linecap="round" stroke-linejoin="round"/>
<path d="M673.964 323.73L714.162 338.46" stroke="#A0A09C" stroke-linecap="round" stroke-linejoin="round"/>
<path d="M691.073 361.935L701.919 333.975" stroke="#A0A09C" stroke-linecap="round" stroke-linejoin="round"/>
<path d="M714.24 344.31L699.69 339.675" stroke="#A0A09C" stroke-linecap="round" stroke-linejoin="round"/>
<path d="M714.162 348.51L696.488 349.635" stroke="#A0A09C" stroke-linecap="round" stroke-linejoin="round"/>
<path d="M714.241 311.235L678.406 288.99L714.868 263.805L750.216 237.39L748.254 183.195" stroke="#A0A09C" stroke-linecap="round" stroke-linejoin="round"/>
<path d="M714.162 282.675L678.39 288.99" stroke="#A0A09C" stroke-linecap="round" stroke-linejoin="round"/>
<path d="M660.497 222.87L689.362 220.32L715.732 207.39L748.254 183.195L751.613 157.935L769.287 112.155L774.043 67.6946L769.836 8.3696" stroke="#A0A09C" stroke-linecap="round" stroke-linejoin="round"/>
<path d="M655.379 46.1546L774.043 64.4546L749.086 92.5946L740.123 102.255L715.025 152.115" stroke="#A0A09C" stroke-linecap="round" stroke-linejoin="round"/>
<path d="M715.449 204.48L655.38 138.78L638.506 176.43" stroke="#A0A09C" stroke-linecap="round" stroke-linejoin="round"/>
<path d="M687.118 99.1346L672.834 133.185" stroke="#A0A09C" stroke-linecap="round" stroke-linejoin="round"/>
<path d="M659.633 52.5296L686.599 63.4946L712.435 70.4096L758.268 82.2446L772.097 85.9196L795.861 89.3846" stroke="#A0A09C" stroke-linecap="round" stroke-linejoin="round"/>
<path d="M796.755 116.16L769.287 112.155L708.543 91.2746L680.227 80.4896" stroke="#A0A09C" stroke-linecap="round" stroke-linejoin="round"/>
<path d="M734.096 76.0046L732.275 84.8246L770.668 99.1346" stroke="#A0A09C" stroke-linecap="round" stroke-linejoin="round"/>
<path d="M780.243 174.24L789.017 234.705" stroke="#A0A09C" stroke-linecap="round" stroke-linejoin="round"/>
<path d="M748.945 202.365L784.622 201.195" stroke="#A0A09C" stroke-linecap="round" stroke-linejoin="round"/>
<path d="M749.227 220.32L787.322 223.035" stroke="#A0A09C" stroke-linecap="round" stroke-linejoin="round"/>
<path d="M675.361 187.245L676.977 198.69H665.488" stroke="#A0A09C" stroke-linecap="round" stroke-linejoin="round"/>
<path d="M614.711 189.33L646.339 192.96" stroke="#A0A09C" stroke-linecap="round" stroke-linejoin="round"/>
<path d="M649.604 199.86L638.506 198.69" stroke="#A0A09C" stroke-linecap="round" stroke-linejoin="round"/>
<path d="M627.66 214.335L649.603 209.25" stroke="#A0A09C" stroke-linecap="round" stroke-linejoin="round"/>
<path d="M616.908 179.445L627.66 180.825" stroke="#A0A09C" stroke-linecap="round" stroke-linejoin="round"/>
<path d="M616.139 145.995L609.39 165.885L607.349 179.445L597.539 200.61" stroke="#A0A09C" stroke-linecap="round" stroke-linejoin="round"/>
<path d="M557.184 162.345L553.951 174.33L550.733 193.875L498.151 181.605L505.716 161.145" stroke="#A0A09C" stroke-linecap="round" stroke-linejoin="round"/>
<path d="M572.425 162.345L570.604 177.75" stroke="#A0A09C" stroke-linecap="round" stroke-linejoin="round"/>
<path d="M563.463 179.445L581.655 180.825V190.395" stroke="#A0A09C" stroke-linecap="round" stroke-linejoin="round"/>
<path d="M584.103 163.11L582.69 173.31" stroke="#A0A09C" stroke-linecap="round" stroke-linejoin="round"/>
<path d="M589.612 123.27L579.033 162.345" stroke="#A0A09C" stroke-linecap="round" stroke-linejoin="round"/>
<path d="M604.681 126.39L593.333 163.935" stroke="#A0A09C" stroke-linecap="round" stroke-linejoin="round"/>
<path d="M538.443 164.985L529.182 184.92" stroke="#A0A09C" stroke-linecap="round" stroke-linejoin="round"/>
<path d="M763.354 127.5L714.711 113.97" stroke="#A0A09C" stroke-linecap="round" stroke-linejoin="round"/>
<path d="M764.986 123.27L721.366 109.545" stroke="#A0A09C" stroke-linecap="round" stroke-linejoin="round"/>
<path d="M647.5 102.255L657.844 113.97L651.817 129.915L660.497 133.185L693.851 44.0996L663.573 35.2496" stroke="#A0A09C" stroke-linecap="round" stroke-linejoin="round"/>
<path d="M648.929 99.1346L669.773 108.42" stroke="#A0A09C" stroke-linecap="round" stroke-linejoin="round"/>
<path d="M571.06 46.1546L580.179 62.8646L674.089 96.9146" stroke="#A0A09C" stroke-linecap="round" stroke-linejoin="round"/>
<path d="M569.726 85.9196L580.179 62.8646" stroke="#A0A09C" stroke-linecap="round" stroke-linejoin="round"/>
<path d="M597.539 112.29L600.443 70.2146L604.665 46.1546L606.58 35.2496L618.65 6.61459" stroke="#A0A09C" stroke-linecap="round" stroke-linejoin="round"/>
<path d="M575.941 34.3196L600.443 46.1546" stroke="#A0A09C" stroke-linecap="round" stroke-linejoin="round"/>
<path d="M582.062 19.4846L608.087 30.7796" stroke="#A0A09C" stroke-linecap="round" stroke-linejoin="round"/>
<path d="M603.551 52.5296L619.451 59.4446" stroke="#A0A09C" stroke-linecap="round" stroke-linejoin="round"/>
<path d="M620.958 129.765L639.071 84.2246L652.382 49.1996" stroke="#A0A09C" stroke-linecap="round" stroke-linejoin="round"/>
<path d="M658.77 70.9496L645.35 67.6946" stroke="#A0A09C" stroke-linecap="round" stroke-linejoin="round"/>
<path d="M623.281 78.7646L612.325 125.385" stroke="#A0A09C" stroke-linecap="round" stroke-linejoin="round"/>
<path d="M600.443 20.5946L625.886 30.7796" stroke="#A0A09C" stroke-linecap="round" stroke-linejoin="round"/>
<path d="M544.612 54.2846L535.618 76.8896" stroke="#A0A09C" stroke-linecap="round" stroke-linejoin="round"/>
<path d="M519.262 52.5296L526.498 28.7696L577.84 29.7146" stroke="#A0A09C" stroke-linecap="round" stroke-linejoin="round"/>
<path d="M523.233 94.8146L502.248 92.5346L498.151 104.49" stroke="#A0A09C" stroke-linecap="round" stroke-linejoin="round"/>
<path d="M491.841 108.315L485.562 122.205L490.585 127.995" stroke="#A0A09C" stroke-linecap="round" stroke-linejoin="round"/>
<path d="M506.705 93.0146L508.887 83.7746" stroke="#A0A09C" stroke-linecap="round" stroke-linejoin="round"/>
<path d="M517.63 84.2246L527.675 85.8296" stroke="#A0A09C" stroke-linecap="round" stroke-linejoin="round"/>
<path d="M519.262 65.5796L530.187 67.6946" stroke="#A0A09C" stroke-linecap="round" stroke-linejoin="round"/>
<path d="M434.707 8.3696L420.329 37.5296L413.391 79.1246L409.389 83.7746" stroke="#A0A09C" stroke-linecap="round" stroke-linejoin="round"/>
<path d="M483.177 6.61459L477.699 25.8596L509.892 39.1196" stroke="#A0A09C" stroke-linecap="round" stroke-linejoin="round"/>
<path d="M432.274 13.2746L467.308 27.9146L470.887 6.61459" stroke="#A0A09C" stroke-linecap="round" stroke-linejoin="round"/>
<path d="M371.639 22.8596L383.647 15.2246" stroke="#A0A09C" stroke-linecap="round" stroke-linejoin="round"/>
<path d="M394.1 18.3596L387.461 33.3596" stroke="#A0A09C" stroke-linecap="round" stroke-linejoin="round"/>
<path d="M402.608 13.2896L389.329 42.8996L365.706 82.9196L357.858 106.83L365.251 118.41L364.215 128.76" stroke="#A0A09C" stroke-linecap="round" stroke-linejoin="round"/>
<path d="M409.389 20.2196L401.431 33.3596" stroke="#A0A09C" stroke-linecap="round" stroke-linejoin="round"/>
<path d="M417.41 20.9846L408.588 39.1196" stroke="#A0A09C" stroke-linecap="round" stroke-linejoin="round"/>
<path d="M343.167 24.1196L357.858 33.1496" stroke="#A0A09C" stroke-linecap="round" stroke-linejoin="round"/>
<path d="M368.939 35.3996L381.606 44.3246" stroke="#A0A09C" stroke-linecap="round" stroke-linejoin="round"/>
<path d="M750.216 237.39L727.582 294.36L713.848 315.12" stroke="#A0A09C" stroke-linecap="round" stroke-linejoin="round"/>
<path d="M795.861 255L775.723 256.365L746.324 247.215" stroke="#A0A09C" stroke-linecap="round" stroke-linejoin="round"/>
<path d="M738.224 267.555L775.722 256.365" stroke="#A0A09C" stroke-linecap="round" stroke-linejoin="round"/>
<path d="M784.622 234.705L782.519 288.99L775.723 307.215L766.792 323.73" stroke="#A0A09C" stroke-linecap="round" stroke-linejoin="round"/>
<path d="M714.162 318.48L735.697 319.545L772.834 324.9L795.861 323.73" stroke="#A0A09C" stroke-linecap="round" stroke-linejoin="round"/>
<path d="M723.736 300.165H758.974L795.86 314.01" stroke="#A0A09C" stroke-linecap="round" stroke-linejoin="round"/>
<path d="M728.649 291.675L742.227 291.945L795.861 276.81" stroke="#A0A09C" stroke-linecap="round" stroke-linejoin="round"/>
<path d="M758.975 300.165L756.463 287.925" stroke="#A0A09C" stroke-linecap="round" stroke-linejoin="round"/>
<path d="M795.86 307.215L777.653 302.01L771.092 283.8L768.282 272.175L795.86 269.145" stroke="#A0A09C" stroke-linecap="round" stroke-linejoin="round"/>
<path d="M732.229 282.675L768.283 272.175" stroke="#A0A09C" stroke-linecap="round" stroke-linejoin="round"/>
<path d="M748.945 300.165L746.308 319.815" stroke="#A0A09C" stroke-linecap="round" stroke-linejoin="round"/>
<path d="M689.126 238.365L714.868 263.805" stroke="#A0A09C" stroke-linecap="round" stroke-linejoin="round"/>
<path d="M625.165 212.4L639.684 245.865L668.062 239.37" stroke="#A0A09C" stroke-linecap="round" stroke-linejoin="round"/>
<path d="M653.559 225.825L632.997 230.46" stroke="#A0A09C" stroke-linecap="round" stroke-linejoin="round"/>
<path d="M652.083 243.03L646.339 227.46L638.632 219.27" stroke="#A0A09C" stroke-linecap="round" stroke-linejoin="round"/>
<path d="M735.697 319.545V354.075" stroke="#A0A09C" stroke-linecap="round" stroke-linejoin="round"/>
<path d="M762.255 323.37L765.033 351.645" stroke="#A0A09C" stroke-linecap="round" stroke-linejoin="round"/>
<path d="M795.861 332.895L764.39 345.105" stroke="#A0A09C" stroke-linecap="round" stroke-linejoin="round"/>
<path d="M402.074 230.46L354.876 193.875L342.303 203.31L323.452 239.4L343.182 265.755L263.649 339.81L176.818 367.875L135.16 384.195L112.417 399.18L128.144 419.64" stroke="#A0A09C" stroke-linecap="round" stroke-linejoin="round"/>
<path d="M4.20703 441.255L34.2339 406.185L42.9139 393.705L60.4622 369.225L132.429 306.75L240.168 216.345L323.028 117.405" stroke="#A0A09C" stroke-linecap="round" stroke-linejoin="round"/>
<path d="M231.504 145.635L309.624 179.415L342.303 203.31" stroke="#A0A09C" stroke-linecap="round" stroke-linejoin="round"/>
<path d="M208.634 398.7L194.555 357.405L151.61 293.28L137.295 281.85L162.911 253.545L204.271 186.27L228.584 146.835L250.119 104.49" stroke="#A0A09C" stroke-linecap="round" stroke-linejoin="round"/>
<path d="M244.014 151.035L213.516 193.875" stroke="#A0A09C" stroke-linecap="round" stroke-linejoin="round"/>
<path d="M257.246 156.765L222.306 201.195L186.22 240.615" stroke="#A0A09C" stroke-linecap="round" stroke-linejoin="round"/>
<path d="M274.181 164.085L233.748 210.84" stroke="#A0A09C" stroke-linecap="round" stroke-linejoin="round"/>
<path d="M250.12 225.135L282.517 192.27L304.931 201.195" stroke="#A0A09C" stroke-linecap="round" stroke-linejoin="round"/>
<path d="M265.282 240.615L272.361 228.99L256.053 219.105" stroke="#A0A09C" stroke-linecap="round" stroke-linejoin="round"/>
<path d="M330.437 226.02L303.298 208.695" stroke="#A0A09C" stroke-linecap="round" stroke-linejoin="round"/>
<path d="M339.494 208.695L308.399 185.1" stroke="#A0A09C" stroke-linecap="round" stroke-linejoin="round"/>
<path d="M325.1 233.865L301.258 218.16" stroke="#A0A09C" stroke-linecap="round" stroke-linejoin="round"/>
<path d="M295.199 246.255L316.875 261.66V268.125L304.93 281.115L296.721 281.85" stroke="#A0A09C" stroke-linecap="round" stroke-linejoin="round"/>
<path d="M356.163 337.71L355.08 311.235L333.309 287.94L328.083 276.81L316.875 268.125" stroke="#A0A09C" stroke-linecap="round" stroke-linejoin="round"/>
<path d="M333.09 252.27L325.493 257.16L318.602 254.715L316.875 261.66" stroke="#A0A09C" stroke-linecap="round" stroke-linejoin="round"/>
<path d="M251.877 139.125L275.547 151.035" stroke="#A0A09C" stroke-linecap="round" stroke-linejoin="round"/>
<path d="M179.047 196.89L190.866 208.065" stroke="#A0A09C" stroke-linecap="round" stroke-linejoin="round"/>
<path d="M141.329 188.43L228.757 259.425L285.232 319.71L316.875 366.27" stroke="#A0A09C" stroke-linecap="round" stroke-linejoin="round"/>
<path d="M294.634 373.755L279.283 325.26" stroke="#A0A09C" stroke-linecap="round" stroke-linejoin="round"/>
<path d="M288.167 375.78L269.363 334.5" stroke="#A0A09C" stroke-linecap="round" stroke-linejoin="round"/>
<path d="M274.182 330L233.748 288.255L193.707 255.33L172.376 238.155L131.111 203.31" stroke="#A0A09C" stroke-linecap="round" stroke-linejoin="round"/>
<path d="M120.971 217.35L162.911 253.545L219.543 304.68L251.878 343.62" stroke="#A0A09C" stroke-linecap="round" stroke-linejoin="round"/>
<path d="M272.361 380.565L233.654 349.515L162.911 281.115L148.8 269.145" stroke="#A0A09C" stroke-linecap="round" stroke-linejoin="round"/>
<path d="M152.897 264.615L111.491 229.86" stroke="#A0A09C" stroke-linecap="round" stroke-linejoin="round"/>
<path d="M203.674 290.355L171.732 323.34" stroke="#A0A09C" stroke-linecap="round" stroke-linejoin="round"/>
<path d="M168.468 276.51L198.118 296.085" stroke="#A0A09C" stroke-linecap="round" stroke-linejoin="round"/>
<path d="M272.361 246.9L243.166 274.815L233.748 288.255L219.543 304.68L205.37 322.155L173.915 343.62" stroke="#A0A09C" stroke-linecap="round" stroke-linejoin="round"/>
<path d="M218.131 334.5L205.275 346.455L210.581 356.955" stroke="#A0A09C" stroke-linecap="round" stroke-linejoin="round"/>
<path d="M216.231 355.14L228.757 393.12" stroke="#A0A09C" stroke-linecap="round" stroke-linejoin="round"/>
<path d="M238.959 353.76L249.523 387.24L275.249 433.38L288.167 469.11" stroke="#A0A09C" stroke-linecap="round" stroke-linejoin="round"/>
<path d="M238.959 328.05L258.47 313.785" stroke="#A0A09C" stroke-linecap="round" stroke-linejoin="round"/>
<path d="M278.765 268.125L252.976 285.285" stroke="#A0A09C" stroke-linecap="round" stroke-linejoin="round"/>
<path d="M265.863 285.285L292.719 268.125" stroke="#A0A09C" stroke-linecap="round" stroke-linejoin="round"/>
<path d="M263.854 296.895L295.968 277.35" stroke="#A0A09C" stroke-linecap="round" stroke-linejoin="round"/>
<path d="M276.834 310.74L300.253 290.355" stroke="#A0A09C" stroke-linecap="round" stroke-linejoin="round"/>
<path d="M228.757 259.425L256.053 230.73" stroke="#A0A09C" stroke-linecap="round" stroke-linejoin="round"/>
<path d="M250.135 362.73L278.765 355.14" stroke="#A0A09C" stroke-linecap="round" stroke-linejoin="round"/>
<path d="M261.389 371.775L258.47 360.51" stroke="#A0A09C" stroke-linecap="round" stroke-linejoin="round"/>
<path d="M329.197 295.26L307.709 313.785" stroke="#A0A09C" stroke-linecap="round" stroke-linejoin="round"/>
<path d="M325.1 309.57L310.299 322.02L329.197 319.815L346.949 302.925" stroke="#A0A09C" stroke-linecap="round" stroke-linejoin="round"/>
<path d="M315.07 337.71L329.197 324.855L339.494 334.5L348.801 324.855L355.818 329.19" stroke="#A0A09C" stroke-linecap="round" stroke-linejoin="round"/>
<path d="M163.618 373.05L123.938 314.115L80.6162 264.06L82.9863 293.28L98.0547 336.585" stroke="#A0A09C" stroke-linecap="round" stroke-linejoin="round"/>
<path d="M91.3208 342.435L114.52 368.475L131.158 356.955" stroke="#A0A09C" stroke-linecap="round" stroke-linejoin="round"/>
<path d="M148.738 378.885L109.293 326.835L88.5741 296.895L58.9397 274.185L25.083 250.74" stroke="#A0A09C" stroke-linecap="round" stroke-linejoin="round"/>
<path d="M106.013 374.13L97.3799 378.885" stroke="#A0A09C" stroke-linecap="round" stroke-linejoin="round"/>
<path d="M112.417 399.18L76.9748 354.885L29.2427 322.02" stroke="#A0A09C" stroke-linecap="round" stroke-linejoin="round"/>
<path d="M4.20703 296.895L31.1103 329.19L50.0399 355.14L99.5615 411.69" stroke="#A0A09C" stroke-linecap="round" stroke-linejoin="round"/>
<path d="M7.50317 375.78L60.4622 369.225" stroke="#A0A09C" stroke-linecap="round" stroke-linejoin="round"/>
<path d="M45.9432 389.475L-3.86084 353.76" stroke="#A0A09C" stroke-linecap="round" stroke-linejoin="round"/>
<path d="M-3.86084 342.435L33.9827 317.67L86.7219 259.425" stroke="#A0A09C" stroke-linecap="round" stroke-linejoin="round"/>
<path d="M18.271 313.785L51.8766 282.675" stroke="#A0A09C" stroke-linecap="round" stroke-linejoin="round"/>
<path d="M10.564 304.515L31.5184 286.29" stroke="#A0A09C" stroke-linecap="round" stroke-linejoin="round"/>
<path d="M41.5797 251.595L-3.86084 290.355" stroke="#A0A09C" stroke-linecap="round" stroke-linejoin="round"/>
<path d="M35.0814 250.875L25.083 240.615L-3.86084 230.73" stroke="#A0A09C" stroke-linecap="round" stroke-linejoin="round"/>
<path d="M-3.86084 239.16L43.6202 182.025L72.8151 156.765" stroke="#A0A09C" stroke-linecap="round" stroke-linejoin="round"/>
<path d="M110.69 111.63L84.0537 142.605L106.013 166.08L142.114 136.185" stroke="#A0A09C" stroke-linecap="round" stroke-linejoin="round"/>
<path d="M155.895 166.08L117.816 133.185" stroke="#A0A09C" stroke-linecap="round" stroke-linejoin="round"/>
<path d="M95.873 128.865L110.69 146.835L142.114 148.74" stroke="#A0A09C" stroke-linecap="round" stroke-linejoin="round"/>
<path d="M88.2443 104.04L75.2949 116.385L88.2443 128.865L101.539 115.62L88.2443 104.04Z" stroke="#A0A09C" stroke-linecap="round" stroke-linejoin="round"/>
<path d="M-3.86084 72.5696L25.6009 54.6146" stroke="#A0A09C" stroke-linecap="round" stroke-linejoin="round"/>
<path d="M113.076 227.805L72.8151 204.12L29.6191 250.74" stroke="#A0A09C" stroke-linecap="round" stroke-linejoin="round"/>
<path d="M16.4346 214.725L60.8705 254.31" stroke="#A0A09C" stroke-linecap="round" stroke-linejoin="round"/>
<path d="M86.7218 234.525L93.1729 222.18L72.815 204.12L21.0332 164.085" stroke="#A0A09C" stroke-linecap="round" stroke-linejoin="round"/>
<path d="M58.1704 323.34L66.5522 331.95L76.6448 323.34L67.4155 314.805" stroke="#A0A09C" stroke-linecap="round" stroke-linejoin="round"/>
<path d="M63.978 320.91L71.3552 327.855" stroke="#A0A09C" stroke-linecap="round" stroke-linejoin="round"/>
<path d="M67.667 331.005L85.7804 347.25" stroke="#A0A09C" stroke-linecap="round" stroke-linejoin="round"/>
<path d="M74.8711 324.855L89.7354 342.42" stroke="#A0A09C" stroke-linecap="round" stroke-linejoin="round"/>
<path d="M34.3594 333.645L66.5523 362.865" stroke="#A0A09C" stroke-linecap="round" stroke-linejoin="round"/>
<path d="M151.437 331.95L141.329 339.945" stroke="#A0A09C" stroke-linecap="round" stroke-linejoin="round"/>
<path d="M163.617 348.855L152.787 356.97" stroke="#A0A09C" stroke-linecap="round" stroke-linejoin="round"/>
<path d="M135.161 384.195L153.949 413.235" stroke="#A0A09C" stroke-linecap="round" stroke-linejoin="round"/>
<path d="M158.203 375.78L171.733 408.615" stroke="#A0A09C" stroke-linecap="round" stroke-linejoin="round"/>
<path d="M170.116 370.5L186.424 404.715" stroke="#A0A09C" stroke-linecap="round" stroke-linejoin="round"/>
<path d="M165.36 393.12H171.733L178.262 406.89" stroke="#A0A09C" stroke-linecap="round" stroke-linejoin="round"/>
<path d="M100.425 384.195L49.3809 423.45" stroke="#A0A09C" stroke-linecap="round" stroke-linejoin="round"/>
<path d="M88.4487 382.635L94.4447 388.815" stroke="#A0A09C" stroke-linecap="round" stroke-linejoin="round"/>
<path d="M-3.86084 385.725L28.803 400.005L34.2338 406.185L-3.86084 436.59" stroke="#A0A09C" stroke-linecap="round" stroke-linejoin="round"/>
<path d="M0.628174 424.215L18.8515 395.655" stroke="#A0A09C" stroke-linecap="round" stroke-linejoin="round"/>
<path d="M0.628174 506.1H13.5775L18.8515 515.16L138.739 433.53" stroke="#A0A09C" stroke-linecap="round" stroke-linejoin="round"/>
<path d="M148.738 429.915L171.811 421.185" stroke="#A0A09C" stroke-linecap="round" stroke-linejoin="round"/>
<path d="M170.116 409.05L178.262 438.3L208.98 429.915" stroke="#A0A09C" stroke-linecap="round" stroke-linejoin="round"/>
<path d="M213.029 441.255L189.548 448.86" stroke="#A0A09C" stroke-linecap="round" stroke-linejoin="round"/>
<path d="M216.922 452.07L109.842 476.19" stroke="#A0A09C" stroke-linecap="round" stroke-linejoin="round"/>
<path d="M127.407 441.255L165.36 522.21L170.116 538.32L219.873 532.785" stroke="#A0A09C" stroke-linecap="round" stroke-linejoin="round"/>
<path d="M228.757 484.815L186.424 498L178.262 537.405L185.043 580.8" stroke="#A0A09C" stroke-linecap="round" stroke-linejoin="round"/>
<path d="M114.74 572.52L171.811 564.63L241.785 561.615L265.721 574.77L293.629 604.5L414.631 600.09L586.96 606.3H686.348L731.82 611.7L769.036 622.635L795.861 638.205" stroke="#A0A09C" stroke-linecap="round" stroke-linejoin="round"/>
<path d="M170.116 538.32L60.4621 541.32L18.8515 515.16L0.628174 528.24" stroke="#A0A09C" stroke-linecap="round" stroke-linejoin="round"/>
<path d="M0.628174 516.84L111.679 512.145" stroke="#A0A09C" stroke-linecap="round" stroke-linejoin="round"/>
<path d="M72.8779 478.365L99.5615 512.67L100.425 528.24L112.872 539.88" stroke="#A0A09C" stroke-linecap="round" stroke-linejoin="round"/>
<path d="M60.4624 514.5L62.393 577.44" stroke="#A0A09C" stroke-linecap="round" stroke-linejoin="round"/>
<path d="M114.74 576.39L60.4624 541.32L72.8781 530.265L70.8219 514.5" stroke="#A0A09C" stroke-linecap="round" stroke-linejoin="round"/>
<path d="M99.5614 520.53H71.6064" stroke="#A0A09C" stroke-linecap="round" stroke-linejoin="round"/>
<path d="M100.425 528.24L72.8779 530.265" stroke="#A0A09C" stroke-linecap="round" stroke-linejoin="round"/>
<path d="M37.0749 526.62L25.083 542.685L29.2425 547.365" stroke="#A0A09C" stroke-linecap="round" stroke-linejoin="round"/>
<path d="M60.4622 541.32L37.0749 545.445L-3.86084 568.185" stroke="#A0A09C" stroke-linecap="round" stroke-linejoin="round"/>
<path d="M46.0218 578.31L45.9434 558.12" stroke="#A0A09C" stroke-linecap="round" stroke-linejoin="round"/>
<path d="M63.9312 440.07L45.9434 448.86" stroke="#A0A09C" stroke-linecap="round" stroke-linejoin="round"/>
<path d="M72.8778 450.3L47.293 463.185" stroke="#A0A09C" stroke-linecap="round" stroke-linejoin="round"/>
<path d="M81.2594 459.87L62.3926 472.53" stroke="#A0A09C" stroke-linecap="round" stroke-linejoin="round"/>
<path d="M54.937 490.59V507.78" stroke="#A0A09C" stroke-linecap="round" stroke-linejoin="round"/>
<path d="M163.382 470.67L222.494 467.535" stroke="#A0A09C" stroke-linecap="round" stroke-linejoin="round"/>
<path d="M210.581 562.965V551.745L310.707 368.475" stroke="#A0A09C" stroke-linecap="round" stroke-linejoin="round"/>
<path d="M180.617 552.435L210.581 551.745" stroke="#A0A09C" stroke-linecap="round" stroke-linejoin="round"/>
<path d="M223.42 528.24L243.088 523.755" stroke="#A0A09C" stroke-linecap="round" stroke-linejoin="round"/>
<path d="M263.87 454.215L223.42 394.62L315.071 463.185L261.39 474.345" stroke="#A0A09C" stroke-linecap="round" stroke-linejoin="round"/>
<path d="M265.721 382.53L275.249 433.38" stroke="#A0A09C" stroke-linecap="round" stroke-linejoin="round"/>
<path d="M296.769 393.975L269.395 402.165" stroke="#A0A09C" stroke-linecap="round" stroke-linejoin="round"/>
<path d="M316.875 433.38L284.18 440.07" stroke="#A0A09C" stroke-linecap="round" stroke-linejoin="round"/>
<path d="M315.965 441.255L347.122 440.07" stroke="#A0A09C" stroke-linecap="round" stroke-linejoin="round"/>
<path d="M354.782 461.85L315.07 463.185" stroke="#A0A09C" stroke-linecap="round" stroke-linejoin="round"/>
<path d="M314.333 484.815L360.762 478.365" stroke="#A0A09C" stroke-linecap="round" stroke-linejoin="round"/>
<path d="M313.61 507.54L369.144 501.255" stroke="#A0A09C" stroke-linecap="round" stroke-linejoin="round"/>
<path d="M328.616 563.49L318.774 526.62L320.014 510.465" stroke="#A0A09C" stroke-linecap="round" stroke-linejoin="round"/>
<path d="M144.547 442.965L156.523 438.3" stroke="#A0A09C" stroke-linecap="round" stroke-linejoin="round"/>
<path d="M160.274 566.22L165.344 596.295" stroke="#A0A09C" stroke-linecap="round" stroke-linejoin="round"/>
<path d="M178.262 572.37L161.718 574.77" stroke="#A0A09C" stroke-linecap="round" stroke-linejoin="round"/>
<path d="M122.494 577.365L146.211 601.65L153.949 625.35L162.817 666.87L214.819 692.37L239.995 699.645" stroke="#A0A09C" stroke-linecap="round" stroke-linejoin="round"/>
<path d="M231.708 682.11H219.873L178.262 661.5H161.718" stroke="#A0A09C" stroke-linecap="round" stroke-linejoin="round"/>
<path d="M162.817 666.87L152.662 675.615L121.835 680.505L102.795 690.105L75.1069 724.875" stroke="#A0A09C" stroke-linecap="round" stroke-linejoin="round"/>
<path d="M178.262 661.5L182.893 620.82L181.244 591.735" stroke="#A0A09C" stroke-linecap="round" stroke-linejoin="round"/>
<path d="M234.251 614.265L182.438 612.735" stroke="#A0A09C" stroke-linecap="round" stroke-linejoin="round"/>
<path d="M145.253 697.74L157.574 680.505" stroke="#A0A09C" stroke-linecap="round" stroke-linejoin="round"/>
<path d="M152.662 675.615L184.415 694.23" stroke="#A0A09C" stroke-linecap="round" stroke-linejoin="round"/>
<path d="M190.631 680.505L173.647 717.99" stroke="#A0A09C" stroke-linecap="round" stroke-linejoin="round"/>
<path d="M195.591 730.56L224.692 666.87" stroke="#A0A09C" stroke-linecap="round" stroke-linejoin="round"/>
<path d="M149.491 699.645L122.494 752.115" stroke="#A0A09C" stroke-linecap="round" stroke-linejoin="round"/>
<path d="M154.059 765.87C154.059 765.87 140.372 750.09 118.946 753.12C97.5209 756.15 95.9042 742.515 95.9042 742.515L92.8749 732.915L-3.86084 689.115" stroke="#A0A09C" stroke-linecap="round" stroke-linejoin="round"/>
<path d="M19.6835 727.5L31.0789 704.94L58.1862 652.71L-3.86084 682.11" stroke="#A0A09C" stroke-linecap="round" stroke-linejoin="round"/>
<path d="M41.7367 631.755L16.042 600.75L89.6572 586.65" stroke="#A0A09C" stroke-linecap="round" stroke-linejoin="round"/>
<path d="M65.5636 701.505L47.1362 674.01" stroke="#A0A09C" stroke-linecap="round" stroke-linejoin="round"/>
<path d="M257.669 575.925L260.652 602.52L237.405 694.23L223.42 741.405L210.141 771.615" stroke="#A0A09C" stroke-linecap="round" stroke-linejoin="round"/>
<path d="M292.798 768.9L282.108 724.335" stroke="#A0A09C" stroke-linecap="round" stroke-linejoin="round"/>
<path d="M265.721 768.9L285.357 737.865" stroke="#A0A09C" stroke-linecap="round" stroke-linejoin="round"/>
<path d="M334.031 717.99L312.81 753.374" stroke="#A0A09C" stroke-linecap="round" stroke-linejoin="round"/>
<path d="M338.913 631.755L303.8 635.07L294.618 721.185" stroke="#A0A09C" stroke-linecap="round" stroke-linejoin="round"/>
<path d="M306.139 718.29L325.775 632.985" stroke="#A0A09C" stroke-linecap="round" stroke-linejoin="round"/>
<path d="M332.195 711.78L337.861 630.945" stroke="#A0A09C" stroke-linecap="round" stroke-linejoin="round"/>
<path d="M367.386 653.565L336.37 650.295" stroke="#A0A09C" stroke-linecap="round" stroke-linejoin="round"/>
<path d="M355.849 739.5L376.976 710.325" stroke="#A0A09C" stroke-linecap="round" stroke-linejoin="round"/>
<path d="M415.699 734.175L393.536 771.615" stroke="#A0A09C" stroke-linecap="round" stroke-linejoin="round"/>
<path d="M424.41 746.61L407.945 771.615" stroke="#A0A09C" stroke-linecap="round" stroke-linejoin="round"/>
<path d="M260.651 643.965L293.629 657.12" stroke="#A0A09C" stroke-linecap="round" stroke-linejoin="round"/>
<path d="M620.424 606.3L624.49 555.525L687.557 561.615" stroke="#A0A09C" stroke-linecap="round" stroke-linejoin="round"/>
<path d="M644.392 548.22L640.123 606.3L629.418 663.78L600.977 659.865" stroke="#A0A09C" stroke-linecap="round" stroke-linejoin="round"/>
<path d="M795.861 593.175L740.092 572.88L687.557 561.615L663.055 541.44L656.949 558.66" stroke="#A0A09C" stroke-linecap="round" stroke-linejoin="round"/>
<path d="M769.036 622.635L782.691 588.39" stroke="#A0A09C" stroke-linecap="round" stroke-linejoin="round"/>
<path d="M646.354 684.645L653.747 652.365L686.066 648.9L723.14 656.07L795.861 673.23" stroke="#A0A09C" stroke-linecap="round" stroke-linejoin="round"/>
<path d="M795.861 684.645L771.233 682.365L685.375 659.865L626.263 647.265" stroke="#A0A09C" stroke-linecap="round" stroke-linejoin="round"/>
<path d="M638.177 664.92L640.327 650.265" stroke="#A0A09C" stroke-linecap="round" stroke-linejoin="round"/>
<path d="M555.771 625.425L597.884 630H666.147V606" stroke="#A0A09C" stroke-linecap="round" stroke-linejoin="round"/>
<path d="M715.025 357.675L716.265 377.295L719.907 439.47L715.088 451.56L711.148 470.85L707.256 516.495L703.033 527.01L687.557 561.615L686.348 606.3L685.375 659.865L683.601 694.905L682.346 751.44" stroke="#A0A09C" stroke-linecap="round" stroke-linejoin="round"/>
<path d="M729.45 625.185L686.066 621.465" stroke="#A0A09C" stroke-linecap="round" stroke-linejoin="round"/>
<path d="M795.861 652.365L757.358 637.035L744.44 661.095" stroke="#A0A09C" stroke-linecap="round" stroke-linejoin="round"/>
<path d="M666.147 651.03V630L685.878 632.175" stroke="#A0A09C" stroke-linecap="round" stroke-linejoin="round"/>
<path d="M597.885 630L631.616 606L628.932 630" stroke="#A0A09C" stroke-linecap="round" stroke-linejoin="round"/>
<path d="M670.464 538.77H697.775" stroke="#A0A09C" stroke-linecap="round" stroke-linejoin="round"/>
<path d="M696.582 541.44L741.944 554.04" stroke="#A0A09C" stroke-linecap="round" stroke-linejoin="round"/>
<path d="M743.655 544.29L764.17 548.22" stroke="#A0A09C" stroke-linecap="round" stroke-linejoin="round"/>
<path d="M761.015 530.355L757.845 546.255" stroke="#A0A09C" stroke-linecap="round" stroke-linejoin="round"/>
<path d="M795.861 521.28L749.18 512.85" stroke="#A0A09C" stroke-linecap="round" stroke-linejoin="round"/>
<path d="M794.574 536.865L733.767 525.465L672.724 509.895L635.603 496.125" stroke="#A0A09C" stroke-linecap="round" stroke-linejoin="round"/>
<path d="M797.006 404.595L736.623 398.355" stroke="#A0A09C" stroke-linecap="round" stroke-linejoin="round"/>
<path d="M762.396 440.25L769.774 401.79" stroke="#A0A09C" stroke-linecap="round" stroke-linejoin="round"/>
<path d="M746.449 414.585L731.773 489.675L750.091 507.615L729.45 625.185L713.44 703.41" stroke="#A0A09C" stroke-linecap="round" stroke-linejoin="round"/>
<path d="M716.972 389.475H663.966L659.1 430.635L651.063 459.915L638.428 484.785L627.237 521.28L622.7 541.44L609.657 561" stroke="#A0A09C" stroke-linecap="round" stroke-linejoin="round"/>
<path d="M574.246 574.14L589.283 541.44" stroke="#A0A09C" stroke-linecap="round" stroke-linejoin="round"/>
<path d="M536.387 541.44H622.7H663.055" stroke="#A0A09C" stroke-linecap="round" stroke-linejoin="round"/>
<path d="M627.236 521.28L647.186 527.325L653.025 541.44" stroke="#A0A09C" stroke-linecap="round" stroke-linejoin="round"/>
<path d="M675.754 536.865L666.147 519.66L697.775 469.635" stroke="#A0A09C" stroke-linecap="round" stroke-linejoin="round"/>
<path d="M647.186 527.325L666.147 519.66" stroke="#A0A09C" stroke-linecap="round" stroke-linejoin="round"/>
<path d="M666.147 507.465L674.153 479.145" stroke="#A0A09C" stroke-linecap="round" stroke-linejoin="round"/>
<path d="M650.639 489.045L550.309 454.575L525.18 530.355" stroke="#A0A09C" stroke-linecap="round" stroke-linejoin="round"/>
<path d="M577.244 532.785L528.193 521.28" stroke="#A0A09C" stroke-linecap="round" stroke-linejoin="round"/>
<path d="M589.283 524.145L532.321 508.8" stroke="#A0A09C" stroke-linecap="round" stroke-linejoin="round"/>
<path d="M592.94 496.125L541.174 482.115L491.056 468.48" stroke="#A0A09C" stroke-linecap="round" stroke-linejoin="round"/>
<path d="M583.413 528.285L587.902 512.85L622.7 414.465L630.234 412.275L644.392 457.905" stroke="#A0A09C" stroke-linecap="round" stroke-linejoin="round"/>
<path d="M705.325 466.56L651.063 459.915L610.897 447.825L550.309 442.365L477.197 421.56L431.74 394.62L340.216 352.215" stroke="#A0A09C" stroke-linecap="round" stroke-linejoin="round"/>
<path d="M329.197 382.53L357.01 373.755L365.157 363.765" stroke="#A0A09C" stroke-linecap="round" stroke-linejoin="round"/>
<path d="M384.84 345.105L369.756 365.895" stroke="#A0A09C" stroke-linecap="round" stroke-linejoin="round"/>
<path d="M336.527 404.13L348.974 394.62L375.312 368.475L411.539 356.295" stroke="#A0A09C" stroke-linecap="round" stroke-linejoin="round"/>
<path d="M357.011 373.755L365.157 379.365L399.39 396.375" stroke="#A0A09C" stroke-linecap="round" stroke-linejoin="round"/>
<path d="M347.169 395.985L396.455 412.275" stroke="#A0A09C" stroke-linecap="round" stroke-linejoin="round"/>
<path d="M352.631 455.82L393.818 448.305" stroke="#A0A09C" stroke-linecap="round" stroke-linejoin="round"/>
<path d="M343.261 428.28L382.234 415.995L459.02 442.365" stroke="#A0A09C" stroke-linecap="round" stroke-linejoin="round"/>
<path d="M418.053 459.87L427.22 425.28" stroke="#A0A09C" stroke-linecap="round" stroke-linejoin="round"/>
<path d="M418.053 428.295L422.637 417.615" stroke="#A0A09C" stroke-linecap="round" stroke-linejoin="round"/>
<path d="M401.148 508.8L414.176 489.12L471.232 427.14L502.53 392.43" stroke="#A0A09C" stroke-linecap="round" stroke-linejoin="round"/>
<path d="M442.304 532.815L447.735 484.815L462.316 447.36L468.344 430.29" stroke="#A0A09C" stroke-linecap="round" stroke-linejoin="round"/>
<path d="M445.443 502.455H438.27V510.465" stroke="#A0A09C" stroke-linecap="round" stroke-linejoin="round"/>
<path d="M502.53 501.255L493.677 535.695L495.655 603" stroke="#A0A09C" stroke-linecap="round" stroke-linejoin="round"/>
<path d="M412.261 591.36L373.225 590.235L407.945 574.14L539.777 580.8" stroke="#A0A09C" stroke-linecap="round" stroke-linejoin="round"/>
<path d="M500.16 510.465L468.344 497.19L464.483 535.305L460.26 576.78L462.772 641.49L451.831 682.875L453.652 711.78L434.424 768.9" stroke="#A0A09C" stroke-linecap="round" stroke-linejoin="round"/>
<path d="M447.954 765.405L453.354 756.54L462.975 759.12L459.067 768.9" stroke="#A0A09C" stroke-linecap="round" stroke-linejoin="round"/>
<path d="M472.597 677.865L474.088 719.46L457.278 757.589" stroke="#A0A09C" stroke-linecap="round" stroke-linejoin="round"/>
<path d="M467.292 754.74L474.088 739.5L472.786 722.43" stroke="#A0A09C" stroke-linecap="round" stroke-linejoin="round"/>
<path d="M443.936 740.67L437.485 708.405L473.586 705.195" stroke="#A0A09C" stroke-linecap="round" stroke-linejoin="round"/>
<path d="M440.703 724.335L425.713 739.26" stroke="#A0A09C" stroke-linecap="round" stroke-linejoin="round"/>
<path d="M485.202 750.765L512.183 754.74L536.764 763.275" stroke="#A0A09C" stroke-linecap="round" stroke-linejoin="round"/>
<path d="M567.81 745.41L562.27 763.29" stroke="#A0A09C" stroke-linecap="round" stroke-linejoin="round"/>
<path d="M574.246 768.9L597.649 690.465" stroke="#A0A09C" stroke-linecap="round" stroke-linejoin="round"/>
<path d="M553.904 713.865L587.541 724.335" stroke="#A0A09C" stroke-linecap="round" stroke-linejoin="round"/>
<path d="M528.194 713.25L536.764 715.74L593.254 705.195L533.954 697.74L510.708 690.465" stroke="#A0A09C" stroke-linecap="round" stroke-linejoin="round"/>
<path d="M537.533 687.87L513.784 679.845" stroke="#A0A09C" stroke-linecap="round" stroke-linejoin="round"/>
<path d="M505.481 669.915L492.438 703.11L505.481 705.195L518.038 666.885" stroke="#A0A09C" stroke-linecap="round" stroke-linejoin="round"/>
<path d="M470.683 643.035L489.534 673.77L500.16 648.81L510.708 603.54L522.778 556.62" stroke="#A0A09C" stroke-linecap="round" stroke-linejoin="round"/>
<path d="M516.154 556.62L522.778 532.8" stroke="#A0A09C" stroke-linecap="round" stroke-linejoin="round"/>
<path d="M528.193 557.79L533.875 538.77" stroke="#A0A09C" stroke-linecap="round" stroke-linejoin="round"/>
<path d="M479.645 609.84L477.636 626.609L503.833 633.045" stroke="#A0A09C" stroke-linecap="round" stroke-linejoin="round"/>
<path d="M506.25 622.68L553.072 637.89" stroke="#A0A09C" stroke-linecap="round" stroke-linejoin="round"/>
<path d="M531.034 655.215L541.174 604.65L537.642 587.85" stroke="#A0A09C" stroke-linecap="round" stroke-linejoin="round"/>
<path d="M434.424 600.795V621.435H445.443V601.2" stroke="#A0A09C" stroke-linecap="round" stroke-linejoin="round"/>
<path d="M385.609 551.745L393.536 582.75L389.737 603V626.865L366.052 703.605L421.695 737.865" stroke="#A0A09C" stroke-linecap="round" stroke-linejoin="round"/>
<path d="M362.896 601.98V622.68" stroke="#A0A09C" stroke-linecap="round" stroke-linejoin="round"/>
<path d="M431.913 663.765L389.235 628.485" stroke="#A0A09C" stroke-linecap="round" stroke-linejoin="round"/>
<path d="M651.471 686.04L635.461 725.775L599.281 713.865" stroke="#A0A09C" stroke-linecap="round" stroke-linejoin="round"/>
<path d="M597.885 686.16L645.523 700.8" stroke="#A0A09C" stroke-linecap="round" stroke-linejoin="round"/>
<path d="M664.609 689.625L648.678 730.755L638.177 768.9" stroke="#A0A09C" stroke-linecap="round" stroke-linejoin="round"/>
<path d="M602.907 731.805L644.22 746.94" stroke="#A0A09C" stroke-linecap="round" stroke-linejoin="round"/>
<path d="M605.277 740.67L642.179 754.35" stroke="#A0A09C" stroke-linecap="round" stroke-linejoin="round"/>
<path d="M675.785 754.35L663.306 736.41" stroke="#A0A09C" stroke-linecap="round" stroke-linejoin="round"/>
<path d="M648.677 730.755L682.346 741.87" stroke="#A0A09C" stroke-linecap="round" stroke-linejoin="round"/>
<path d="M716.438 750.765L760.168 771.615" stroke="#A0A09C" stroke-linecap="round" stroke-linejoin="round"/>
<path d="M750.09 771.615L763.966 727.5L795.86 739.365" stroke="#A0A09C" stroke-linecap="round" stroke-linejoin="round"/>
<path d="M682.346 731.79L716.972 729.69L754.219 715.74" stroke="#A0A09C" stroke-linecap="round" stroke-linejoin="round"/>
<path d="M738.303 710.805L763.778 680.415" stroke="#A0A09C" stroke-linecap="round" stroke-linejoin="round"/>
<path d="M770.15 711.99L782.692 683.43" stroke="#A0A09C" stroke-linecap="round" stroke-linejoin="round"/>
<path d="M733.123 689.625V709.23" stroke="#A0A09C" stroke-linecap="round" stroke-linejoin="round"/>
<path d="M718.274 704.82L716.972 729.69" stroke="#A0A09C" stroke-linecap="round" stroke-linejoin="round"/>
<path d="M704.383 700.8V730.755" stroke="#A0A09C" stroke-linecap="round" stroke-linejoin="round"/>
<path d="M698.874 697.71L696.582 730.935" stroke="#A0A09C" stroke-linecap="round" stroke-linejoin="round"/>
<path d="M690.46 697.71V731.31" stroke="#A0A09C" stroke-linecap="round" stroke-linejoin="round"/>
<path d="M684.449 705.9L710.317 715.77L750.311 714.51" stroke="#A0A09C" stroke-linecap="round" stroke-linejoin="round"/>
<path d="M795.861 747.51L760.701 737.865" stroke="#A0A09C" stroke-linecap="round" stroke-linejoin="round"/>
<path d="M536.763 715.74L535.947 737.865L422.558 740.67" stroke="#A0A09C" stroke-linecap="round" stroke-linejoin="round"/>
<path d="M525.98 719.1L549.775 725.775" stroke="#A0A09C" stroke-linecap="round" stroke-linejoin="round"/>
<path d="M277.996 587.85H309.09" stroke="#A0A09C" stroke-linecap="round" stroke-linejoin="round"/>
<path d="M455.332 373.755L443.826 401.79L494.368 401.475L506.721 429.18L486.63 479.565L437.03 465.72L393.85 452.055" stroke="#A0A09C" stroke-linecap="round" stroke-linejoin="round"/>
<path d="M545.695 468.48L497.602 452.055" stroke="#A0A09C" stroke-linecap="round" stroke-linejoin="round"/>
<path d="M550.31 454.575L552.711 442.365" stroke="#A0A09C" stroke-linecap="round" stroke-linejoin="round"/>
<path d="M551.518 400.185L560.81 424.245" stroke="#A0A09C" stroke-linecap="round" stroke-linejoin="round"/>
<path d="M662.223 403.005L550.31 435.435" stroke="#A0A09C" stroke-linecap="round" stroke-linejoin="round"/>
<path d="M558.424 433.08L566.947 406.155L563.573 396.375" stroke="#A0A09C" stroke-linecap="round" stroke-linejoin="round"/>
<path d="M562.803 419.22L586.175 414.585" stroke="#A0A09C" stroke-linecap="round" stroke-linejoin="round"/>
<path d="M580.179 401.475L566.947 406.155" stroke="#A0A09C" stroke-linecap="round" stroke-linejoin="round"/>
<path d="M496.738 398.85L511.869 409.38V422.955L506.721 429.18" stroke="#A0A09C" stroke-linecap="round" stroke-linejoin="round"/>
<path d="M516.154 432.645L519.466 422.955L551 430.29" stroke="#A0A09C" stroke-linecap="round" stroke-linejoin="round"/>
<path d="M544.973 414.585L519.466 408.45V397.845" stroke="#A0A09C" stroke-linecap="round" stroke-linejoin="round"/>
<path d="M562.678 471.63L569.725 484.815L594.133 469.635" stroke="#A0A09C" stroke-linecap="round" stroke-linejoin="round"/>
<path d="M562.678 499.485L552.711 541.44" stroke="#A0A09C" stroke-linecap="round" stroke-linejoin="round"/>
<path d="M620.424 460.26L636.795 466.56" stroke="#A0A09C" stroke-linecap="round" stroke-linejoin="round"/>
<path d="M635.603 455.265L631.835 464.655" stroke="#A0A09C" stroke-linecap="round" stroke-linejoin="round"/>
<path d="M659.1 430.635L719.907 439.47" stroke="#A0A09C" stroke-linecap="round" stroke-linejoin="round"/>
<path d="M676.334 463.41L682.346 434.01" stroke="#A0A09C" stroke-linecap="round" stroke-linejoin="round"/>
<path d="M653.982 446.625L678.39 453.315" stroke="#A0A09C" stroke-linecap="round" stroke-linejoin="round"/>
<path d="M715.088 462.54L747.626 468.48L759.43 465.51L763.652 442.245" stroke="#A0A09C" stroke-linecap="round" stroke-linejoin="round"/>
<path d="M786.678 447.585L777.292 473.07L759.43 465.51" stroke="#A0A09C" stroke-linecap="round" stroke-linejoin="round"/>
<path d="M625.165 377.58L633.719 406.155L653.998 382.035L663.856 383.13L666.194 367.2" stroke="#A0A09C" stroke-linecap="round" stroke-linejoin="round"/>
<path d="M393.818 435.435L422.637 442.365" stroke="#A0A09C" stroke-linecap="round" stroke-linejoin="round"/>
<path d="M378.295 450.855L375.501 432.645" stroke="#A0A09C" stroke-linecap="round" stroke-linejoin="round"/>
<path d="M384.84 436.725L366.978 438.3" stroke="#A0A09C" stroke-linecap="round" stroke-linejoin="round"/>
<path d="M450.23 449.97L432.18 448.305" stroke="#A0A09C" stroke-linecap="round" stroke-linejoin="round"/>
<path d="M375.501 516.48C375.501 516.48 382.58 513.585 384.84 516.48C384.84 516.48 387.414 508.08 396 512.385C396 512.385 397.35 510.465 402.734 510.465H444.831" stroke="#A0A09C" stroke-linecap="round" stroke-linejoin="round"/>
<path d="M382.234 535.365L407.678 527.325" stroke="#A0A09C" stroke-linecap="round" stroke-linejoin="round"/>
<path d="M384.84 516.48L390.318 532.8" stroke="#A0A09C" stroke-linecap="round" stroke-linejoin="round"/>
<path d="M396 512.37L401.148 529.395" stroke="#A0A09C" stroke-linecap="round" stroke-linejoin="round"/>
<path d="M405.669 282.675L392.499 295.275L336.527 239.775C336.527 239.775 333.388 235.455 340.2 229.77C347.012 224.085 351.061 228.96 351.061 228.96L405.669 282.675Z" stroke="#A0A09C" stroke-linecap="round" stroke-linejoin="round"/>
<path d="M336.527 239.82L323.437 239.4" stroke="#A0A09C" stroke-linecap="round" stroke-linejoin="round"/>
<path d="M350.042 228.12L351.062 196.74" stroke="#A0A09C" stroke-linecap="round" stroke-linejoin="round"/>
<path d="M380.932 214.065L340.592 252.27" stroke="#A0A09C" stroke-linecap="round" stroke-linejoin="round"/>
<path d="M383.522 306.84L345.929 272.16L373.241 246.255C377.027 243.697 381.046 241.468 385.248 239.595C389.957 237.795 396.126 236.97 395.168 231.915C394.211 226.86 378.656 216.21 378.656 216.21" stroke="#A0A09C" stroke-linecap="round" stroke-linejoin="round"/>
<path d="M364.027 255L393.253 282.675L386.881 289.695" stroke="#A0A09C" stroke-linecap="round" stroke-linejoin="round"/>
<path d="M383.773 261.165L370.729 273.69" stroke="#A0A09C" stroke-linecap="round" stroke-linejoin="round"/>
<path d="M387.147 302.01L351.062 267.555" stroke="#A0A09C" stroke-linecap="round" stroke-linejoin="round"/>
<path d="M350.042 261.525L328.616 239.4L351.062 201.195L375.595 219.105L401.431 279.33L388.874 291.675" stroke="#A0A09C" stroke-linecap="round" stroke-linejoin="round"/>
<path d="M380.931 309.48L355.817 285.96" stroke="#A0A09C" stroke-linecap="round" stroke-linejoin="round"/>
<path d="M397.052 269.145L402.075 267.555L399.563 255" stroke="#A0A09C" stroke-linecap="round" stroke-linejoin="round"/>
<path d="M-3.86084 2.86459C-3.86084 2.86459 53.4303 69.6146 88.7467 95.1146C124.063 120.615 247.278 219.615 258.266 233.115C269.253 246.615 286.519 256.365 291.228 264.615C295.937 272.865 336.747 408.615 345.38 434.865C354.013 461.115 380.696 532.365 380.696 532.365C380.696 532.365 388.544 550.365 400.316 547.365C400.316 547.365 414.443 546.615 405.779 520.365C397.114 494.115 381.167 434.475 411.539 356.295C411.539 356.295 453.354 437.865 466.476 452.865C479.598 467.865 517.253 524.865 527.456 532.365C537.658 539.865 543.937 554.115 552.569 563.865C561.202 573.615 563.557 586.365 579.253 598.365C594.949 610.365 605.937 641.115 598.873 678.615C591.81 716.115 616.139 771.615 616.139 771.615" stroke="#686866" stroke-width="3" stroke-linecap="round" stroke-linejoin="round"/>
<path d="M662.223 56.8646C662.223 56.8646 655.38 90.6146 642.823 110.865C630.266 131.115 613.22 182.43 612.325 207.39" stroke="#686866" stroke-width="3" stroke-linecap="round" stroke-linejoin="round"/>
<path d="M368.939 103.41L415.29 281.115C415.29 281.115 411.303 251.865 421.569 233.865C431.834 215.865 455.206 153.735 455.206 153.735" stroke="#686866" stroke-width="3" stroke-linecap="round" stroke-linejoin="round"/>
<path d="M291.228 264.615L346.949 6.61459" stroke="#686866" stroke-width="3" stroke-linecap="round" stroke-linejoin="round"/>
<path d="M267.684 6.61459C267.684 6.61459 276.944 62.8646 357.858 48.6146C438.772 34.3646 572.975 6.61459 572.975 6.61459" stroke="#686866" stroke-width="3" stroke-linecap="round" stroke-linejoin="round"/>
<path d="M519.262 17.5496L500.505 60.6746" stroke="#686866" stroke-width="3" stroke-linecap="round" stroke-linejoin="round"/>
<path d="M241.785 6.61459C241.785 6.61459 168.389 171.42 84.0537 262.275" stroke="#686866" stroke-width="3" stroke-linecap="round" stroke-linejoin="round"/>
<path d="M-3.86084 362.865C-3.86084 362.865 180.57 572.115 186.848 583.365C193.127 594.615 250.418 729.18 257.481 730.515C264.544 731.85 290.176 693.615 290.176 693.615" stroke="#686866" stroke-width="3" stroke-linecap="round" stroke-linejoin="round"/>
<path d="M246.588 712.965C246.588 712.965 262.645 679.365 274.182 685.365C285.719 691.365 322.306 704.055 345.615 728.46C358.779 742.058 370.986 756.475 382.156 771.615" stroke="#686866" stroke-width="3" stroke-linecap="round" stroke-linejoin="round"/>
<path d="M547.076 659.865L327.235 712.98L257.481 730.53L239.995 771.615" stroke="#686866" stroke-width="3" stroke-linecap="round" stroke-linejoin="round"/>
<path d="M451.831 682.875L418.524 727.5" stroke="#686866" stroke-width="3" stroke-linecap="round" stroke-linejoin="round"/>
<path d="M-3.86084 581.865C-3.86084 581.865 91.886 573.615 122.494 577.365C153.101 581.115 477.228 644.115 518.038 652.365C558.848 660.615 757.405 712.365 795.861 730.74" stroke="#686866" stroke-width="3" stroke-linecap="round" stroke-linejoin="round"/>
<path d="M-3.86084 653.565C-3.86084 653.565 28.3164 635.115 55.7847 626.865C83.2531 618.615 166.631 596.475 189.689 589.17C212.747 581.865 257.528 575.865 284.981 572.115C312.433 568.365 386.19 549.615 400.316 547.365C400.316 547.365 407.96 547.515 408.165 539.265C408.165 539.265 426.498 528.615 460.119 534.615C493.74 540.615 518.509 528.315 531.631 535.965" stroke="#686866" stroke-width="3" stroke-linecap="round" stroke-linejoin="round"/>
<path d="M407.945 684.645L314.097 612.72C314.097 612.72 304.962 580.785 309.859 566.7C314.757 552.615 313.14 410.865 322.981 362.865" stroke="#686866" stroke-width="3" stroke-linecap="round" stroke-linejoin="round"/>
<path d="M130.342 419.115C130.342 419.115 155.456 464.865 181.354 492.615C207.253 520.365 238.646 549.615 241.785 561.615C244.924 573.615 223.169 663.51 223.169 663.51L269.253 684.645" stroke="#686866" stroke-width="3" stroke-linecap="round" stroke-linejoin="round"/>
<path d="M-3.86084 623.865C-3.86084 623.865 31.4556 637.365 53.4303 650.115C75.405 662.865 118.57 675.615 131.911 686.865C145.253 698.115 175.861 722.865 201.759 732.615C227.658 742.365 268.468 761.115 279.456 771.615" stroke="#686866" stroke-width="3" stroke-linecap="round" stroke-linejoin="round"/>
<path d="M76.9746 771.615C76.9746 771.615 119.59 712.395 121.834 680.505C124.079 648.615 113.861 578.295 113.076 546.705C112.291 515.115 106.923 424.275 106.923 424.275" stroke="#686866" stroke-width="3" stroke-linecap="round" stroke-linejoin="round"/>
<path d="M562.27 578.61C562.27 578.61 559.633 620.115 547.076 659.865C534.519 699.615 505.481 771.615 505.481 771.615" stroke="#686866" stroke-width="3" stroke-linecap="round" stroke-linejoin="round"/>
<path d="M570.887 664.92L533.875 771.615" stroke="#686866" stroke-width="3" stroke-linecap="round" stroke-linejoin="round"/>
<path d="M641.253 771.615C641.253 771.615 691.481 746.865 710.316 737.865" stroke="#686866" stroke-width="3" stroke-linecap="round" stroke-linejoin="round"/>
<path d="M671.468 771.615C671.468 771.615 737.204 741.9 773.996 722.25" stroke="#686866" stroke-width="3" stroke-linecap="round" stroke-linejoin="round"/>
<path d="M610.708 757.59L410.691 700.8" stroke="#686866" stroke-width="3" stroke-linecap="round" stroke-linejoin="round"/>
<path d="M491.731 673.275C491.731 673.275 498.449 717.66 477.604 771.66" stroke="#686866" stroke-width="3" stroke-linecap="round" stroke-linejoin="round"/>
<path d="M370.478 756.54L408.981 694.23" stroke="#686866" stroke-width="3" stroke-linecap="round" stroke-linejoin="round"/>
<path d="M314.097 612.735L279.456 687.87" stroke="#686866" stroke-width="3" stroke-linecap="round" stroke-linejoin="round"/>
<path d="M63.9312 655.53C63.9312 655.53 149.428 616.53 203.847 620.535C258.266 624.54 306.139 629.97 306.139 629.97" stroke="#686866" stroke-width="3" stroke-linecap="round" stroke-linejoin="round"/>
<path d="M-3.86084 737.865C-3.86084 737.865 59.7088 712.08 73.0505 694.215C86.3923 676.35 97.8191 649.665 95.6374 636.39C93.4556 623.115 88.7467 590.4 89.5316 576.39" stroke="#686866" stroke-width="3" stroke-linecap="round" stroke-linejoin="round"/>
<path d="M437.579 684.645L400.316 547.365L604.728 562.815" stroke="#686866" stroke-width="3" stroke-linecap="round" stroke-linejoin="round"/>
<path d="M518.038 652.365L547.076 556.785C547.076 556.785 592.485 516.615 641.253 493.365C690.021 470.115 781.797 443.115 795.924 410.865" stroke="#686866" stroke-width="3" stroke-linecap="round" stroke-linejoin="round"/>
<path d="M-3.86084 301.365C-3.86084 301.365 57.3543 275.865 84.0379 262.365" stroke="#686866" stroke-width="3" stroke-linecap="round" stroke-linejoin="round"/>
<path d="M795.861 482.115C795.861 482.115 770.747 503.115 688.342 532.365C605.937 561.615 439.337 624.615 426.89 630.615C414.443 636.615 404.649 676.17 408.981 694.215C413.313 712.26 432.274 771.615 432.274 771.615" stroke="white" stroke-width="3" stroke-linecap="round" stroke-linejoin="round"/>
<path d="M-3.86084 254.115C-3.86084 254.115 73.8354 234.615 118.57 289.365C147.504 325.231 174.303 362.625 198.84 401.37C198.84 401.37 243.386 527.115 254.373 552.615C265.36 578.115 280.272 590.865 271.639 610.365C263.006 629.865 252.803 675.615 252.803 675.615" stroke="white" stroke-width="3" stroke-linecap="round" stroke-linejoin="round"/>
<path d="M-3.86084 379.365C-3.86084 379.365 100.519 410.865 131.911 422.865C163.304 434.865 249.303 478.365 274.182 489.615C299.06 500.865 400.316 547.365 400.316 547.365L437.987 686.205L451.784 682.875L418.587 727.5" stroke="white" stroke-width="3" stroke-linecap="round" stroke-linejoin="round"/>
<path d="M357.858 337.08C357.858 337.08 407.505 293.115 415.291 281.115C423.076 269.115 441.974 212.115 459.962 209.865C477.95 207.615 587.886 197.865 600.443 202.365C613 206.865 673.431 236.865 689.127 238.365C704.823 239.865 776.241 236.865 795.861 233.865" stroke="white" stroke-width="3" stroke-linecap="round" stroke-linejoin="round"/>
<path d="M-3.86084 442.365C-3.86084 442.365 80.1138 431.115 130.342 419.115C180.57 407.115 311.539 371.115 326.544 362.115C341.55 353.115 350.779 335.865 361.829 336.615C372.879 337.365 521.224 407.865 545.553 401.865C569.883 395.865 679.756 352.365 795.908 350.115" stroke="#D8D8D6" stroke-width="4" stroke-linecap="round" stroke-linejoin="round"/>
<path d="M-3.86084 128.865C-3.86084 128.865 65.2025 87.6146 104.443 67.3646C143.683 47.1146 215.886 2.86459 215.886 2.86459" stroke="#D8D8D6" stroke-width="4" stroke-linecap="round" stroke-linejoin="round"/>
<path d="M655.38 46.1396C655.38 46.1396 584.747 47.8646 558.848 46.3646C532.949 44.8646 521.177 51.6146 506.266 58.3646C491.354 65.1146 389.329 97.3646 344.595 110.865C299.861 124.365 179.157 165.81 179.157 165.81L74.3847 83.6096L4.20703 13.2746" stroke="#D8D8D6" stroke-width="4" stroke-linecap="round" stroke-linejoin="round"/>
<path d="M631.835 6.61459C631.835 6.61459 711.886 137.115 715.025 152.115C718.165 167.115 711.886 341.985 715.025 357.615C718.165 373.245 795.861 492.615 795.861 492.615" stroke="#D8D8D6" stroke-width="4" stroke-linecap="round" stroke-linejoin="round"/>
</g>
<path d="M254.06 302.815L295.06 104.815L425.06 52.8145L567.06 137.815M567.06 137.815V464.815L403.06 491.815L366.06 394.815L278.06 528.815L152.06 445.815L108.06 500.815L147.06 314.815L102.06 155.815L366.06 236.815L446.06 198.815L522.06 61.8145L567.06 137.815Z" stroke="#F55D6F" stroke-opacity="0.5"/>
<path d="M64.0596 339.815L94.0596 229.815L197.06 112.815L242.06 188.815L344.06 160.815L479.06 140.815L535.06 351.815L373.06 267.815L247.06 429.815L181.06 374.815L64.0596 339.815Z" stroke="#F55D6F" stroke-opacity="0.8"/>
<path d="M247.06 188.315C247.06 191.076 244.821 193.315 242.06 193.315C239.298 193.315 237.06 191.076 237.06 188.315C237.06 185.553 239.298 183.315 242.06 183.315C244.821 183.315 247.06 185.553 247.06 188.315Z" fill="#B44351"/>
<circle cx="254.06" cy="298.315" r="4" fill="#F55D6F"/>
<circle cx="280.06" cy="528.815" r="4" fill="#F55D6F"/>
<circle cx="567.06" cy="462.815" r="4" fill="#F55D6F"/>
<circle cx="145.81" cy="313.815" r="4" fill="#F55D6F"/>
<circle cx="296.06" cy="103.815" r="4" fill="#F55D6F"/>
<circle cx="364.56" cy="238.315" r="4" fill="#F55D6F"/>
<circle cx="425.672" cy="53.8145" r="3" fill="#F55D6F"/>
<circle cx="522.672" cy="62.3145" r="3" fill="#F55D6F"/>
<circle cx="567.06" cy="137.815" r="3" fill="#F55D6F"/>
<circle cx="153.81" cy="445.815" r="4" fill="#F55D6F"/>
<circle cx="108.273" cy="498.315" r="4" fill="#F55D6F"/>
<circle cx="373.56" cy="265.315" r="5" fill="#F55D6F"/>
<circle cx="501.06" cy="98.8145" r="5" fill="#F55D6F"/>
<circle opacity="0.8" cx="480.06" cy="140.815" r="5" fill="#F55D6F"/>
<circle cx="179.06" cy="373.815" r="5" fill="#F55D6F"/>
<circle cx="365.56" cy="395.315" r="5" fill="#F55D6F"/>
<circle cx="404.06" cy="491.315" r="5" fill="#F55D6F"/>
<g opacity="0.7">
<path d="M201.06 115.815C201.06 118.576 198.821 120.815 196.06 120.815C193.298 120.815 191.06 118.576 191.06 115.815C191.06 113.053 193.298 110.815 196.06 110.815C198.821 110.815 201.06 113.053 201.06 115.815Z" fill="#F55D6F"/>
<path d="M108.56 156.315C108.56 159.076 106.321 161.315 103.56 161.315C100.798 161.315 98.5596 159.076 98.5596 156.315C98.5596 153.553 100.798 151.315 103.56 151.315C106.321 151.315 108.56 153.553 108.56 156.315Z" fill="#F55D6F"/>
</g>
<circle cx="343.56" cy="160.815" r="7" fill="#F55D6F" fill-opacity="0.8"/>
<circle cx="536.56" cy="354.315" r="7" fill="#F55D6F"/>
<circle cx="248.06" cy="428.615" r="7" fill="#F55D6F"/>
<circle cx="64.0596" cy="340.315" r="7" fill="#F55D6F"/>
<circle cx="93.6499" cy="229.415" r="7" fill="#F55D6F"/>
</svg>
