<svg width="227" height="67" viewBox="0 0 227 67" fill="none" xmlns="http://www.w3.org/2000/svg">
<path d="M2.58 14.88V13.2H19.14C22.34 13.2 24.88 13.64 26.76 14.52C28.64 15.4 29.98 16.56 30.78 18C31.62 19.44 32.04 21.04 32.04 22.8V24.42C32.04 26.5 31.38 28.3 30.06 29.82C28.78 31.3 26.9 32.36 24.42 33C27.46 33.52 29.78 34.6 31.38 36.24C33.02 37.88 33.84 39.94 33.84 42.42V44.1C33.84 45.9 33.42 47.56 32.58 49.08C31.74 50.56 30.34 51.76 28.38 52.68C26.46 53.56 23.88 54 20.64 54H2.58V52.32L5.88 51.9C6.52 51.82 6.9 51.66 7.02 51.42C7.14 51.14 7.2 50.32 7.2 48.96V18.24C7.2 16.88 7.14 16.08 7.02 15.84C6.9 15.56 6.52 15.38 5.88 15.3L2.58 14.88ZM19.14 15.3H14.4V32.1H19.14C20.86 32.1 22.16 31.52 23.04 30.36C23.92 29.16 24.36 27.28 24.36 24.72V22.8C24.36 20.2 23.92 18.3 23.04 17.1C22.16 15.9 20.86 15.3 19.14 15.3ZM20.64 34.2H14.4V51.9H20.64C22.44 51.9 23.8 51.3 24.72 50.1C25.68 48.86 26.16 46.86 26.16 44.1V42.12C26.16 36.84 24.32 34.2 20.64 34.2ZM72.3727 38.16V39.36C72.3727 43.96 71.1727 47.66 68.7727 50.46C66.4127 53.22 63.0327 54.6 58.6327 54.6C54.2327 54.6 50.8327 53.22 48.4327 50.46C46.0727 47.66 44.8927 43.96 44.8927 39.36V38.16C44.8927 33.56 46.0727 29.88 48.4327 27.12C50.8327 24.36 54.2327 22.98 58.6327 22.98C63.0327 22.98 66.4127 24.36 68.7727 27.12C71.1727 29.88 72.3727 33.56 72.3727 38.16ZM64.9927 36.96C64.9927 32.68 64.4527 29.64 63.3727 27.84C62.2927 26 60.7127 25.08 58.6327 25.08C56.5927 25.08 55.0127 26 53.8927 27.84C52.8127 29.64 52.2727 32.68 52.2727 36.96V40.56C52.2727 44.8 52.8127 47.86 53.8927 49.74C55.0127 51.58 56.5927 52.5 58.6327 52.5C60.7127 52.5 62.2927 51.58 63.3727 49.74C64.4527 47.86 64.9927 44.8 64.9927 40.56V36.96ZM116.984 52.32V54H100.844V52.32L104.144 51.9C104.784 51.82 105.164 51.66 105.284 51.42C105.404 51.14 105.464 50.32 105.464 48.96V33.84C105.464 31.08 105.044 29.08 104.204 27.84C103.404 26.56 102.204 25.92 100.604 25.92C99.9241 25.92 99.1241 26.1 98.2041 26.46C97.3241 26.78 96.4241 27.38 95.5041 28.26C94.6241 29.14 93.8441 30.44 93.1641 32.16V48.96C93.1641 50.32 93.2241 51.14 93.3441 51.42C93.4641 51.66 93.8441 51.82 94.4841 51.9L97.7841 52.32V54H81.6441V52.32L84.9441 51.9C85.5841 51.82 85.9641 51.66 86.0841 51.42C86.2041 51.14 86.2641 50.32 86.2641 48.96V28.62C86.2641 27.26 86.2041 26.46 86.0841 26.22C85.9641 25.94 85.5841 25.76 84.9441 25.68L81.6441 25.26V23.58H92.8041V28.86C93.9641 26.82 95.4441 25.34 97.2441 24.42C99.0841 23.46 100.924 22.98 102.764 22.98C105.724 22.98 108.064 23.92 109.784 25.8C111.504 27.68 112.364 30.34 112.364 33.78V48.96C112.364 50.32 112.424 51.14 112.544 51.42C112.664 51.66 113.044 51.82 113.684 51.9L116.984 52.32ZM122.927 11.28V9.6H134.447V28.02C135.527 26.34 136.727 25.08 138.047 24.24C139.407 23.4 140.967 22.98 142.727 22.98C146.087 22.98 148.747 24.32 150.707 27C152.707 29.64 153.707 33.36 153.707 38.16V39.36C153.707 44 152.567 47.7 150.287 50.46C148.007 53.22 144.847 54.6 140.807 54.6C137.727 54.6 135.207 53.68 133.247 51.84C132.527 52.12 131.827 52.48 131.147 52.92C130.507 53.32 129.847 53.78 129.167 54.3H127.547V14.64C127.547 13.28 127.487 12.48 127.367 12.24C127.247 11.96 126.867 11.78 126.227 11.7L122.927 11.28ZM141.167 25.62C140.167 25.62 139.107 26.04 137.987 26.88C136.907 27.68 135.727 29.34 134.447 31.86V49.98C135.967 51.5 137.827 52.26 140.027 52.26C142.267 52.26 143.867 51.28 144.827 49.32C145.827 47.32 146.327 44.6 146.327 41.16V36.36C146.327 32.64 145.867 29.92 144.947 28.2C144.027 26.48 142.767 25.62 141.167 25.62ZM193.856 52.5C193.216 53.1 192.436 53.6 191.516 54C190.636 54.4 189.556 54.6 188.276 54.6C186.636 54.6 185.256 54.24 184.136 53.52C183.056 52.8 182.336 51.78 181.976 50.46C180.656 51.9 179.196 52.96 177.596 53.64C176.036 54.28 174.436 54.6 172.796 54.6C170.036 54.6 167.976 53.84 166.616 52.32C165.256 50.76 164.576 48.82 164.576 46.5C164.576 44.14 165.436 42.24 167.156 40.8C168.876 39.32 171.916 38.58 176.276 38.58H181.736V33.72C181.736 30.4 181.296 28.14 180.416 26.94C179.576 25.7 178.396 25.08 176.876 25.08C175.876 25.08 174.956 25.34 174.116 25.86C173.276 26.34 172.676 27.26 172.316 28.62C171.996 29.94 172.056 31.86 172.496 34.38L165.896 33.42C165.576 31.58 165.776 29.88 166.496 28.32C167.256 26.72 168.516 25.44 170.276 24.48C172.036 23.48 174.276 22.98 176.996 22.98C180.076 22.98 182.456 23.48 184.136 24.48C185.816 25.48 186.976 26.8 187.616 28.44C188.296 30.08 188.636 31.84 188.636 33.72V47.58C188.636 49.62 188.816 50.9 189.176 51.42C189.536 51.94 189.936 52.2 190.376 52.2C191.096 52.2 191.896 51.78 192.776 50.94L193.856 52.5ZM175.436 51.42C176.476 51.42 177.496 51.16 178.496 50.64C179.536 50.08 180.616 49.06 181.736 47.58V40.68H177.236C175.276 40.68 173.856 41.14 172.976 42.06C172.096 42.98 171.656 44.42 171.656 46.38C171.656 47.98 171.976 49.22 172.616 50.1C173.256 50.98 174.196 51.42 175.436 51.42ZM222.781 44.88H224.461V54H201.241V52.5L216.301 25.68H208.501C207.581 25.68 206.901 25.72 206.461 25.8C206.061 25.84 205.801 25.98 205.681 26.22C205.561 26.42 205.421 26.76 205.261 27.24L203.641 32.7H201.961V23.58H223.861V25.08L208.801 51.9H217.921C218.881 51.9 219.561 51.88 219.961 51.84C220.361 51.76 220.621 51.62 220.741 51.42C220.901 51.18 221.041 50.82 221.161 50.34L222.781 44.88Z" fill="white"/>
<rect x="43.75" y="19" width="30.75" height="38.5" fill="#262938"/>
<circle cx="59.1973" cy="37.6973" r="16.3027" stroke="white" stroke-width="4"/>
<circle cx="59.1973" cy="37.6973" r="9.38597" stroke="white" stroke-width="3" stroke-dasharray="2.5 2.5"/>
<path d="M48.8335 29.9976C48.8631 29.923 48.9686 29.923 48.9982 29.9976L49.109 30.2775C49.1216 30.3094 49.1515 30.3311 49.1857 30.3333L49.4862 30.3522C49.5662 30.3572 49.5989 30.4576 49.537 30.5088L49.3051 30.7006C49.2787 30.7225 49.2673 30.7577 49.2758 30.7909L49.3506 31.0824C49.3706 31.1601 49.2852 31.2222 49.2174 31.1792L48.9633 31.0179C48.9343 30.9995 48.8974 30.9995 48.8684 31.0179L48.6143 31.1792C48.5465 31.2222 48.4611 31.1601 48.4811 31.0824L48.5559 30.7909C48.5644 30.7577 48.553 30.7225 48.5266 30.7006L48.2947 30.5088C48.2329 30.4576 48.2655 30.3572 48.3455 30.3522L48.646 30.3333C48.6802 30.3311 48.7101 30.3094 48.7227 30.2775L48.8335 29.9976Z" fill="#D9D9D9"/>
<path d="M69.4901 29.9976C69.4606 29.923 69.355 29.923 69.3255 29.9976L69.2147 30.2775C69.2021 30.3094 69.1722 30.3311 69.1379 30.3333L68.8375 30.3522C68.7574 30.3572 68.7248 30.4576 68.7866 30.5088L69.0186 30.7006C69.045 30.7225 69.0564 30.7577 69.0479 30.7909L68.973 31.0824C68.9531 31.1601 69.0385 31.2222 69.1062 31.1792L69.3604 31.0179C69.3893 30.9995 69.4263 30.9995 69.4553 31.0179L69.7094 31.1792C69.7771 31.2222 69.8626 31.1601 69.8426 31.0824L69.7678 30.7909C69.7592 30.7577 69.7706 30.7225 69.7971 30.7006L70.029 30.5088C70.0908 30.4576 70.0582 30.3572 69.9781 30.3522L69.6777 30.3333C69.6435 30.3311 69.6136 30.3094 69.6009 30.2775L69.4901 29.9976Z" fill="#D9D9D9"/>
<path d="M59.2796 24.7523C59.2501 24.6777 59.1445 24.6777 59.1149 24.7523L59.0041 25.0321C58.9915 25.064 58.9616 25.0857 58.9274 25.0879L58.627 25.1068C58.5469 25.1118 58.5143 25.2123 58.5761 25.2634L58.808 25.4553C58.8344 25.4771 58.8459 25.5123 58.8373 25.5455L58.7625 25.837C58.7425 25.9148 58.8279 25.9768 58.8957 25.9338L59.1498 25.7725C59.1788 25.7542 59.2158 25.7542 59.2447 25.7725L59.4989 25.9338C59.5666 25.9768 59.652 25.9148 59.6321 25.837L59.5572 25.5455C59.5487 25.5123 59.5601 25.4771 59.5865 25.4553L59.8185 25.2634C59.8803 25.2123 59.8476 25.1118 59.7676 25.1068L59.4672 25.0879C59.4329 25.0857 59.403 25.064 59.3904 25.0321L59.2796 24.7523Z" fill="#D9D9D9"/>
<path d="M46.6482 37.3651C46.6778 37.2905 46.7834 37.2905 46.8129 37.3651L46.9237 37.6449C46.9363 37.6768 46.9662 37.6985 47.0005 37.7007L47.3009 37.7196C47.3809 37.7246 47.4136 37.825 47.3517 37.8762L47.1198 38.0681C47.0934 38.0899 47.082 38.1251 47.0905 38.1583L47.1654 38.4498C47.1853 38.5276 47.0999 38.5896 47.0322 38.5466L46.778 38.3853C46.7491 38.367 46.7121 38.367 46.6831 38.3853L46.429 38.5466C46.3612 38.5896 46.2758 38.5276 46.2958 38.4498L46.3706 38.1583C46.3792 38.1251 46.3677 38.0899 46.3413 38.0681L46.1094 37.8762C46.0476 37.825 46.0802 37.7246 46.1603 37.7196L46.4607 37.7007C46.4949 37.6985 46.5248 37.6768 46.5374 37.6449L46.6482 37.3651Z" fill="#D9D9D9"/>
<path d="M71.2297 39.0337C71.2002 38.9591 71.0946 38.9591 71.065 39.0337L70.9542 39.3136C70.9416 39.3455 70.9117 39.3672 70.8775 39.3694L70.5771 39.3883C70.497 39.3933 70.4644 39.4937 70.5262 39.5448L70.7581 39.7367C70.7845 39.7586 70.796 39.7937 70.7874 39.827L70.7126 40.1185C70.6926 40.1962 70.778 40.2583 70.8458 40.2153L71.0999 40.054C71.1289 40.0356 71.1658 40.0356 71.1948 40.054L71.449 40.2153C71.5167 40.2583 71.6021 40.1962 71.5822 40.1185L71.5073 39.827C71.4988 39.7937 71.5102 39.7586 71.5366 39.7367L71.7685 39.5448C71.8304 39.4937 71.7977 39.3933 71.7177 39.3883L71.4173 39.3694C71.383 39.3672 71.3531 39.3455 71.3405 39.3136L71.2297 39.0337Z" fill="#D9D9D9"/>
<path d="M50.732 46.0895C50.7615 46.015 50.8671 46.015 50.8966 46.0895L51.0074 46.3694C51.02 46.4013 51.0499 46.423 51.0842 46.4252L51.3846 46.4441C51.4647 46.4491 51.4973 46.5495 51.4355 46.6007L51.2035 46.7925C51.1771 46.8144 51.1657 46.8496 51.1742 46.8828L51.2491 47.1743C51.269 47.252 51.1836 47.3141 51.1159 47.2711L50.8617 47.1098C50.8328 47.0914 50.7958 47.0914 50.7668 47.1098L50.5127 47.2711C50.4449 47.3141 50.3595 47.252 50.3795 47.1743L50.4543 46.8828C50.4629 46.8496 50.4514 46.8144 50.425 46.7925L50.1931 46.6007C50.1313 46.5495 50.1639 46.4491 50.244 46.4441L50.5444 46.4252C50.5786 46.423 50.6085 46.4013 50.6211 46.3694L50.732 46.0895Z" fill="#D9D9D9"/>
<path d="M59.1149 50.2162C59.1445 50.1416 59.2501 50.1416 59.2796 50.2162L59.3904 50.4961C59.403 50.528 59.4329 50.5497 59.4672 50.5519L59.7676 50.5708C59.8476 50.5758 59.8803 50.6762 59.8185 50.7274L59.5865 50.9192C59.5601 50.9411 59.5487 50.9763 59.5572 51.0095L59.6321 51.301C59.652 51.3787 59.5666 51.4408 59.4989 51.3978L59.2447 51.2365C59.2158 51.2181 59.1788 51.2181 59.1498 51.2365L58.8957 51.3978C58.8279 51.4408 58.7425 51.3787 58.7625 51.301L58.8373 51.0095C58.8459 50.9763 58.8344 50.9411 58.808 50.9192L58.5761 50.7274C58.5143 50.6762 58.5469 50.5758 58.627 50.5708L58.9274 50.5519C58.9616 50.5497 58.9915 50.528 59.0041 50.4961L59.1149 50.2162Z" fill="#D9D9D9"/>
<path d="M67.8215 46.0895C67.7919 46.015 67.6864 46.015 67.6568 46.0895L67.546 46.3694C67.5334 46.4013 67.5035 46.423 67.4693 46.4252L67.1689 46.4441C67.0888 46.4491 67.0562 46.5495 67.118 46.6007L67.3499 46.7925C67.3763 46.8144 67.3878 46.8496 67.3792 46.8828L67.3044 47.1743C67.2844 47.252 67.3698 47.3141 67.4376 47.2711L67.6917 47.1098C67.7207 47.0914 67.7576 47.0914 67.7866 47.1098L68.0407 47.2711C68.1085 47.3141 68.1939 47.252 68.174 47.1743L68.0991 46.8828C68.0906 46.8496 68.102 46.8144 68.1284 46.7925L68.3603 46.6007C68.4222 46.5495 68.3895 46.4491 68.3095 46.4441L68.0091 46.4252C67.9748 46.423 67.9449 46.4013 67.9323 46.3694L67.8215 46.0895Z" fill="#D9D9D9"/>
</svg>
