<svg width="642" height="751" viewBox="0 0 642 751" fill="none" xmlns="http://www.w3.org/2000/svg">
<g opacity="0.4">
<mask id="mask0_194_32237" style="mask-type:luminance" maskUnits="userSpaceOnUse" x="0" y="0" width="786" height="751">
<path d="M785.568 0.864594H0.757812V750.865H785.568V0.864594Z" fill="white"/>
</mask>
<g mask="url(#mask0_194_32237)">
<path d="M38.4443 40.2396L53.6383 38.5146L75.7856 16.3596" stroke="#A0A09C" stroke-linecap="round" stroke-linejoin="round"/>
<path d="M64.1074 8.45459L91.0578 26.7096L158.551 -9.54541" stroke="#A0A09C" stroke-linecap="round" stroke-linejoin="round"/>
<path d="M79.5371 31.4496L99.1574 42.2046L118.526 31.4496L117.208 20.9496" stroke="#A0A09C" stroke-linecap="round" stroke-linejoin="round"/>
<path d="M133.171 11.1996L89.708 37.0296" stroke="#A0A09C" stroke-linecap="round" stroke-linejoin="round"/>
<path d="M108.497 37.0296L102.563 28.2996" stroke="#A0A09C" stroke-linecap="round" stroke-linejoin="round"/>
<path d="M145.21 0.864594L159.462 22.1646" stroke="#A0A09C" stroke-linecap="round" stroke-linejoin="round"/>
<path d="M46.5906 48.4446L33.2331 69.2046L4.97998 78.9546" stroke="#A0A09C" stroke-linecap="round" stroke-linejoin="round"/>
<path d="M43.0121 87.0246L33.2334 69.2046" stroke="#A0A09C" stroke-linecap="round" stroke-linejoin="round"/>
<path d="M120.488 44.4546C120.488 44.4546 155.146 55.2246 165.866 58.8096C176.587 62.3946 198.687 73.9746 198.687 73.9746C198.687 73.9746 225.574 90.6246 238.335 91.6146C251.096 92.6046 272.004 91.6146 284.341 94.6146C296.678 97.6146 319.579 104.935 319.579 104.935L372.946 119.665L451.662 141.265C451.662 141.265 528.213 153.01 536.249 152.5C544.286 151.99 552.872 148.96 563.058 149.5C573.245 150.04 607.604 152.395 616.425 155.8C625.247 159.205 656.341 174.595 664.927 175.105C673.513 175.615 712.471 169.465 712.471 169.465C712.471 169.465 731.385 166.9 738.354 169.465C745.323 172.03 792.396 175.135 792.396 175.135" stroke="#A0A09C" stroke-linecap="round" stroke-linejoin="round"/>
<path d="M79.5371 78.3396C79.5371 78.3396 94.731 74.8596 102.563 72.3396C110.396 69.8196 110.882 69.9396 120.488 69.3396C130.095 68.7396 138.884 67.1196 149.181 53.4546" stroke="#A0A09C" stroke-linecap="round" stroke-linejoin="round"/>
<path d="M105.53 52.5846L99.0317 73.3746" stroke="#A0A09C" stroke-linecap="round" stroke-linejoin="round"/>
<path d="M123.125 45.2946L108.497 70.5096" stroke="#A0A09C" stroke-linecap="round" stroke-linejoin="round"/>
<path d="M128.431 46.9446L117.02 69.4446" stroke="#A0A09C" stroke-linecap="round" stroke-linejoin="round"/>
<path d="M138.162 49.9896L127.708 68.3496" stroke="#A0A09C" stroke-linecap="round" stroke-linejoin="round"/>
<path d="M153.325 63.6996L126.845 114.475" stroke="#A0A09C" stroke-linecap="round" stroke-linejoin="round"/>
<path d="M175.3 62.6046L144.096 128.08" stroke="#A0A09C" stroke-linecap="round" stroke-linejoin="round"/>
<path d="M144.096 81.4146L162.68 89.0796" stroke="#A0A09C" stroke-linecap="round" stroke-linejoin="round"/>
<path d="M135.384 121.18L153.325 85.2546" stroke="#A0A09C" stroke-linecap="round" stroke-linejoin="round"/>
<path d="M135.965 96.9996L154.612 106" stroke="#A0A09C" stroke-linecap="round" stroke-linejoin="round"/>
<path d="M184.152 66.6996L150.562 133.225" stroke="#A0A09C" stroke-linecap="round" stroke-linejoin="round"/>
<path d="M141.584 86.1996L134.458 83.7846L117.02 106.78" stroke="#A0A09C" stroke-linecap="round" stroke-linejoin="round"/>
<path d="M156.15 24.0996L159.478 56.7246C176.719 43.6541 197.57 35.6639 219.485 33.7296C255.806 30.6546 273.213 34.1196 290.949 29.5146" stroke="#A0A09C" stroke-linecap="round" stroke-linejoin="round"/>
<path d="M158.771 49.9896L176.744 40.4196" stroke="#A0A09C" stroke-linecap="round" stroke-linejoin="round"/>
<path d="M209.925 52.5846L195.626 45.2946" stroke="#A0A09C" stroke-linecap="round" stroke-linejoin="round"/>
<path d="M200.382 37.0296L190.431 54.2796" stroke="#A0A09C" stroke-linecap="round" stroke-linejoin="round"/>
<path d="M149.181 71.6496L145.21 70.5096L118.526 92.4996" stroke="#A0A09C" stroke-linecap="round" stroke-linejoin="round"/>
<path d="M122.717 78.9546L91.7803 87.4596" stroke="#A0A09C" stroke-linecap="round" stroke-linejoin="round"/>
<path d="M260.404 -5.79541L171.784 150.22" stroke="#A0A09C" stroke-linecap="round" stroke-linejoin="round"/>
<path d="M293.272 -5.79541L192.471 167.005L126.893 234.925" stroke="#A0A09C" stroke-linecap="round" stroke-linejoin="round"/>
<path d="M273.385 28.2996L253.247 32.2746L182.724 159.085" stroke="#A0A09C" stroke-linecap="round" stroke-linejoin="round"/>
<path d="M219.218 66.6996L231.037 72.2196" stroke="#A0A09C" stroke-linecap="round" stroke-linejoin="round"/>
<path d="M245.917 5.94958L273.385 20.9496" stroke="#A0A09C" stroke-linecap="round" stroke-linejoin="round"/>
<path d="M271.031 -5.79541L284.891 8.57459" stroke="#A0A09C" stroke-linecap="round" stroke-linejoin="round"/>
<path d="M295.109 -0.54541L314.195 13.4496" stroke="#A0A09C" stroke-linecap="round" stroke-linejoin="round"/>
<path d="M322.043 -4.04041L282.144 94.1946" stroke="#A0A09C" stroke-linecap="round" stroke-linejoin="round"/>
<path d="M330.676 4.70459L323.315 18.7146" stroke="#A0A09C" stroke-linecap="round" stroke-linejoin="round"/>
<path d="M336.829 25.1196L318.386 16.3596" stroke="#A0A09C" stroke-linecap="round" stroke-linejoin="round"/>
<path d="M264.925 92.4996L264.234 81.4146L267.374 73.3746" stroke="#A0A09C" stroke-linecap="round" stroke-linejoin="round"/>
<path d="M303.255 42.2046L330.676 54.2796L369.917 74.4546" stroke="#A0A09C" stroke-linecap="round" stroke-linejoin="round"/>
<path d="M286.602 83.2146L321.651 95.3346" stroke="#A0A09C" stroke-linecap="round" stroke-linejoin="round"/>
<path d="M327.6 53.4546L302.69 89.2746" stroke="#A0A09C" stroke-linecap="round" stroke-linejoin="round"/>
<path d="M299.598 51.2196L321.243 62.6046" stroke="#A0A09C" stroke-linecap="round" stroke-linejoin="round"/>
<path d="M325.198 78.9546L315.153 78.1146" stroke="#A0A09C" stroke-linecap="round" stroke-linejoin="round"/>
<path d="M361.802 34.8846L347.612 62.9796" stroke="#A0A09C" stroke-linecap="round" stroke-linejoin="round"/>
<path d="M359.196 -4.04041L450.784 143.71L555.776 62.4546" stroke="#A0A09C" stroke-linecap="round" stroke-linejoin="round"/>
<path d="M400.32 80.1246L379.334 74.4546" stroke="#A0A09C" stroke-linecap="round" stroke-linejoin="round"/>
<path d="M415.404 75.3546L484.248 91.6296L497.59 92.4996L628.951 119.725L712.015 143.71L792.411 166.21" stroke="#A0A09C" stroke-linecap="round" stroke-linejoin="round"/>
<path d="M445.761 65.6046L441.021 81.4146" stroke="#A0A09C" stroke-linecap="round" stroke-linejoin="round"/>
<path d="M461.959 60.3096L454.143 84.5046" stroke="#A0A09C" stroke-linecap="round" stroke-linejoin="round"/>
<path d="M476.683 89.8446L503.193 103.585L543.36 113.71L569.526 117.46L622.343 137.2L660.532 217.78L676.778 262.21L665.885 347.665" stroke="#A0A09C" stroke-linecap="round" stroke-linejoin="round"/>
<path d="M547.284 94.1946L522.986 88.4196L510.146 64.2096L519.941 38.5146" stroke="#A0A09C" stroke-linecap="round" stroke-linejoin="round"/>
<path d="M583.919 -5.79541L553.311 68.4546L534.994 152.575L596.994 189.955" stroke="#A0A09C" stroke-linecap="round" stroke-linejoin="round"/>
<path d="M507.321 -5.79541L555.775 62.4546L576.73 84.5046L612.69 116.35" stroke="#A0A09C" stroke-linecap="round" stroke-linejoin="round"/>
<path d="M664.613 -5.79541L651.93 33.7446L534.994 152.575L478.158 176.02L382.913 157.795L310.146 148.66" stroke="#A0A09C" stroke-linecap="round" stroke-linejoin="round"/>
<path d="M311.621 141.82L296.474 131.365L270.732 119.89L276.744 105.745" stroke="#A0A09C" stroke-linecap="round" stroke-linejoin="round"/>
<path d="M357.956 115.585L341.334 157.09" stroke="#A0A09C" stroke-linecap="round" stroke-linejoin="round"/>
<path d="M368.786 118.57L347.612 166.21" stroke="#A0A09C" stroke-linecap="round" stroke-linejoin="round"/>
<path d="M309.8 150.22L351.427 181.465L426.533 134.425L429.766 109.795" stroke="#A0A09C" stroke-linecap="round" stroke-linejoin="round"/>
<path d="M397.981 215.56L418.716 177.985L424.257 165.715L426.533 134.425" stroke="#A0A09C" stroke-linecap="round" stroke-linejoin="round"/>
<path d="M426.533 203.8L418.716 177.985" stroke="#A0A09C" stroke-linecap="round" stroke-linejoin="round"/>
<path d="M418.057 221.455L403.396 205.75" stroke="#A0A09C" stroke-linecap="round" stroke-linejoin="round"/>
<path d="M381.987 85.2546L400.32 90.9996L393.163 114.475L428.275 121.18" stroke="#A0A09C" stroke-linecap="round" stroke-linejoin="round"/>
<path d="M397.981 126.595L400.32 115.84" stroke="#A0A09C" stroke-linecap="round" stroke-linejoin="round"/>
<path d="M394.811 89.2746L385.88 118.57L399.159 120.775" stroke="#A0A09C" stroke-linecap="round" stroke-linejoin="round"/>
<path d="M497.056 107.905L479.728 145.525" stroke="#A0A09C" stroke-linecap="round" stroke-linejoin="round"/>
<path d="M483.275 118.57L471.691 144.34" stroke="#A0A09C" stroke-linecap="round" stroke-linejoin="round"/>
<path d="M493.305 147.475L478.158 176.02L543.768 189.955L608.876 210.4L600.415 229.165L601.53 240.145L586.383 258.1L588.062 281.95L581.91 285.7L565.994 281.95" stroke="#A0A09C" stroke-linecap="round" stroke-linejoin="round"/>
<path d="M578.535 226.75L608.876 210.4L621.715 246.58L620.318 262.21L608.876 286.765L586.164 288.91L582.459 294.805L565.994 288.37V271.225L563.074 262.21L536.768 256.735L537.882 220.045L543.768 189.955" stroke="#A0A09C" stroke-linecap="round" stroke-linejoin="round"/>
<path d="M516.284 192.07L510.146 210.4L537.882 220.045L564.801 221.455L581.062 228.085L600.415 229.165" stroke="#A0A09C" stroke-linecap="round" stroke-linejoin="round"/>
<path d="M586.164 203.275L578.535 217.645L540.001 209.26" stroke="#A0A09C" stroke-linecap="round" stroke-linejoin="round"/>
<path d="M553.735 193.09L555.273 212.575" stroke="#A0A09C" stroke-linecap="round" stroke-linejoin="round"/>
<path d="M573.402 199.27L568.976 215.56" stroke="#A0A09C" stroke-linecap="round" stroke-linejoin="round"/>
<path d="M540.833 205L515.311 194.995" stroke="#A0A09C" stroke-linecap="round" stroke-linejoin="round"/>
<path d="M526.392 215.56L528.715 200.245" stroke="#A0A09C" stroke-linecap="round" stroke-linejoin="round"/>
<path d="M568.976 242.38L537.411 235.585L508.436 221.455L494.702 251.125L512.642 263.725" stroke="#A0A09C" stroke-linecap="round" stroke-linejoin="round"/>
<path d="M510.146 255.145L531.839 258.1L523.582 268.705L531.839 279.265" stroke="#A0A09C" stroke-linecap="round" stroke-linejoin="round"/>
<path d="M540.001 277.39L549.654 280.87L557.785 270.955L536.767 256.735L531.839 258.1" stroke="#A0A09C" stroke-linecap="round" stroke-linejoin="round"/>
<path d="M505.925 212.575L501.153 193.09L490.26 194.185L487.387 199.99L463.576 210.46L461.614 224.605L470.875 232.915L491.908 238.33" stroke="#A0A09C" stroke-linecap="round" stroke-linejoin="round"/>
<path d="M502.267 219.52L489.381 216.58L478.158 218.05L462.729 216.58" stroke="#A0A09C" stroke-linecap="round" stroke-linejoin="round"/>
<path d="M462.054 221.455L447.597 226.75L442.276 242.59L431.619 259.435L433.016 273.64L450.407 289.99" stroke="#A0A09C" stroke-linecap="round" stroke-linejoin="round"/>
<path d="M422.64 245.905L433.329 256.735L461.614 267.205L476.682 280.87L550.784 312.49L557.784 315.445L573.402 353.485L574.564 379.33L594.184 434.215" stroke="#A0A09C" stroke-linecap="round" stroke-linejoin="round"/>
<path d="M410.727 270.265L473.119 301.51L502.267 318.115L536.768 345.445V389.755L549.262 422.335" stroke="#A0A09C" stroke-linecap="round" stroke-linejoin="round"/>
<path d="M410.727 291.865L456.45 318.655" stroke="#A0A09C" stroke-linecap="round" stroke-linejoin="round"/>
<path d="M431.901 280.87L415.64 307.405L429.766 316.78" stroke="#A0A09C" stroke-linecap="round" stroke-linejoin="round"/>
<path d="M450.407 289.99L410.727 344.995L432.152 333.055" stroke="#A0A09C" stroke-linecap="round" stroke-linejoin="round"/>
<path d="M441.994 358.045L427.632 321.565" stroke="#A0A09C" stroke-linecap="round" stroke-linejoin="round"/>
<path d="M441.994 301.645L496.946 333.655L494.701 340.9L519.658 350.455" stroke="#A0A09C" stroke-linecap="round" stroke-linejoin="round"/>
<path d="M526.392 337.225L503.271 381.445" stroke="#A0A09C" stroke-linecap="round" stroke-linejoin="round"/>
<path d="M492.614 312.61L473.747 370.72" stroke="#A0A09C" stroke-linecap="round" stroke-linejoin="round"/>
<path d="M467.783 344.995L458.867 364.885" stroke="#A0A09C" stroke-linecap="round" stroke-linejoin="round"/>
<path d="M484.986 336.1L468.913 330.01" stroke="#A0A09C" stroke-linecap="round" stroke-linejoin="round"/>
<path d="M494.702 350.455L484.986 375.865" stroke="#A0A09C" stroke-linecap="round" stroke-linejoin="round"/>
<path d="M505.422 344.995L492.614 377.065" stroke="#A0A09C" stroke-linecap="round" stroke-linejoin="round"/>
<path d="M456.45 341.665L449.324 361.03" stroke="#A0A09C" stroke-linecap="round" stroke-linejoin="round"/>
<path d="M461.614 267.205L453.844 291.865" stroke="#A0A09C" stroke-linecap="round" stroke-linejoin="round"/>
<path d="M476.682 280.87L466.778 298.33" stroke="#A0A09C" stroke-linecap="round" stroke-linejoin="round"/>
<path d="M483.777 283.9L494.701 301.645" stroke="#A0A09C" stroke-linecap="round" stroke-linejoin="round"/>
<path d="M504.559 292.765L496.444 314.8" stroke="#A0A09C" stroke-linecap="round" stroke-linejoin="round"/>
<path d="M504.559 319.93L510.146 307.405L520.993 311.425" stroke="#A0A09C" stroke-linecap="round" stroke-linejoin="round"/>
<path d="M519.659 331.9L520.993 319.93H549.105L550.784 312.49" stroke="#A0A09C" stroke-linecap="round" stroke-linejoin="round"/>
<path d="M536.768 345.445V319.93" stroke="#A0A09C" stroke-linecap="round" stroke-linejoin="round"/>
<path d="M520.993 330.01L567.783 339.805" stroke="#A0A09C" stroke-linecap="round" stroke-linejoin="round"/>
<path d="M536.768 349.195L573.403 353.485L646.107 333.055L672.571 352.615" stroke="#A0A09C" stroke-linecap="round" stroke-linejoin="round"/>
<path d="M638.856 360.595L614.715 325.9V308.74L630.976 289.6L633.817 242.59" stroke="#A0A09C" stroke-linecap="round" stroke-linejoin="round"/>
<path d="M612.69 342.445L621.715 365.17L662.949 390.595L721.559 415.66L793.557 438.445" stroke="#A0A09C" stroke-linecap="round" stroke-linejoin="round"/>
<path d="M611.481 368.065L600.416 327.265" stroke="#A0A09C" stroke-linecap="round" stroke-linejoin="round"/>
<path d="M465.004 270.265L473.747 249.25" stroke="#A0A09C" stroke-linecap="round" stroke-linejoin="round"/>
<path d="M438.054 249.25L468.913 260.875L480.826 256.735L492.614 262.21L505.925 279.535" stroke="#A0A09C" stroke-linecap="round" stroke-linejoin="round"/>
<path d="M552.464 292.765L550.784 301.645" stroke="#A0A09C" stroke-linecap="round" stroke-linejoin="round"/>
<path d="M586.163 307.405L520.992 278.2L510.146 276.58L503.271 281.95L583.024 314.8" stroke="#A0A09C" stroke-linecap="round" stroke-linejoin="round"/>
<path d="M588.062 281.95L602.817 280.87V256.735L633.817 242.59L640.221 249.25L678.63 248.185" stroke="#A0A09C" stroke-linecap="round" stroke-linejoin="round"/>
<path d="M631.824 275.515L676.778 262.21L687.624 197.815L698.674 113.215L712 41.8596" stroke="#A0A09C" stroke-linecap="round" stroke-linejoin="round"/>
<path d="M672.885 292.765L630.976 289.6L627.319 324.67" stroke="#A0A09C" stroke-linecap="round" stroke-linejoin="round"/>
<path d="M668.882 324.175L628.386 316.78" stroke="#A0A09C" stroke-linecap="round" stroke-linejoin="round"/>
<path d="M631.824 272.56L654.301 259.765L660.407 272.56L656.765 291.865" stroke="#A0A09C" stroke-linecap="round" stroke-linejoin="round"/>
<path d="M574.564 311.32L566.276 336.1L589.758 328.3L627.319 324.67L646.107 333.055" stroke="#A0A09C" stroke-linecap="round" stroke-linejoin="round"/>
<path d="M382.725 298.825L374.845 330.01" stroke="#A0A09C" stroke-linecap="round" stroke-linejoin="round"/>
<path d="M712 192.07L651.931 126.37L635.057 164.02" stroke="#A0A09C" stroke-linecap="round" stroke-linejoin="round"/>
<path d="M611.262 176.92L642.89 180.55" stroke="#A0A09C" stroke-linecap="round" stroke-linejoin="round"/>
<path d="M646.154 187.45L635.057 186.28" stroke="#A0A09C" stroke-linecap="round" stroke-linejoin="round"/>
<path d="M624.211 201.925L646.154 196.84" stroke="#A0A09C" stroke-linecap="round" stroke-linejoin="round"/>
<path d="M613.459 167.035L624.211 168.415" stroke="#A0A09C" stroke-linecap="round" stroke-linejoin="round"/>
<path d="M612.69 133.585L605.941 153.475L603.9 167.035L594.09 188.2" stroke="#A0A09C" stroke-linecap="round" stroke-linejoin="round"/>
<path d="M553.735 149.935L550.502 161.92L547.284 181.465L494.702 169.195L502.267 148.735" stroke="#A0A09C" stroke-linecap="round" stroke-linejoin="round"/>
<path d="M568.976 149.935L567.155 165.34" stroke="#A0A09C" stroke-linecap="round" stroke-linejoin="round"/>
<path d="M560.014 167.035L578.206 168.415V177.985" stroke="#A0A09C" stroke-linecap="round" stroke-linejoin="round"/>
<path d="M580.654 150.7L579.241 160.9" stroke="#A0A09C" stroke-linecap="round" stroke-linejoin="round"/>
<path d="M586.163 110.86L575.584 149.935" stroke="#A0A09C" stroke-linecap="round" stroke-linejoin="round"/>
<path d="M601.232 113.98L589.883 151.525" stroke="#A0A09C" stroke-linecap="round" stroke-linejoin="round"/>
<path d="M534.994 152.575L525.733 172.51" stroke="#A0A09C" stroke-linecap="round" stroke-linejoin="round"/>
<path d="M567.61 33.7446L576.73 50.4546L670.64 84.5046" stroke="#A0A09C" stroke-linecap="round" stroke-linejoin="round"/>
<path d="M566.276 73.5096L576.73 50.4546" stroke="#A0A09C" stroke-linecap="round" stroke-linejoin="round"/>
<path d="M594.09 99.8796L596.994 57.8046L601.216 33.7446L603.131 22.8396L615.201 -5.79541" stroke="#A0A09C" stroke-linecap="round" stroke-linejoin="round"/>
<path d="M572.492 21.9096L596.994 33.7446" stroke="#A0A09C" stroke-linecap="round" stroke-linejoin="round"/>
<path d="M578.613 7.07458L604.638 18.3696" stroke="#A0A09C" stroke-linecap="round" stroke-linejoin="round"/>
<path d="M600.102 40.1196L616.002 47.0346" stroke="#A0A09C" stroke-linecap="round" stroke-linejoin="round"/>
<path d="M617.509 117.355L635.622 71.8146L648.933 36.7896" stroke="#A0A09C" stroke-linecap="round" stroke-linejoin="round"/>
<path d="M655.321 58.5396L641.9 55.2846" stroke="#A0A09C" stroke-linecap="round" stroke-linejoin="round"/>
<path d="M619.832 66.3546L608.876 112.975" stroke="#A0A09C" stroke-linecap="round" stroke-linejoin="round"/>
<path d="M596.994 8.18459L622.437 18.3696" stroke="#A0A09C" stroke-linecap="round" stroke-linejoin="round"/>
<path d="M541.162 41.8746L532.168 64.4796" stroke="#A0A09C" stroke-linecap="round" stroke-linejoin="round"/>
<path d="M515.813 40.1196L523.049 16.3596L574.391 17.3046" stroke="#A0A09C" stroke-linecap="round" stroke-linejoin="round"/>
<path d="M519.784 82.4046L498.798 80.1246L494.702 92.0796" stroke="#A0A09C" stroke-linecap="round" stroke-linejoin="round"/>
<path d="M488.392 95.9046L482.113 109.795L487.136 115.585" stroke="#A0A09C" stroke-linecap="round" stroke-linejoin="round"/>
<path d="M503.256 80.6046L505.438 71.3646" stroke="#A0A09C" stroke-linecap="round" stroke-linejoin="round"/>
<path d="M514.181 71.8146L524.226 73.4196" stroke="#A0A09C" stroke-linecap="round" stroke-linejoin="round"/>
<path d="M515.813 53.1696L526.738 55.2846" stroke="#A0A09C" stroke-linecap="round" stroke-linejoin="round"/>
<path d="M431.257 -4.04041L416.88 25.1196L409.942 66.7146L405.939 71.3646" stroke="#A0A09C" stroke-linecap="round" stroke-linejoin="round"/>
<path d="M479.728 -5.79541L474.25 13.4496L506.442 26.7096" stroke="#A0A09C" stroke-linecap="round" stroke-linejoin="round"/>
<path d="M428.825 0.864589L463.859 15.5046L467.437 -5.79541" stroke="#A0A09C" stroke-linecap="round" stroke-linejoin="round"/>
<path d="M368.19 10.4496L380.198 2.81459" stroke="#A0A09C" stroke-linecap="round" stroke-linejoin="round"/>
<path d="M390.651 5.94958L384.012 20.9496" stroke="#A0A09C" stroke-linecap="round" stroke-linejoin="round"/>
<path d="M399.159 0.879593L385.88 30.4896L362.257 70.5096L354.409 94.4196L361.802 106L360.766 116.35" stroke="#A0A09C" stroke-linecap="round" stroke-linejoin="round"/>
<path d="M405.939 7.80959L397.981 20.9496" stroke="#A0A09C" stroke-linecap="round" stroke-linejoin="round"/>
<path d="M413.96 8.57458L405.139 26.7096" stroke="#A0A09C" stroke-linecap="round" stroke-linejoin="round"/>
<path d="M339.717 11.7096L354.409 20.7396" stroke="#A0A09C" stroke-linecap="round" stroke-linejoin="round"/>
<path d="M365.49 22.9896L378.157 31.9146" stroke="#A0A09C" stroke-linecap="round" stroke-linejoin="round"/>
<path d="M621.715 199.99L636.234 233.455L664.613 226.96" stroke="#A0A09C" stroke-linecap="round" stroke-linejoin="round"/>
<path d="M650.11 213.415L629.548 218.05" stroke="#A0A09C" stroke-linecap="round" stroke-linejoin="round"/>
<path d="M648.634 230.62L642.889 215.05L635.183 206.86" stroke="#A0A09C" stroke-linecap="round" stroke-linejoin="round"/>
<path d="M398.625 218.05L351.427 181.465L338.854 190.9L320.003 226.99L339.733 253.345L260.2 327.4L173.369 355.465L131.711 371.785L108.967 386.77L124.695 407.23" stroke="#A0A09C" stroke-linecap="round" stroke-linejoin="round"/>
<path d="M0.757812 428.845L30.7846 393.775L39.4646 381.295L57.013 356.815L128.98 294.34L236.719 203.935L319.579 104.995" stroke="#A0A09C" stroke-linecap="round" stroke-linejoin="round"/>
<path d="M228.055 133.225L306.175 167.005L338.854 190.9" stroke="#A0A09C" stroke-linecap="round" stroke-linejoin="round"/>
<path d="M205.185 386.29L191.105 344.995L148.161 280.87L133.846 269.44L159.462 241.135L200.821 173.86L225.135 134.425L246.67 92.0796" stroke="#A0A09C" stroke-linecap="round" stroke-linejoin="round"/>
<path d="M240.565 138.625L210.067 181.465" stroke="#A0A09C" stroke-linecap="round" stroke-linejoin="round"/>
<path d="M253.796 144.355L218.857 188.785L182.771 228.205" stroke="#A0A09C" stroke-linecap="round" stroke-linejoin="round"/>
<path d="M270.732 151.675L230.299 198.43" stroke="#A0A09C" stroke-linecap="round" stroke-linejoin="round"/>
<path d="M246.67 212.725L279.067 179.86L301.482 188.785" stroke="#A0A09C" stroke-linecap="round" stroke-linejoin="round"/>
<path d="M261.833 228.205L268.912 216.58L252.604 206.695" stroke="#A0A09C" stroke-linecap="round" stroke-linejoin="round"/>
<path d="M326.988 213.61L299.849 196.285" stroke="#A0A09C" stroke-linecap="round" stroke-linejoin="round"/>
<path d="M336.044 196.285L304.95 172.69" stroke="#A0A09C" stroke-linecap="round" stroke-linejoin="round"/>
<path d="M321.651 221.455L297.809 205.75" stroke="#A0A09C" stroke-linecap="round" stroke-linejoin="round"/>
<path d="M291.75 233.845L313.426 249.25V255.715L301.481 268.705L293.272 269.44" stroke="#A0A09C" stroke-linecap="round" stroke-linejoin="round"/>
<path d="M352.714 325.3L351.631 298.825L329.86 275.53L324.633 264.4L313.426 255.715" stroke="#A0A09C" stroke-linecap="round" stroke-linejoin="round"/>
<path d="M329.64 239.86L322.043 244.75L315.153 242.305L313.426 249.25" stroke="#A0A09C" stroke-linecap="round" stroke-linejoin="round"/>
<path d="M248.428 126.715L272.098 138.625" stroke="#A0A09C" stroke-linecap="round" stroke-linejoin="round"/>
<path d="M175.598 184.48L187.417 195.655" stroke="#A0A09C" stroke-linecap="round" stroke-linejoin="round"/>
<path d="M137.88 176.02L225.308 247.015L281.783 307.3L313.426 353.86" stroke="#A0A09C" stroke-linecap="round" stroke-linejoin="round"/>
<path d="M291.185 361.345L275.834 312.85" stroke="#A0A09C" stroke-linecap="round" stroke-linejoin="round"/>
<path d="M284.718 363.37L265.914 322.09" stroke="#A0A09C" stroke-linecap="round" stroke-linejoin="round"/>
<path d="M270.733 317.59L230.299 275.845L190.258 242.92L168.927 225.745L127.662 190.9" stroke="#A0A09C" stroke-linecap="round" stroke-linejoin="round"/>
<path d="M117.522 204.94L159.462 241.135L216.094 292.27L248.428 331.21" stroke="#A0A09C" stroke-linecap="round" stroke-linejoin="round"/>
<path d="M268.912 368.155L230.205 337.105L159.462 268.705L145.351 256.735" stroke="#A0A09C" stroke-linecap="round" stroke-linejoin="round"/>
<path d="M149.448 252.205L108.042 217.45" stroke="#A0A09C" stroke-linecap="round" stroke-linejoin="round"/>
<path d="M200.225 277.945L168.283 310.93" stroke="#A0A09C" stroke-linecap="round" stroke-linejoin="round"/>
<path d="M165.019 264.1L194.669 283.675" stroke="#A0A09C" stroke-linecap="round" stroke-linejoin="round"/>
<path d="M268.912 234.49L239.717 262.405L230.299 275.845L216.094 292.27L201.921 309.745L170.465 331.21" stroke="#A0A09C" stroke-linecap="round" stroke-linejoin="round"/>
<path d="M214.681 322.09L201.826 334.045L207.131 344.545" stroke="#A0A09C" stroke-linecap="round" stroke-linejoin="round"/>
<path d="M212.782 342.73L225.308 380.71" stroke="#A0A09C" stroke-linecap="round" stroke-linejoin="round"/>
<path d="M235.51 341.35L246.074 374.83L271.8 420.97L284.718 456.7" stroke="#A0A09C" stroke-linecap="round" stroke-linejoin="round"/>
<path d="M235.51 315.64L255.021 301.375" stroke="#A0A09C" stroke-linecap="round" stroke-linejoin="round"/>
<path d="M275.316 255.715L249.527 272.875" stroke="#A0A09C" stroke-linecap="round" stroke-linejoin="round"/>
<path d="M262.414 272.875L289.27 255.715" stroke="#A0A09C" stroke-linecap="round" stroke-linejoin="round"/>
<path d="M260.404 284.485L292.519 264.94" stroke="#A0A09C" stroke-linecap="round" stroke-linejoin="round"/>
<path d="M273.385 298.33L296.804 277.945" stroke="#A0A09C" stroke-linecap="round" stroke-linejoin="round"/>
<path d="M225.308 247.015L252.603 218.32" stroke="#A0A09C" stroke-linecap="round" stroke-linejoin="round"/>
<path d="M246.686 350.32L275.316 342.73" stroke="#A0A09C" stroke-linecap="round" stroke-linejoin="round"/>
<path d="M257.94 359.365L255.021 348.1" stroke="#A0A09C" stroke-linecap="round" stroke-linejoin="round"/>
<path d="M325.748 282.85L304.26 301.375" stroke="#A0A09C" stroke-linecap="round" stroke-linejoin="round"/>
<path d="M321.651 297.16L306.85 309.61L325.748 307.405L343.5 290.515" stroke="#A0A09C" stroke-linecap="round" stroke-linejoin="round"/>
<path d="M311.621 325.3L325.748 312.445L336.044 322.09L345.352 312.445L352.368 316.78" stroke="#A0A09C" stroke-linecap="round" stroke-linejoin="round"/>
<path d="M160.169 360.64L120.489 301.705L77.167 251.65L79.5371 280.87L94.6055 324.175" stroke="#A0A09C" stroke-linecap="round" stroke-linejoin="round"/>
<path d="M87.8716 330.025L111.071 356.065L127.709 344.545" stroke="#A0A09C" stroke-linecap="round" stroke-linejoin="round"/>
<path d="M145.288 366.475L105.844 314.425L85.1249 284.485L55.4905 261.775L21.6338 238.33" stroke="#A0A09C" stroke-linecap="round" stroke-linejoin="round"/>
<path d="M102.564 361.72L93.9307 366.475" stroke="#A0A09C" stroke-linecap="round" stroke-linejoin="round"/>
<path d="M108.968 386.77L73.5256 342.475L25.7935 309.61" stroke="#A0A09C" stroke-linecap="round" stroke-linejoin="round"/>
<path d="M0.757812 284.485L27.6611 316.78L46.5907 342.73L96.1123 399.28" stroke="#A0A09C" stroke-linecap="round" stroke-linejoin="round"/>
<path d="M4.0542 363.37L57.0132 356.815" stroke="#A0A09C" stroke-linecap="round" stroke-linejoin="round"/>
<path d="M42.494 377.065L-7.31006 341.35" stroke="#A0A09C" stroke-linecap="round" stroke-linejoin="round"/>
<path d="M-7.31006 330.025L30.5335 305.26L83.2727 247.015" stroke="#A0A09C" stroke-linecap="round" stroke-linejoin="round"/>
<path d="M14.8218 301.375L48.4273 270.265" stroke="#A0A09C" stroke-linecap="round" stroke-linejoin="round"/>
<path d="M7.11475 292.105L28.0692 273.88" stroke="#A0A09C" stroke-linecap="round" stroke-linejoin="round"/>
<path d="M38.1305 239.185L-7.31006 277.945" stroke="#A0A09C" stroke-linecap="round" stroke-linejoin="round"/>
<path d="M31.6322 238.465L21.6337 228.205L-7.31006 218.32" stroke="#A0A09C" stroke-linecap="round" stroke-linejoin="round"/>
<path d="M-7.31006 226.75L40.1709 169.615L69.3659 144.355" stroke="#A0A09C" stroke-linecap="round" stroke-linejoin="round"/>
<path d="M107.241 99.2196L80.6045 130.195L102.563 153.67L138.665 123.775" stroke="#A0A09C" stroke-linecap="round" stroke-linejoin="round"/>
<path d="M152.446 153.67L114.367 120.775" stroke="#A0A09C" stroke-linecap="round" stroke-linejoin="round"/>
<path d="M92.4238 116.455L107.241 134.425L138.665 136.33" stroke="#A0A09C" stroke-linecap="round" stroke-linejoin="round"/>
<path d="M84.7951 91.6296L71.8457 103.975L84.7951 116.455L98.0898 103.21L84.7951 91.6296Z" stroke="#A0A09C" stroke-linecap="round" stroke-linejoin="round"/>
<path d="M-7.31006 60.1596L22.1517 42.2046" stroke="#A0A09C" stroke-linecap="round" stroke-linejoin="round"/>
<path d="M109.627 215.395L69.3659 191.71L26.1699 238.33" stroke="#A0A09C" stroke-linecap="round" stroke-linejoin="round"/>
<path d="M12.9854 202.315L57.4213 241.9" stroke="#A0A09C" stroke-linecap="round" stroke-linejoin="round"/>
<path d="M83.2726 222.115L89.7237 209.77L69.3658 191.71L17.584 151.675" stroke="#A0A09C" stroke-linecap="round" stroke-linejoin="round"/>
<path d="M54.7212 310.93L63.103 319.54L73.1956 310.93L63.9663 302.395" stroke="#A0A09C" stroke-linecap="round" stroke-linejoin="round"/>
<path d="M60.5288 308.5L67.906 315.445" stroke="#A0A09C" stroke-linecap="round" stroke-linejoin="round"/>
<path d="M64.2178 318.595L82.3312 334.84" stroke="#A0A09C" stroke-linecap="round" stroke-linejoin="round"/>
<path d="M71.4219 312.445L86.2862 330.01" stroke="#A0A09C" stroke-linecap="round" stroke-linejoin="round"/>
<path d="M30.9102 321.235L63.1031 350.455" stroke="#A0A09C" stroke-linecap="round" stroke-linejoin="round"/>
<path d="M147.988 319.54L137.88 327.535" stroke="#A0A09C" stroke-linecap="round" stroke-linejoin="round"/>
<path d="M160.168 336.445L149.338 344.56" stroke="#A0A09C" stroke-linecap="round" stroke-linejoin="round"/>
<path d="M131.711 371.785L150.5 400.825" stroke="#A0A09C" stroke-linecap="round" stroke-linejoin="round"/>
<path d="M154.753 363.37L168.284 396.205" stroke="#A0A09C" stroke-linecap="round" stroke-linejoin="round"/>
<path d="M166.667 358.09L182.975 392.305" stroke="#A0A09C" stroke-linecap="round" stroke-linejoin="round"/>
<path d="M161.911 380.71H168.283L174.813 394.48" stroke="#A0A09C" stroke-linecap="round" stroke-linejoin="round"/>
<path d="M96.9757 371.785L45.9316 411.04" stroke="#A0A09C" stroke-linecap="round" stroke-linejoin="round"/>
<path d="M84.9995 370.225L90.9955 376.405" stroke="#A0A09C" stroke-linecap="round" stroke-linejoin="round"/>
<path d="M-7.31006 373.315L25.3537 387.595L30.7846 393.775L-7.31006 424.18" stroke="#A0A09C" stroke-linecap="round" stroke-linejoin="round"/>
<path d="M-2.8208 411.805L15.4025 383.245" stroke="#A0A09C" stroke-linecap="round" stroke-linejoin="round"/>
<path d="M-2.8208 493.69H10.1286L15.4025 502.75L135.29 421.12" stroke="#A0A09C" stroke-linecap="round" stroke-linejoin="round"/>
<path d="M145.289 417.505L168.362 408.775" stroke="#A0A09C" stroke-linecap="round" stroke-linejoin="round"/>
<path d="M166.667 396.64L174.813 425.89L205.53 417.505" stroke="#A0A09C" stroke-linecap="round" stroke-linejoin="round"/>
<path d="M209.58 428.845L186.099 436.45" stroke="#A0A09C" stroke-linecap="round" stroke-linejoin="round"/>
<path d="M213.473 439.66L106.393 463.78" stroke="#A0A09C" stroke-linecap="round" stroke-linejoin="round"/>
<path d="M123.958 428.845L161.911 509.8L166.667 525.91L216.424 520.375" stroke="#A0A09C" stroke-linecap="round" stroke-linejoin="round"/>
<path d="M225.308 472.405L182.975 485.59L174.813 524.995L181.594 568.39" stroke="#A0A09C" stroke-linecap="round" stroke-linejoin="round"/>
<path d="M111.291 560.11L168.362 552.22L238.336 549.205L262.272 562.36L290.18 592.09L411.182 587.68L583.511 593.89H682.899L728.371 599.29L765.587 610.225L792.411 625.795" stroke="#A0A09C" stroke-linecap="round" stroke-linejoin="round"/>
<path d="M166.667 525.91L57.0131 528.91L15.4025 502.75L-2.8208 515.83" stroke="#A0A09C" stroke-linecap="round" stroke-linejoin="round"/>
<path d="M-2.8208 504.43L108.23 499.735" stroke="#A0A09C" stroke-linecap="round" stroke-linejoin="round"/>
<path d="M69.4287 465.955L96.1123 500.26L96.9755 515.83L109.423 527.47" stroke="#A0A09C" stroke-linecap="round" stroke-linejoin="round"/>
<path d="M57.0132 502.09L58.9438 565.03" stroke="#A0A09C" stroke-linecap="round" stroke-linejoin="round"/>
<path d="M111.291 563.98L57.0132 528.91L69.4289 517.855L67.3727 502.09" stroke="#A0A09C" stroke-linecap="round" stroke-linejoin="round"/>
<path d="M96.1122 508.12H68.1572" stroke="#A0A09C" stroke-linecap="round" stroke-linejoin="round"/>
<path d="M96.9756 515.83L69.4287 517.855" stroke="#A0A09C" stroke-linecap="round" stroke-linejoin="round"/>
<path d="M33.6257 514.21L21.6338 530.275L25.7933 534.955" stroke="#A0A09C" stroke-linecap="round" stroke-linejoin="round"/>
<path d="M57.013 528.91L33.6256 533.035L-7.31006 555.775" stroke="#A0A09C" stroke-linecap="round" stroke-linejoin="round"/>
<path d="M42.5726 565.9L42.4941 545.71" stroke="#A0A09C" stroke-linecap="round" stroke-linejoin="round"/>
<path d="M60.482 427.66L42.4941 436.45" stroke="#A0A09C" stroke-linecap="round" stroke-linejoin="round"/>
<path d="M69.4286 437.89L43.8438 450.775" stroke="#A0A09C" stroke-linecap="round" stroke-linejoin="round"/>
<path d="M77.8102 447.46L58.9434 460.12" stroke="#A0A09C" stroke-linecap="round" stroke-linejoin="round"/>
<path d="M51.4878 478.18V495.37" stroke="#A0A09C" stroke-linecap="round" stroke-linejoin="round"/>
<path d="M159.933 458.26L219.045 455.125" stroke="#A0A09C" stroke-linecap="round" stroke-linejoin="round"/>
<path d="M207.131 550.555V539.335L307.257 356.065" stroke="#A0A09C" stroke-linecap="round" stroke-linejoin="round"/>
<path d="M177.167 540.025L207.132 539.335" stroke="#A0A09C" stroke-linecap="round" stroke-linejoin="round"/>
<path d="M219.971 515.83L239.639 511.345" stroke="#A0A09C" stroke-linecap="round" stroke-linejoin="round"/>
<path d="M260.42 441.805L219.971 382.21L311.621 450.775L257.94 461.935" stroke="#A0A09C" stroke-linecap="round" stroke-linejoin="round"/>
<path d="M262.272 370.12L271.8 420.97" stroke="#A0A09C" stroke-linecap="round" stroke-linejoin="round"/>
<path d="M293.319 381.565L265.945 389.755" stroke="#A0A09C" stroke-linecap="round" stroke-linejoin="round"/>
<path d="M313.426 420.97L280.731 427.66" stroke="#A0A09C" stroke-linecap="round" stroke-linejoin="round"/>
<path d="M312.516 428.845L343.673 427.66" stroke="#A0A09C" stroke-linecap="round" stroke-linejoin="round"/>
<path d="M351.332 449.44L311.621 450.775" stroke="#A0A09C" stroke-linecap="round" stroke-linejoin="round"/>
<path d="M310.883 472.405L357.313 465.955" stroke="#A0A09C" stroke-linecap="round" stroke-linejoin="round"/>
<path d="M310.161 495.13L365.694 488.845" stroke="#A0A09C" stroke-linecap="round" stroke-linejoin="round"/>
<path d="M325.167 551.08L315.325 514.21L316.565 498.055" stroke="#A0A09C" stroke-linecap="round" stroke-linejoin="round"/>
<path d="M141.098 430.555L153.074 425.89" stroke="#A0A09C" stroke-linecap="round" stroke-linejoin="round"/>
<path d="M156.825 553.81L161.895 583.885" stroke="#A0A09C" stroke-linecap="round" stroke-linejoin="round"/>
<path d="M174.813 559.96L158.269 562.36" stroke="#A0A09C" stroke-linecap="round" stroke-linejoin="round"/>
<path d="M119.044 564.955L142.761 589.24L150.5 612.94L159.368 654.46L211.37 679.96L236.546 687.235" stroke="#A0A09C" stroke-linecap="round" stroke-linejoin="round"/>
<path d="M228.258 669.7H216.423L174.813 649.09H158.269" stroke="#A0A09C" stroke-linecap="round" stroke-linejoin="round"/>
<path d="M159.368 654.46L149.213 663.205L118.385 668.095L99.3458 677.695L71.6577 712.465" stroke="#A0A09C" stroke-linecap="round" stroke-linejoin="round"/>
<path d="M174.813 649.09L179.443 608.41L177.795 579.325" stroke="#A0A09C" stroke-linecap="round" stroke-linejoin="round"/>
<path d="M230.801 601.855L178.988 600.325" stroke="#A0A09C" stroke-linecap="round" stroke-linejoin="round"/>
<path d="M141.804 685.33L154.125 668.095" stroke="#A0A09C" stroke-linecap="round" stroke-linejoin="round"/>
<path d="M149.212 663.205L180.966 681.82" stroke="#A0A09C" stroke-linecap="round" stroke-linejoin="round"/>
<path d="M187.182 668.095L170.198 705.58" stroke="#A0A09C" stroke-linecap="round" stroke-linejoin="round"/>
<path d="M192.142 718.15L221.242 654.46" stroke="#A0A09C" stroke-linecap="round" stroke-linejoin="round"/>
<path d="M146.042 687.234L119.044 739.705" stroke="#A0A09C" stroke-linecap="round" stroke-linejoin="round"/>
<path d="M150.609 753.46C150.609 753.46 136.922 737.68 115.497 740.71C94.0717 743.74 92.455 730.105 92.455 730.105L89.4256 720.505L-7.31006 676.705" stroke="#A0A09C" stroke-linecap="round" stroke-linejoin="round"/>
<path d="M16.2342 715.09L27.6297 692.53L54.737 640.3L-7.31006 669.7" stroke="#A0A09C" stroke-linecap="round" stroke-linejoin="round"/>
<path d="M38.2875 619.345L12.5928 588.34L86.208 574.24" stroke="#A0A09C" stroke-linecap="round" stroke-linejoin="round"/>
<path d="M62.1144 689.095L43.687 661.599" stroke="#A0A09C" stroke-linecap="round" stroke-linejoin="round"/>
<path d="M254.22 563.515L257.202 590.11L233.956 681.82L219.971 728.995L206.692 759.205" stroke="#A0A09C" stroke-linecap="round" stroke-linejoin="round"/>
<path d="M289.348 756.49L278.659 711.925" stroke="#A0A09C" stroke-linecap="round" stroke-linejoin="round"/>
<path d="M262.272 756.49L281.908 725.455" stroke="#A0A09C" stroke-linecap="round" stroke-linejoin="round"/>
<path d="M330.582 705.579L309.361 740.964" stroke="#A0A09C" stroke-linecap="round" stroke-linejoin="round"/>
<path d="M335.464 619.345L300.351 622.66L291.169 708.775" stroke="#A0A09C" stroke-linecap="round" stroke-linejoin="round"/>
<path d="M302.69 705.88L322.326 620.575" stroke="#A0A09C" stroke-linecap="round" stroke-linejoin="round"/>
<path d="M328.746 699.37L334.412 618.535" stroke="#A0A09C" stroke-linecap="round" stroke-linejoin="round"/>
<path d="M363.937 641.155L332.921 637.885" stroke="#A0A09C" stroke-linecap="round" stroke-linejoin="round"/>
<path d="M352.4 727.09L373.527 697.915" stroke="#A0A09C" stroke-linecap="round" stroke-linejoin="round"/>
<path d="M412.249 721.765L390.086 759.205" stroke="#A0A09C" stroke-linecap="round" stroke-linejoin="round"/>
<path d="M420.961 734.2L404.496 759.205" stroke="#A0A09C" stroke-linecap="round" stroke-linejoin="round"/>
<path d="M257.202 631.555L290.18 644.71" stroke="#A0A09C" stroke-linecap="round" stroke-linejoin="round"/>
<path d="M616.975 593.89L621.04 543.115L684.108 549.205" stroke="#A0A09C" stroke-linecap="round" stroke-linejoin="round"/>
<path d="M640.943 535.81L636.674 593.89L625.969 651.37L597.527 647.455" stroke="#A0A09C" stroke-linecap="round" stroke-linejoin="round"/>
<path d="M792.411 672.235L767.784 669.955L681.926 647.455L622.814 634.855" stroke="#A0A09C" stroke-linecap="round" stroke-linejoin="round"/>
<path d="M634.728 652.51L636.878 637.855" stroke="#A0A09C" stroke-linecap="round" stroke-linejoin="round"/>
<path d="M552.322 613.015L594.435 617.59H662.698V593.59" stroke="#A0A09C" stroke-linecap="round" stroke-linejoin="round"/>
<path d="M594.436 617.59L628.167 593.59L625.483 617.59" stroke="#A0A09C" stroke-linecap="round" stroke-linejoin="round"/>
<path d="M791.124 524.455L730.317 513.055L669.275 497.485L632.153 483.715" stroke="#A0A09C" stroke-linecap="round" stroke-linejoin="round"/>
<path d="M713.522 377.065H660.516L655.651 418.225L647.614 447.505L634.979 472.375L623.787 508.87L619.251 529.03L606.208 548.59" stroke="#A0A09C" stroke-linecap="round" stroke-linejoin="round"/>
<path d="M570.797 561.73L585.834 529.03" stroke="#A0A09C" stroke-linecap="round" stroke-linejoin="round"/>
<path d="M532.938 529.03H619.251H659.606" stroke="#A0A09C" stroke-linecap="round" stroke-linejoin="round"/>
<path d="M623.787 508.87L643.737 514.915L649.576 529.03" stroke="#A0A09C" stroke-linecap="round" stroke-linejoin="round"/>
<path d="M647.19 476.635L546.86 442.165L521.73 517.945" stroke="#A0A09C" stroke-linecap="round" stroke-linejoin="round"/>
<path d="M573.795 520.375L524.744 508.87" stroke="#A0A09C" stroke-linecap="round" stroke-linejoin="round"/>
<path d="M585.834 511.735L528.872 496.39" stroke="#A0A09C" stroke-linecap="round" stroke-linejoin="round"/>
<path d="M589.491 483.715L537.725 469.705L487.607 456.07" stroke="#A0A09C" stroke-linecap="round" stroke-linejoin="round"/>
<path d="M579.963 515.875L584.453 500.44L619.251 402.055L626.785 399.865L640.943 445.495" stroke="#A0A09C" stroke-linecap="round" stroke-linejoin="round"/>
<path d="M701.876 454.15L647.614 447.505L607.448 435.415L546.86 429.955L473.747 409.15L428.291 382.21L336.767 339.805" stroke="#A0A09C" stroke-linecap="round" stroke-linejoin="round"/>
<path d="M325.748 370.12L353.561 361.345L361.708 351.355" stroke="#A0A09C" stroke-linecap="round" stroke-linejoin="round"/>
<path d="M381.391 332.695L366.307 353.485" stroke="#A0A09C" stroke-linecap="round" stroke-linejoin="round"/>
<path d="M333.078 391.72L345.525 382.21L371.863 356.065L408.09 343.885" stroke="#A0A09C" stroke-linecap="round" stroke-linejoin="round"/>
<path d="M353.562 361.345L361.708 366.955L395.941 383.965" stroke="#A0A09C" stroke-linecap="round" stroke-linejoin="round"/>
<path d="M343.72 383.575L393.006 399.865" stroke="#A0A09C" stroke-linecap="round" stroke-linejoin="round"/>
<path d="M349.182 443.41L390.369 435.895" stroke="#A0A09C" stroke-linecap="round" stroke-linejoin="round"/>
<path d="M339.812 415.87L378.785 403.585L455.571 429.955" stroke="#A0A09C" stroke-linecap="round" stroke-linejoin="round"/>
<path d="M414.604 447.46L423.771 412.87" stroke="#A0A09C" stroke-linecap="round" stroke-linejoin="round"/>
<path d="M414.604 415.885L419.187 405.205" stroke="#A0A09C" stroke-linecap="round" stroke-linejoin="round"/>
<path d="M397.699 496.39L410.727 476.71L467.783 414.73L499.081 380.02" stroke="#A0A09C" stroke-linecap="round" stroke-linejoin="round"/>
<path d="M438.854 520.405L444.285 472.405L458.867 434.95L464.894 417.88" stroke="#A0A09C" stroke-linecap="round" stroke-linejoin="round"/>
<path d="M441.994 490.045H434.821V498.055" stroke="#A0A09C" stroke-linecap="round" stroke-linejoin="round"/>
<path d="M499.081 488.845L490.228 523.285L492.206 590.59" stroke="#A0A09C" stroke-linecap="round" stroke-linejoin="round"/>
<path d="M408.812 578.95L369.775 577.825L404.495 561.73L536.328 568.39" stroke="#A0A09C" stroke-linecap="round" stroke-linejoin="round"/>
<path d="M496.711 498.055L464.895 484.78L461.033 522.895L456.811 564.37L459.322 629.08L448.382 670.465L450.203 699.37L430.975 756.49" stroke="#A0A09C" stroke-linecap="round" stroke-linejoin="round"/>
<path d="M444.505 752.995L449.904 744.13L459.526 746.71L455.618 756.49" stroke="#A0A09C" stroke-linecap="round" stroke-linejoin="round"/>
<path d="M469.148 665.455L470.639 707.05L453.829 745.18" stroke="#A0A09C" stroke-linecap="round" stroke-linejoin="round"/>
<path d="M463.843 742.33L470.639 727.09L469.336 710.02" stroke="#A0A09C" stroke-linecap="round" stroke-linejoin="round"/>
<path d="M440.487 728.26L434.036 695.995L470.137 692.785" stroke="#A0A09C" stroke-linecap="round" stroke-linejoin="round"/>
<path d="M437.254 711.925L422.264 726.85" stroke="#A0A09C" stroke-linecap="round" stroke-linejoin="round"/>
<path d="M481.752 738.355L508.734 742.33L533.314 750.865" stroke="#A0A09C" stroke-linecap="round" stroke-linejoin="round"/>
<path d="M564.361 733L558.82 750.88" stroke="#A0A09C" stroke-linecap="round" stroke-linejoin="round"/>
<path d="M570.797 756.49L594.2 678.055" stroke="#A0A09C" stroke-linecap="round" stroke-linejoin="round"/>
<path d="M550.455 701.455L584.092 711.925" stroke="#A0A09C" stroke-linecap="round" stroke-linejoin="round"/>
<path d="M524.744 700.84L533.314 703.33L589.805 692.785L530.505 685.33L507.259 678.055" stroke="#A0A09C" stroke-linecap="round" stroke-linejoin="round"/>
<path d="M534.083 675.46L510.335 667.435" stroke="#A0A09C" stroke-linecap="round" stroke-linejoin="round"/>
<path d="M502.032 657.505L488.988 690.7L502.032 692.785L514.589 654.475" stroke="#A0A09C" stroke-linecap="round" stroke-linejoin="round"/>
<path d="M467.233 630.625L486.085 661.36L496.711 636.4L507.259 591.13L519.329 544.21" stroke="#A0A09C" stroke-linecap="round" stroke-linejoin="round"/>
<path d="M512.705 544.21L519.329 520.39" stroke="#A0A09C" stroke-linecap="round" stroke-linejoin="round"/>
<path d="M524.744 545.38L530.426 526.36" stroke="#A0A09C" stroke-linecap="round" stroke-linejoin="round"/>
<path d="M476.196 597.43L474.187 614.199L500.383 620.635" stroke="#A0A09C" stroke-linecap="round" stroke-linejoin="round"/>
<path d="M502.801 610.27L549.623 625.48" stroke="#A0A09C" stroke-linecap="round" stroke-linejoin="round"/>
<path d="M527.585 642.805L537.725 592.24L534.193 575.44" stroke="#A0A09C" stroke-linecap="round" stroke-linejoin="round"/>
<path d="M430.975 588.385V609.025H441.994V588.79" stroke="#A0A09C" stroke-linecap="round" stroke-linejoin="round"/>
<path d="M382.16 539.335L390.087 570.34L386.288 590.59V614.455L362.603 691.195L418.246 725.455" stroke="#A0A09C" stroke-linecap="round" stroke-linejoin="round"/>
<path d="M359.447 589.57V610.27" stroke="#A0A09C" stroke-linecap="round" stroke-linejoin="round"/>
<path d="M428.464 651.355L385.786 616.075" stroke="#A0A09C" stroke-linecap="round" stroke-linejoin="round"/>
<path d="M648.022 673.63L632.012 713.365L595.832 701.455" stroke="#A0A09C" stroke-linecap="round" stroke-linejoin="round"/>
<path d="M594.436 673.75L642.074 688.39" stroke="#A0A09C" stroke-linecap="round" stroke-linejoin="round"/>
<path d="M661.16 677.215L645.228 718.345L634.728 756.49" stroke="#A0A09C" stroke-linecap="round" stroke-linejoin="round"/>
<path d="M599.458 719.395L640.77 734.53" stroke="#A0A09C" stroke-linecap="round" stroke-linejoin="round"/>
<path d="M601.828 728.26L638.73 741.94" stroke="#A0A09C" stroke-linecap="round" stroke-linejoin="round"/>
<path d="M533.314 703.33L532.498 725.455L419.108 728.26" stroke="#A0A09C" stroke-linecap="round" stroke-linejoin="round"/>
<path d="M522.531 706.69L546.326 713.365" stroke="#A0A09C" stroke-linecap="round" stroke-linejoin="round"/>
<path d="M274.547 575.44H305.641" stroke="#A0A09C" stroke-linecap="round" stroke-linejoin="round"/>
<path d="M451.882 361.345L440.377 389.38L490.919 389.065L503.272 416.77L483.181 467.155L433.581 453.31L390.4 439.645" stroke="#A0A09C" stroke-linecap="round" stroke-linejoin="round"/>
<path d="M542.245 456.07L494.152 439.645" stroke="#A0A09C" stroke-linecap="round" stroke-linejoin="round"/>
<path d="M546.86 442.165L549.262 429.955" stroke="#A0A09C" stroke-linecap="round" stroke-linejoin="round"/>
<path d="M548.069 387.775L557.361 411.835" stroke="#A0A09C" stroke-linecap="round" stroke-linejoin="round"/>
<path d="M658.774 390.595L546.86 423.025" stroke="#A0A09C" stroke-linecap="round" stroke-linejoin="round"/>
<path d="M554.975 420.67L563.498 393.745L560.123 383.965" stroke="#A0A09C" stroke-linecap="round" stroke-linejoin="round"/>
<path d="M559.354 406.81L582.726 402.175" stroke="#A0A09C" stroke-linecap="round" stroke-linejoin="round"/>
<path d="M576.73 389.065L563.498 393.745" stroke="#A0A09C" stroke-linecap="round" stroke-linejoin="round"/>
<path d="M493.289 386.44L508.42 396.97V410.545L503.272 416.77" stroke="#A0A09C" stroke-linecap="round" stroke-linejoin="round"/>
<path d="M512.705 420.235L516.017 410.545L547.551 417.88" stroke="#A0A09C" stroke-linecap="round" stroke-linejoin="round"/>
<path d="M541.523 402.175L516.017 396.04V385.435" stroke="#A0A09C" stroke-linecap="round" stroke-linejoin="round"/>
<path d="M559.229 459.22L566.276 472.405L590.684 457.225" stroke="#A0A09C" stroke-linecap="round" stroke-linejoin="round"/>
<path d="M559.229 487.075L549.262 529.03" stroke="#A0A09C" stroke-linecap="round" stroke-linejoin="round"/>
<path d="M616.975 447.85L633.346 454.15" stroke="#A0A09C" stroke-linecap="round" stroke-linejoin="round"/>
<path d="M632.153 442.855L628.386 452.245" stroke="#A0A09C" stroke-linecap="round" stroke-linejoin="round"/>
<path d="M621.715 365.17L630.27 393.745L650.549 369.625L660.406 370.72L662.745 354.79" stroke="#A0A09C" stroke-linecap="round" stroke-linejoin="round"/>
<path d="M390.369 423.025L419.187 429.955" stroke="#A0A09C" stroke-linecap="round" stroke-linejoin="round"/>
<path d="M374.846 438.445L372.052 420.235" stroke="#A0A09C" stroke-linecap="round" stroke-linejoin="round"/>
<path d="M381.391 424.315L363.528 425.89" stroke="#A0A09C" stroke-linecap="round" stroke-linejoin="round"/>
<path d="M446.781 437.56L428.73 435.895" stroke="#A0A09C" stroke-linecap="round" stroke-linejoin="round"/>
<path d="M372.052 504.07C372.052 504.07 379.131 501.175 381.391 504.07C381.391 504.07 383.965 495.67 392.551 499.975C392.551 499.975 393.901 498.055 399.285 498.055H441.382" stroke="#A0A09C" stroke-linecap="round" stroke-linejoin="round"/>
<path d="M378.785 522.955L404.229 514.915" stroke="#A0A09C" stroke-linecap="round" stroke-linejoin="round"/>
<path d="M381.391 504.07L386.869 520.39" stroke="#A0A09C" stroke-linecap="round" stroke-linejoin="round"/>
<path d="M392.551 499.96L397.699 516.985" stroke="#A0A09C" stroke-linecap="round" stroke-linejoin="round"/>
<path d="M402.219 270.265L389.05 282.865L333.078 227.365C333.078 227.365 329.938 223.045 336.751 217.36C343.563 211.675 347.612 216.55 347.612 216.55L402.219 270.265Z" stroke="#A0A09C" stroke-linecap="round" stroke-linejoin="round"/>
<path d="M333.078 227.41L319.987 226.99" stroke="#A0A09C" stroke-linecap="round" stroke-linejoin="round"/>
<path d="M346.592 215.71L347.613 184.33" stroke="#A0A09C" stroke-linecap="round" stroke-linejoin="round"/>
<path d="M377.482 201.655L337.143 239.86" stroke="#A0A09C" stroke-linecap="round" stroke-linejoin="round"/>
<path d="M380.072 294.43L342.48 259.75L369.791 233.845C373.578 231.287 377.597 229.058 381.799 227.185C386.508 225.385 392.676 224.56 391.719 219.505C390.761 214.45 375.207 203.8 375.207 203.8" stroke="#A0A09C" stroke-linecap="round" stroke-linejoin="round"/>
<path d="M360.578 242.59L389.804 270.265L383.431 277.285" stroke="#A0A09C" stroke-linecap="round" stroke-linejoin="round"/>
<path d="M380.323 248.755L367.28 261.28" stroke="#A0A09C" stroke-linecap="round" stroke-linejoin="round"/>
<path d="M383.698 289.6L347.612 255.145" stroke="#A0A09C" stroke-linecap="round" stroke-linejoin="round"/>
<path d="M346.592 249.115L325.167 226.99L347.613 188.785L372.146 206.695L397.982 266.92L385.425 279.265" stroke="#A0A09C" stroke-linecap="round" stroke-linejoin="round"/>
<path d="M377.482 297.07L352.368 273.55" stroke="#A0A09C" stroke-linecap="round" stroke-linejoin="round"/>
<path d="M393.603 256.735L398.625 255.145L396.114 242.59" stroke="#A0A09C" stroke-linecap="round" stroke-linejoin="round"/>
<path d="M-7.31006 -9.54541C-7.31006 -9.54541 49.9811 57.2046 85.2975 82.7046C120.614 108.205 243.829 207.205 254.817 220.705C265.804 234.205 283.07 243.955 287.779 252.205C292.487 260.455 333.298 396.205 341.93 422.455C350.563 448.705 377.247 519.955 377.247 519.955C377.247 519.955 385.095 537.955 396.867 534.955C396.867 534.955 410.994 534.205 402.329 507.955C393.665 481.705 377.718 422.065 408.09 343.885C408.09 343.885 449.905 425.455 463.027 440.455C476.149 455.455 513.804 512.455 524.006 519.955C534.209 527.455 540.487 541.705 549.12 551.455C557.753 561.205 560.108 573.955 575.804 585.955C591.5 597.955 602.487 628.705 595.424 666.205C588.361 703.705 612.69 759.205 612.69 759.205" stroke="#686866" stroke-width="3" stroke-linecap="round" stroke-linejoin="round"/>
<path d="M658.774 44.4546C658.774 44.4546 651.931 78.2046 639.374 98.4546C626.817 118.705 609.771 170.02 608.876 194.98" stroke="#686866" stroke-width="3" stroke-linecap="round" stroke-linejoin="round"/>
<path d="M365.49 90.9996L411.841 268.705C411.841 268.705 407.854 239.455 418.12 221.455C428.385 203.455 451.757 141.325 451.757 141.325" stroke="#686866" stroke-width="3" stroke-linecap="round" stroke-linejoin="round"/>
<path d="M287.778 252.205L343.5 -5.79541" stroke="#686866" stroke-width="3" stroke-linecap="round" stroke-linejoin="round"/>
<path d="M264.234 -5.79541C264.234 -5.79541 273.495 50.4546 354.409 36.2046C435.323 21.9546 569.526 -5.79541 569.526 -5.79541" stroke="#686866" stroke-width="3" stroke-linecap="round" stroke-linejoin="round"/>
<path d="M515.813 5.13959L497.056 48.2646" stroke="#686866" stroke-width="3" stroke-linecap="round" stroke-linejoin="round"/>
<path d="M238.336 -5.79541C238.336 -5.79541 164.94 159.01 80.6045 249.865" stroke="#686866" stroke-width="3" stroke-linecap="round" stroke-linejoin="round"/>
<path d="M-7.31006 350.455C-7.31006 350.455 177.12 559.705 183.399 570.955C189.677 582.205 246.968 716.77 254.032 718.105C261.095 719.44 286.727 681.205 286.727 681.205" stroke="#686866" stroke-width="3" stroke-linecap="round" stroke-linejoin="round"/>
<path d="M243.139 700.555C243.139 700.555 259.196 666.955 270.733 672.955C282.269 678.955 318.857 691.645 342.166 716.05C355.33 729.648 367.537 744.065 378.707 759.205" stroke="#686866" stroke-width="3" stroke-linecap="round" stroke-linejoin="round"/>
<path d="M543.626 647.455L323.785 700.57L254.031 718.12L236.546 759.205" stroke="#686866" stroke-width="3" stroke-linecap="round" stroke-linejoin="round"/>
<path d="M448.382 670.465L415.075 715.09" stroke="#686866" stroke-width="3" stroke-linecap="round" stroke-linejoin="round"/>
<path d="M-7.31006 569.455C-7.31006 569.455 88.4368 561.205 119.044 564.955C149.652 568.705 473.779 631.705 514.589 639.955C555.399 648.205 753.956 699.955 792.412 718.33" stroke="#686866" stroke-width="3" stroke-linecap="round" stroke-linejoin="round"/>
<path d="M-7.31006 641.155C-7.31006 641.155 24.8672 622.705 52.3355 614.455C79.8039 606.205 163.182 584.065 186.24 576.76C209.298 569.455 254.079 563.455 281.531 559.705C308.984 555.955 382.741 537.205 396.867 534.955C396.867 534.955 404.511 535.105 404.715 526.855C404.715 526.855 423.048 516.205 456.67 522.205C490.291 528.205 515.06 515.905 528.182 523.555" stroke="#686866" stroke-width="3" stroke-linecap="round" stroke-linejoin="round"/>
<path d="M404.496 672.235L310.648 600.31C310.648 600.31 301.513 568.375 306.41 554.29C311.307 540.205 309.691 398.455 319.532 350.455" stroke="#686866" stroke-width="3" stroke-linecap="round" stroke-linejoin="round"/>
<path d="M126.893 406.705C126.893 406.705 152.007 452.455 177.905 480.205C203.804 507.955 235.196 537.205 238.336 549.205C241.475 561.205 219.72 651.1 219.72 651.1L265.804 672.235" stroke="#686866" stroke-width="3" stroke-linecap="round" stroke-linejoin="round"/>
<path d="M-7.31006 611.455C-7.31006 611.455 28.0064 624.955 49.9811 637.705C71.9558 650.455 115.12 663.205 128.462 674.455C141.804 685.705 172.411 710.455 198.31 720.205C224.209 729.955 265.019 748.705 276.006 759.205" stroke="#686866" stroke-width="3" stroke-linecap="round" stroke-linejoin="round"/>
<path d="M73.5254 759.205C73.5254 759.205 116.141 699.985 118.385 668.095C120.63 636.205 110.411 565.885 109.627 534.295C108.842 502.705 103.474 411.865 103.474 411.865" stroke="#686866" stroke-width="3" stroke-linecap="round" stroke-linejoin="round"/>
<path d="M558.821 566.2C558.821 566.2 556.184 607.705 543.627 647.455C531.07 687.205 502.032 759.205 502.032 759.205" stroke="#686866" stroke-width="3" stroke-linecap="round" stroke-linejoin="round"/>
<path d="M567.438 652.51L530.426 759.205" stroke="#686866" stroke-width="3" stroke-linecap="round" stroke-linejoin="round"/>
<path d="M637.804 759.205C637.804 759.205 688.032 734.455 706.867 725.455" stroke="#686866" stroke-width="3" stroke-linecap="round" stroke-linejoin="round"/>
<path d="M607.259 745.18L407.242 688.39" stroke="#686866" stroke-width="3" stroke-linecap="round" stroke-linejoin="round"/>
<path d="M488.282 660.865C488.282 660.865 495 705.25 474.155 759.25" stroke="#686866" stroke-width="3" stroke-linecap="round" stroke-linejoin="round"/>
<path d="M367.029 744.13L405.532 681.82" stroke="#686866" stroke-width="3" stroke-linecap="round" stroke-linejoin="round"/>
<path d="M310.648 600.325L276.006 675.46" stroke="#686866" stroke-width="3" stroke-linecap="round" stroke-linejoin="round"/>
<path d="M60.4819 643.12C60.4819 643.12 145.979 604.12 200.398 608.125C254.817 612.13 302.69 617.56 302.69 617.56" stroke="#686866" stroke-width="3" stroke-linecap="round" stroke-linejoin="round"/>
<path d="M-7.31006 725.455C-7.31006 725.455 56.2596 699.67 69.6013 681.805C82.9431 663.94 94.3699 637.255 92.1882 623.98C90.0064 610.705 85.2975 577.99 86.0823 563.98" stroke="#686866" stroke-width="3" stroke-linecap="round" stroke-linejoin="round"/>
<path d="M434.13 672.235L396.867 534.955L601.279 550.405" stroke="#686866" stroke-width="3" stroke-linecap="round" stroke-linejoin="round"/>
<path d="M514.589 639.955L543.627 544.375C543.627 544.375 589.036 504.205 637.804 480.955C686.572 457.705 778.348 430.705 792.474 398.455" stroke="#686866" stroke-width="3" stroke-linecap="round" stroke-linejoin="round"/>
<path d="M-7.31006 288.955C-7.31006 288.955 53.9051 263.455 80.5887 249.955" stroke="#686866" stroke-width="3" stroke-linecap="round" stroke-linejoin="round"/>
<path d="M792.411 469.705C792.411 469.705 767.297 490.705 684.892 519.955C602.487 549.205 435.888 612.205 423.441 618.205C410.994 624.205 401.199 663.76 405.531 681.805C409.864 699.85 428.825 759.205 428.825 759.205" stroke="white" stroke-width="3" stroke-linecap="round" stroke-linejoin="round"/>
<path d="M-7.31006 241.705C-7.31006 241.705 70.3861 222.205 115.12 276.955C144.055 312.821 170.854 350.215 195.391 388.96C195.391 388.96 239.937 514.705 250.924 540.205C261.911 565.705 276.823 578.455 268.19 597.955C259.557 617.455 249.354 663.205 249.354 663.205" stroke="white" stroke-width="3" stroke-linecap="round" stroke-linejoin="round"/>
<path d="M-7.31006 366.955C-7.31006 366.955 97.0697 398.455 128.462 410.455C159.855 422.455 245.854 465.955 270.732 477.205C295.611 488.455 396.867 534.955 396.867 534.955L434.538 673.795L448.335 670.465L415.138 715.09" stroke="white" stroke-width="3" stroke-linecap="round" stroke-linejoin="round"/>
<path d="M354.409 324.67C354.409 324.67 404.056 280.705 411.842 268.705C419.627 256.705 438.525 199.705 456.513 197.455C474.501 195.205 584.437 185.455 596.994 189.955C609.551 194.455 669.981 224.455 685.678 225.955C701.374 227.455 772.791 224.455 792.412 221.455" stroke="white" stroke-width="3" stroke-linecap="round" stroke-linejoin="round"/>
<path d="M-7.31006 429.955C-7.31006 429.955 76.6646 418.705 126.892 406.705C177.12 394.705 308.089 358.705 323.095 349.705C338.101 340.705 347.33 323.455 358.38 324.205C369.43 324.955 517.775 395.455 542.104 389.455C566.433 383.455 676.307 339.955 792.459 337.705" stroke="#D8D8D6" stroke-width="4" stroke-linecap="round" stroke-linejoin="round"/>
<path d="M-7.31006 116.455C-7.31006 116.455 61.7532 75.2046 100.994 54.9546C140.234 34.7046 212.437 -9.54541 212.437 -9.54541" stroke="#D8D8D6" stroke-width="4" stroke-linecap="round" stroke-linejoin="round"/>
<path d="M651.93 33.7296C651.93 33.7296 581.297 35.4546 555.399 33.9546C529.5 32.4546 517.728 39.2046 502.816 45.9546C487.905 52.7046 385.88 84.9546 341.146 98.4546C296.411 111.955 175.708 153.4 175.708 153.4L70.9355 71.1996L0.757812 0.864594" stroke="#D8D8D6" stroke-width="4" stroke-linecap="round" stroke-linejoin="round"/>
<path d="M628.386 -5.79541C628.386 -5.79541 708.437 124.705 711.576 139.705C714.715 154.705 708.437 329.575 711.576 345.205C714.715 360.835 792.412 480.205 792.412 480.205" stroke="#D8D8D6" stroke-width="4" stroke-linecap="round" stroke-linejoin="round"/>
</g>
</g>
</svg>
