<svg width="192" height="57" viewBox="0 0 192 57" fill="none" xmlns="http://www.w3.org/2000/svg">
<path d="M17.625 32.1747C11.4695 31.3021 11.6695 37.7379 1 49.5188V56.5H191L190.312 1.25L160.875 30.3203C150.535 36.4289 157.688 16.0306 148.75 15.3761C143.239 14.9726 138.934 23.6118 134.938 26.8843C132.435 28.9337 124.649 35.8751 118 30.3203C112.321 25.5753 119.125 18.8667 114 18.8667C108.875 18.8667 101.712 28.0296 99.25 32.3929C96.7878 36.7562 95.75 40.7922 89.75 40.7922C88.125 40.7922 85.2749 40.9462 87.125 33.7019C89.2026 25.5668 87.3482 30.6961 89 26.1752C90.375 22.4119 88.9845 20.3939 83.4718 20.3939C77.7143 20.3939 65.3825 31.2475 61.6892 36.0471C57.9959 40.8467 54.75 38.7196 50.75 32.1747C48.6017 28.6597 48.5 20.3939 41.5 29.9931C37.1974 35.8933 38.7346 38.0651 34.8072 41.9376C31.8227 44.8802 27.1037 46.1372 23 44.8282C18.8963 43.5192 23.7805 33.0474 17.625 32.1747Z" fill="url(#paint0_linear_1_12)" fill-opacity="0.15"/>
<path d="M186.486 3.70434L190.312 1.25M190.312 1.25L191 56.5H1V49.5188C11.6695 37.7379 11.4695 31.3021 17.625 32.1747C23.7805 33.0474 18.8963 43.5192 23 44.8282C27.1037 46.1372 31.8227 44.8802 34.8072 41.9376C38.7346 38.0651 37.1974 35.8933 41.5 29.9931C48.5 20.3939 48.6017 28.6597 50.75 32.1747C54.75 38.7196 57.9959 40.8467 61.6892 36.0471C65.3825 31.2475 77.7143 20.3939 83.4718 20.3939C88.9844 20.3939 90.375 22.4119 89 26.1752C87.3482 30.6961 89.2026 25.5668 87.125 33.7019C85.2749 40.9462 88.125 40.7922 89.75 40.7922C95.75 40.7922 96.7878 36.7562 99.25 32.3929C101.712 28.0296 108.875 18.8667 114 18.8667C119.125 18.8667 112.321 25.5753 118 30.3203C124.649 35.8751 132.435 28.9337 134.938 26.8843C138.934 23.6118 143.239 14.9726 148.75 15.3761C157.688 16.0306 150.535 36.4289 160.875 30.3203L190.312 1.25Z" stroke="#21DBA6" stroke-opacity="0.1"/>
<defs>
<linearGradient id="paint0_linear_1_12" x1="96" y1="1.08638" x2="96" y2="56.5" gradientUnits="userSpaceOnUse">
<stop stop-color="#21DBA6"/>
<stop offset="1" stop-color="#21DBA6" stop-opacity="0"/>
</linearGradient>
</defs>
</svg>
